<svg width="133" height="130" viewBox="0 0 133 130" fill="none" xmlns="http://www.w3.org/2000/svg">
<path d="M74.3014 114.502C74.2037 114.486 74 114.517 73.8555 114.579C73.7014 114.645 73.5693 114.656 73.5486 114.608C73.5321 114.569 73.3298 114.576 73.0959 114.642C72.6473 114.766 71.1541 114.927 71.0357 114.864C70.9945 114.847 70.8252 114.851 70.6545 114.879C70.4743 114.911 69.9527 114.918 69.4889 114.9C69.0251 114.882 68.5971 114.894 68.549 114.915C68.4912 114.94 68.4361 114.918 68.4155 114.87C68.3948 114.821 68.2599 114.799 68.1127 114.828C67.9613 114.848 67.8264 114.826 67.8058 114.777C67.781 114.72 67.7163 114.702 67.6585 114.727C67.3985 114.838 65.6011 114.343 64.2345 113.788C63.4087 113.458 62.232 113.028 61.6141 112.836C61.0003 112.655 60.4704 112.483 60.4291 112.466C60.3878 112.45 59.9956 112.333 59.5511 112.227C58.6441 112 57.6932 111.723 57.1784 111.534C56.9899 111.466 56.7628 111.415 56.6637 111.424C56.5646 111.432 56.0458 111.153 55.4939 110.796C54.9461 110.449 54.3887 110.107 54.2428 110.033C54.0915 109.972 53.9607 109.88 53.9442 109.841C53.9277 109.803 53.8465 109.746 53.7694 109.7C53.1982 109.431 50.8172 107.601 50.714 107.36C50.6768 107.274 50.2061 106.814 49.9102 106.576C49.8207 106.5 49.5688 106.152 49.3459 105.792C49.1229 105.431 48.8724 105.06 48.7788 104.974C48.5173 104.71 47.5551 103.184 46.8944 101.962C46.0561 100.406 44.2102 96.0996 43.9623 95.1226C43.7682 94.3505 43.6112 93.2661 43.658 93.0294C43.6758 92.9647 43.6428 92.6482 43.6042 92.3455C43.5519 92.0372 43.5395 91.7688 43.5876 91.7482C43.6262 91.7317 43.6358 91.6477 43.6028 91.5706C43.5697 91.4936 43.5463 91.3326 43.5532 91.2156C43.5642 91.1082 43.5971 90.3871 43.6232 89.6233C43.6589 88.8554 43.707 88.1962 43.7235 88.1549C43.74 88.1136 43.7744 87.9278 43.7812 87.731C43.7922 87.5439 43.8225 87.3485 43.839 87.3072C43.8555 87.2659 43.9146 86.8984 43.9765 86.4842C44.0343 86.0603 44.1113 85.708 44.1594 85.6873C44.2076 85.6667 44.2324 85.5649 44.2255 85.4424C44.2131 85.3337 44.2406 85.1052 44.2929 84.9345C44.3451 84.7639 44.3988 84.5698 44.4125 84.4955C44.5198 84.1074 45.0632 82.4491 45.2779 81.9123C46.212 79.5162 47.8645 76.721 49.4112 74.929C49.663 74.6386 49.8804 74.3744 49.8969 74.3331C49.9134 74.2918 50.0455 74.1211 50.1914 73.956C51.2674 72.742 51.5564 72.4585 51.983 72.1502C52.2472 71.9685 52.4508 71.7786 52.4343 71.74C52.4178 71.7015 52.5265 71.6093 52.6806 71.5432C52.8444 71.473 52.9724 71.3725 52.9806 71.312C52.993 71.261 53.1664 71.1069 53.3618 70.9775C53.7664 70.7242 54.1571 69.9067 54.025 69.5985C53.9837 69.5022 53.9768 69.3797 54.0029 69.3343C54.0387 69.2847 53.9602 68.8622 53.8335 68.3806C53.6614 67.7131 53.5252 67.3953 53.2526 66.9989C52.8507 66.4072 52.1997 65.7398 51.901 65.6284C51.7909 65.5844 51.5955 65.4743 51.4551 65.3862C51.3244 65.294 51.173 65.2335 51.1248 65.2542C51.0863 65.2707 50.7877 65.2391 50.4766 65.1785C50.0541 65.0974 49.7238 65.125 49.1706 65.2709C48.7647 65.3879 48.2885 65.5008 48.1 65.5132C47.9156 65.5353 46.6371 66.0377 45.25 66.6324C43.8629 67.2271 42.7097 67.6758 42.6931 67.6373C42.6725 67.5891 42.1138 67.7488 41.4518 67.987C40.7803 68.2293 40.0482 68.4633 39.8197 68.5156C39.1688 68.6465 38.3362 68.7525 38.2536 68.7195C38.1807 68.6824 37.0564 68.7995 36.6187 68.8958C36.4715 68.9248 36.2541 68.9496 36.1274 68.9468C36.005 68.9537 35.2164 69.1891 34.3687 69.4727C33.5251 69.7659 32.7559 69.9931 32.6527 69.9917C32.5453 69.9807 32.1696 70.062 31.8105 70.1817C31.4568 70.2878 31.1004 70.3607 31.0302 70.3566C30.9655 70.3387 30.6435 70.3856 30.3256 70.442C29.4558 70.621 28.8173 70.7009 28.4182 70.701C28.2214 70.6941 28.004 70.7189 27.9269 70.7519C27.8595 70.7808 27.6613 70.7974 27.4838 70.7823C27.3062 70.7671 27.0282 70.7837 26.848 70.8154C26.6677 70.847 26.5039 70.8374 26.4833 70.7893C26.4626 70.7411 26.3787 70.7315 26.3016 70.7645C26.1378 70.8347 25.1786 70.7784 25.0947 70.6889C25.0589 70.6587 24.9749 70.6491 24.9075 70.678C24.8015 70.7234 24.0639 70.5721 23.2932 70.3437C22.55 70.1264 21.0595 69.4426 20.2159 68.9376C19.2002 68.3239 18.8698 68.112 18.3028 67.6937C18.0152 67.475 17.7303 67.2892 17.689 67.2727C17.638 67.2603 17.3848 67.0952 17.1192 66.9012C16.8439 66.7113 16.5054 66.4801 16.3567 66.3728C16.2026 66.2792 16.0181 66.1416 15.9466 66.0811C15.8654 66.0247 15.4552 65.733 15.0258 65.4495C14.5964 65.1661 13.9138 64.7175 13.5215 64.4409C11.914 63.3512 11.5575 63.1049 11.402 63.0347C11.3112 62.9824 10.9355 62.6646 10.5666 62.3096C10.1977 61.9545 9.82474 61.5899 9.73115 61.5046C9.64719 61.4151 9.30584 60.9913 8.98927 60.5454C8.51991 59.9028 8.27077 59.4281 7.67196 58.0313C7.26725 57.0873 6.8818 56.0552 6.80608 55.7455C6.42744 54.1175 6.17268 52.6987 6.22083 52.5184C6.23871 52.4537 6.20702 52.1138 6.1423 51.7766C6.07758 51.4395 6.04865 51.1326 6.08442 51.083C6.11057 51.0376 6.10367 50.9151 6.05824 50.8092C6.01695 50.7129 6.01831 50.6096 6.05684 50.5931C6.10501 50.5725 6.09259 50.3041 6.04439 50.0055C6.00169 49.6931 5.97276 49.3862 5.97688 49.316C5.99476 49.2513 6.01122 48.7311 6.00703 48.1628C6.01099 46.7356 6.14438 45.8232 6.44156 45.08C6.73873 44.3369 7.00978 43.7987 7.11574 43.7533C7.15427 43.7368 7.26848 43.551 7.36479 43.35C7.97155 42.132 8.15454 41.7343 8.28112 41.4178C8.65259 40.5287 9.86754 38.4684 10.0698 38.3817C10.1084 38.3652 10.195 38.2482 10.2583 38.1298C10.4317 37.816 11.4334 36.5085 11.743 36.1933C11.8834 36.0419 11.9811 35.8974 11.9604 35.8493C11.9398 35.8011 11.9714 35.7419 12.0389 35.713C12.0967 35.6882 12.193 35.5671 12.2411 35.4666C12.3113 35.3111 12.72 35.0675 13.7012 34.5898C14.4553 34.2209 15.1103 33.8603 15.153 33.7736C15.2741 33.5506 21.7336 30.77 21.8919 30.8732C21.9511 30.9048 22.324 30.8704 22.7052 30.7754C23.1002 30.6859 23.5075 30.6253 23.6107 30.6266C23.9617 30.6473 24.3704 30.6431 24.6498 30.6031C24.8961 30.5659 25.4369 30.5508 26.3136 30.574C26.5104 30.5809 26.7085 30.5644 26.7663 30.5396C26.8145 30.5189 27.0911 30.5258 27.3856 30.5478C27.6705 30.5739 28.0269 30.5807 28.1783 30.5615C28.6696 30.5105 32.2092 30.7605 32.3964 30.8514C32.4377 30.8679 32.6606 30.9091 32.885 30.927C33.8882 31.0328 36.4742 31.7716 37.249 32.1692C37.5091 32.2972 37.9248 32.4953 38.1808 32.6136C38.4464 32.7278 38.7698 32.897 38.8964 32.9796C39.023 33.0622 39.3451 33.2548 39.6038 33.4061C40.2163 33.7708 41.2705 34.5275 41.3242 34.6528C41.349 34.7106 41.4027 34.756 41.4591 34.7546C41.6986 34.7546 43.463 36.5297 43.8264 37.1379C43.9888 37.4104 44.1705 37.6746 44.2297 37.7062C44.3027 37.7434 44.4623 37.9828 44.5931 38.2346C45.6062 40.0924 46.5766 41.7974 46.8202 42.1263C47.2607 42.7015 48.5367 45.5184 48.7749 46.4198C48.8768 46.8436 49.0929 47.6404 49.2444 48.1799C49.5211 49.2244 49.707 50.1368 49.7126 50.5221C49.7195 50.6446 49.7814 51.0286 49.8599 51.3712C49.9384 51.7139 50.0004 52.0978 49.9976 52.2245C49.9963 52.5671 50.1202 53.335 50.2978 54.0685C50.3901 54.4167 50.419 54.7236 50.3805 54.7401C50.342 54.7566 50.4411 55.1474 50.5966 55.6167C50.7522 56.086 50.8541 56.5098 50.8183 56.5594C50.7316 56.6764 52.0118 59.6626 52.177 59.7286C52.2499 59.7658 52.6959 60.6465 53.1791 61.6937C54.1055 63.7483 53.9802 63.5625 55.4722 65.1009C55.5603 65.2 55.6002 65.1601 55.6621 64.9055C55.7103 64.7252 55.7212 64.4582 55.6841 64.2917C55.6606 64.1307 55.6785 63.9862 55.7267 63.9655C55.7748 63.9449 55.7927 63.8802 55.7679 63.8224C55.7019 63.6683 55.8667 61.1801 55.9864 60.5814C56.0455 60.2938 56.084 60.0378 56.0675 59.9993C56.0262 59.903 56.5145 57.4244 56.659 57.0431C56.7044 56.9096 56.7319 56.761 56.7153 56.7225C56.6947 56.6743 56.7181 56.5161 56.7648 56.3592C56.8061 56.216 56.8721 55.9711 56.8997 55.8224C56.9973 55.2788 57.2889 54.2301 57.3536 54.1682C57.3839 54.1324 57.3894 54.0388 57.3605 53.9714C57.3274 53.8943 57.3439 53.7732 57.3948 53.7058C57.4361 53.6425 57.5242 53.3425 57.5833 53.0548C57.6383 52.7576 57.7236 52.5043 57.7622 52.4878C57.8103 52.4672 57.8241 52.3928 57.7993 52.335C57.7704 52.2676 57.8172 52.0309 57.8914 51.8052C58.0538 51.3593 58.3 50.3643 58.4073 49.7367C58.4485 49.5138 58.5118 49.3156 58.56 49.2949C58.6082 49.2743 58.6302 49.2192 58.6054 49.1614C58.5393 49.0073 58.8309 47.799 59.0965 47.115C59.234 46.7709 59.611 46.0277 59.9261 45.4593C60.7173 44.0596 61.3199 42.832 61.9762 41.3305C62.3834 40.3919 63.0576 38.9853 63.1278 38.9096C63.1677 38.8697 63.2723 38.6881 63.3589 38.4912C63.4456 38.2944 63.8598 37.5581 64.2767 36.8548C64.6936 36.1516 65.0692 35.5116 65.1009 35.4524C65.1628 35.3574 66.126 33.9068 66.4906 33.3742C66.5676 33.2613 66.6984 33.1141 66.7823 33.0439C66.8525 32.9682 66.9048 32.8773 66.8882 32.8388C66.8717 32.8003 66.9488 32.6874 67.0616 32.6048C67.1841 32.5181 67.3107 32.3612 67.3492 32.2649C67.3877 32.1685 67.8996 31.5272 68.4844 30.8431C69.0651 30.1495 69.5508 29.5535 69.5439 29.5109C69.5425 29.4544 69.588 29.4008 69.6458 29.376C69.6939 29.3553 69.9086 29.1379 70.1205 28.8874C70.3228 28.641 70.5567 28.4153 70.6241 28.3864C70.6915 28.3575 70.7562 28.2955 70.759 28.2488C70.7576 28.1125 71.9286 26.8009 72.1116 26.7224C72.1598 26.7017 72.2946 26.5641 72.4157 26.421C72.5313 26.2916 72.8464 26.0425 73.1092 25.8842C73.3762 25.7355 73.5785 25.569 73.562 25.5304C73.5455 25.4919 73.6652 25.3722 73.822 25.2593C74.7206 24.6688 75.8022 23.92 75.9027 23.8086C75.9674 23.7466 76.2811 23.5209 76.6031 23.3144C76.9251 23.108 77.4233 22.7804 77.7164 22.5863C78.4787 22.077 82.4379 20.3797 83.8814 19.9433C84.5461 19.7382 85.9649 19.244 87.0452 18.8379C88.1117 18.4263 89.031 18.1234 89.0902 18.155C89.1438 18.2004 89.375 18.1811 89.6035 18.1288C89.9695 18.0517 90.5984 18.0558 90.8049 18.1383C90.8462 18.1548 91.0278 18.1796 91.2054 18.1947C91.6636 18.2263 97.426 20.5225 97.7619 20.8005C97.9091 20.9312 98.1128 21.0605 98.2092 21.0991C98.3096 21.1472 98.5175 21.2862 98.6744 21.4128C98.8354 21.549 98.9978 21.6618 99.0391 21.6783C99.1313 21.7072 99.5222 22.0072 100.091 22.4819C100.309 22.6732 100.526 22.8314 100.567 22.8479C100.608 22.8645 100.9 23.0929 101.203 23.3736C101.515 23.6502 101.788 23.8868 101.829 23.9033C101.949 23.9432 102.781 24.795 102.839 24.9299C102.864 24.9877 102.927 25.0289 102.975 25.0083C103.024 24.9877 103.161 25.1225 103.286 25.3083C103.408 25.4844 103.556 25.6716 103.625 25.6991C103.688 25.7404 103.895 25.9825 104.076 26.2468C104.268 26.5068 104.495 26.7972 104.579 26.8866C105.293 27.5953 105.688 28.304 106.806 30.7783C108.089 33.6379 108.878 35.9567 108.925 36.9971C108.932 37.1195 109.042 37.6425 109.157 38.1517C109.497 39.5567 109.595 40.1306 109.502 40.2049C109.452 40.249 109.438 40.3233 109.463 40.3811C109.484 40.4292 109.469 40.6068 109.436 40.7692C109.389 40.926 109.331 41.1903 109.304 41.3389C109.276 41.4875 109.205 41.7463 109.148 41.9073C109.092 42.0683 108.991 42.4193 108.918 42.7014C108.851 42.9698 108.7 43.3881 108.602 43.6125C108.499 43.8506 108.429 44.0859 108.449 44.1341C108.486 44.2208 108.277 45.2227 108.096 45.8365C107.867 46.6072 107.42 47.5857 106.779 48.75C106.617 49.0363 106.421 49.4051 106.332 49.5689C105.769 50.597 105.105 51.6801 104.754 52.1384C104.41 52.5596 104.24 52.8032 104.217 52.8817C104.201 52.9229 104.042 53.139 103.859 53.3771C103.672 53.6056 103.497 53.863 103.46 53.9359C103.427 54.0185 103.233 54.2841 103.027 54.5208C102.825 54.7672 102.651 55.0012 102.635 55.0425C102.571 55.2406 101.516 56.4229 101.333 56.5014C101.275 56.5262 101.244 56.5853 101.264 56.6335C101.31 56.7395 100.198 57.4442 99.5234 57.7333C99.2345 57.8572 98.9854 58.021 98.9771 58.0815C98.973 58.1517 98.7294 58.3017 98.4405 58.4256C98.1515 58.5495 97.9175 58.6954 97.9093 58.756C97.8969 58.8069 97.4277 59.1221 96.8593 59.4456C96.291 59.769 95.7873 60.1104 95.7351 60.2012C95.6085 60.4379 91.8571 62.0348 91.4732 62.0169C91.3232 62.0128 90.8346 62.0968 90.3915 62.207C89.9525 62.3267 89.5548 62.3832 89.5094 62.3571C89.4598 62.3213 89.3181 62.3364 89.1929 62.3901C89.0676 62.4438 88.9259 62.459 88.8763 62.4232C88.8172 62.3915 88.4483 62.4356 88.0534 62.5251C87.6488 62.6187 87.313 62.6601 87.2924 62.6119C87.2758 62.5734 87.1534 62.5803 87.0281 62.634C86.7295 62.762 85.2185 62.908 84.4973 62.8751C83.3496 62.8312 82.8569 62.8257 82.7413 62.8753C82.6835 62.9001 82.623 62.8918 82.6064 62.8533C82.5858 62.8051 82.2679 62.7817 81.8922 62.7832C81.5165 62.7846 81.1986 62.7612 81.1821 62.7227C81.1614 62.6745 81.0912 62.6704 81.0334 62.6952C80.966 62.7241 80.5476 62.7324 80.0935 62.7104C78.9182 62.6555 78.2191 62.6473 78.1035 62.6969C78.0457 62.7217 77.981 62.7038 77.9562 62.646C77.9356 62.5978 77.8571 62.5744 77.7993 62.5992C77.7278 62.6185 77.4636 62.6405 77.2062 62.6254C76.9489 62.6103 76.7039 62.6241 76.6612 62.631C76.6131 62.6516 76.2415 62.6627 75.8245 62.6476C75.4213 62.638 74.9658 62.6394 74.8185 62.6684C74.6809 62.6931 74.546 62.6711 74.5254 62.623C74.5047 62.5748 74.4111 62.5693 74.3148 62.6106C74.2185 62.6519 74.0396 62.6602 73.9047 62.6382C73.7657 62.6066 73.5593 62.6038 73.4409 62.6204C73.3226 62.6369 73.1244 62.6534 73.0019 62.6603C72.823 62.6686 72.8451 62.6934 73.1079 62.7745C73.2882 62.8227 73.4933 62.8488 73.5607 62.8199C73.6955 62.7621 74.1456 62.7744 75.3222 62.8857C75.7516 62.9297 76.331 62.9778 76.6255 62.9998C76.92 63.0218 77.1897 63.0658 77.22 63.1098C77.2558 63.1401 77.3356 63.1401 77.4031 63.1112C77.4705 63.0823 77.6618 63.1029 77.8324 63.1552C78.0031 63.2075 78.1751 63.2364 78.2329 63.2116C78.2811 63.1909 78.5646 63.2404 78.8563 63.3092C79.1426 63.3918 79.4619 63.4715 79.5637 63.4963C80.267 63.6737 82.7429 64.7675 82.8214 64.9506C82.8337 64.9795 82.9934 65.0593 83.1819 65.1267C83.3705 65.1941 83.5384 65.2932 83.559 65.3413C83.5797 65.3895 83.8728 65.5945 84.2045 65.783C84.5362 65.9715 84.8376 66.1958 84.8665 66.2632C84.8954 66.3307 84.9588 66.3719 85.0069 66.3513C85.161 66.2852 87.9343 68.6313 88.0665 68.9396C88.0995 69.0166 88.1794 69.0964 88.2482 69.124C88.4312 69.2051 88.9928 70.0363 89.2075 70.5372C89.3108 70.778 89.4415 70.95 89.4897 70.9294C89.5475 70.9046 89.7058 71.1674 89.8669 71.5431C90.0238 71.9092 90.4932 72.8711 90.9144 73.694C91.7279 75.2724 93.3179 79.3802 93.2174 79.6513C93.1899 79.7201 93.2505 79.9678 93.3482 80.2224C93.6525 80.9586 94.2996 83.6917 94.184 83.7413C94.1455 83.7578 94.1606 83.9793 94.235 84.2325C94.2955 84.4803 94.3231 84.7307 94.2873 84.7803C94.2612 84.8257 94.2763 85.0472 94.3287 85.2757C94.381 85.5041 94.3975 85.7023 94.3494 85.723C94.3108 85.7395 94.3095 85.9225 94.359 86.1179C94.399 86.3175 94.3976 86.5005 94.3494 86.5212C94.2916 86.5459 94.2862 86.6395 94.3233 86.7262C94.3935 86.89 94.3771 87.8891 94.3083 88.0212C94.2822 88.0666 94.2698 88.2772 94.2905 88.485C94.3015 88.6969 94.2905 89.0437 94.2507 89.2433C94.2245 89.4483 94.1916 89.7704 94.1806 89.9575C94.1737 90.1543 94.1159 90.4984 94.0595 90.7392C94.0031 90.9801 93.9701 91.2223 93.9867 91.2608C94.0238 91.3475 93.9784 91.5608 93.5754 93.3073C93.1765 94.9835 92.3593 97.3066 91.7044 98.5453C91.5406 98.8549 91.3164 99.316 91.2132 99.5541C91.1059 99.7825 90.982 100.052 90.9353 100.129C90.883 100.22 90.7096 100.534 90.5555 100.84C90.3973 101.135 90.217 101.407 90.1496 101.435C90.0918 101.46 90.0643 101.529 90.0849 101.577C90.1097 101.635 90.0354 101.781 89.9198 101.91C89.7905 102.034 89.635 102.283 89.5497 102.457C89.4685 102.64 89.3653 102.798 89.3075 102.823C89.2497 102.848 89.0709 103.095 88.9044 103.372C88.7241 103.643 88.215 104.317 87.7705 104.85C87.3165 105.387 86.9367 105.858 86.9202 105.899C86.8321 106.119 85.218 107.86 84.8905 108.08C84.724 108.197 84.5754 108.329 84.563 108.38C84.5328 108.496 83.7856 109.147 83.4044 109.402C83.2337 109.509 83.0218 109.68 82.9365 109.773C82.6255 110.112 80.3288 111.564 79.6009 111.888C79.3793 111.982 79.188 112.122 79.1798 112.182C79.1757 112.252 78.9321 112.402 78.6431 112.526C78.3541 112.65 78.1147 112.81 78.1064 112.87C78.083 113.029 74.5478 114.544 74.3014 114.502ZM80.5114 107.654C80.5541 107.568 80.8486 107.35 81.1692 107.167C81.4802 106.988 81.7251 106.815 81.7086 106.776C81.6921 106.738 81.9632 106.519 82.3003 106.294C82.6471 106.066 82.9044 105.841 82.8838 105.793C82.8631 105.745 82.9044 105.682 82.9815 105.649C83.0585 105.616 83.2168 105.48 83.3379 105.336C84.707 103.769 84.9519 103.436 85.234 102.79C85.6454 101.861 85.8075 99.8189 85.5363 99.0001L85.3601 98.4827L85.0436 98.7552C84.8565 98.9039 84.7065 99.0594 84.69 99.1007C84.6556 99.2067 83.413 100.218 83.2203 100.301C83.1336 100.338 83.0538 100.338 83.0332 100.29C83.0166 100.251 82.8873 100.216 82.751 100.217C82.6107 100.209 82.4496 100.152 82.3781 100.092C82.3065 100.031 82.1592 99.9005 82.0519 99.8097C81.9308 99.7134 81.8165 99.5799 81.7835 99.5029C81.7504 99.4258 81.6252 99.3198 81.4917 99.2744C81.2398 99.1658 81.0458 99.2717 80.1514 100.032C79.7757 100.352 79.4592 100.545 79.2211 100.601C78.8551 100.678 78.1862 100.475 77.3949 100.039C76.6998 99.6411 76.4384 99.8558 75.8385 101.276C75.5455 101.949 75.2882 102.333 75.0666 102.428C74.951 102.478 74.885 102.563 74.9056 102.611C74.9304 102.669 74.7542 102.79 74.5134 102.893C74.2726 102.997 74.0634 103.041 74.0386 102.983C74.018 102.935 73.9299 102.915 73.8528 102.948C73.7758 102.981 73.5074 102.994 73.2597 102.975C73.0024 102.959 72.7326 102.995 72.6625 103.071C72.4781 103.253 72.4878 103.807 72.6791 104.626C72.7741 105.007 72.8237 105.362 72.7879 105.412C72.7522 105.461 72.7549 105.574 72.7962 105.671C72.8912 105.892 72.8032 106.831 72.6629 107.142C72.5996 107.26 72.3877 107.511 72.1841 107.701C71.8566 108.001 71.7699 108.038 71.2648 108.083C70.9675 108.108 70.5822 108.114 70.4184 108.104C70.2547 108.094 70.0758 108.103 70.018 108.127C69.8157 108.214 69.7923 108.772 69.9658 109.176C70.1145 109.523 70.2493 109.625 71.1164 110.051C71.6504 110.313 72.2202 110.525 72.4032 110.526C72.5766 110.531 72.7294 110.569 72.75 110.617C72.7665 110.655 72.9496 110.657 73.1491 110.617C73.3445 110.567 73.5275 110.568 73.5482 110.617C73.6267 110.8 80.3587 107.936 80.5114 107.654ZM94.6766 58.5568C94.7371 58.4852 95.2683 58.1549 95.8463 57.8273C96.4283 57.5093 96.9788 57.1707 97.0641 57.0771C97.1494 56.9835 97.4522 56.7853 97.7246 56.6229C98.4141 56.2361 98.5214 56.0076 98.2654 55.57C98.0355 55.1668 97.2303 54.0866 96.9949 53.8568C96.9013 53.7715 96.5449 53.3656 96.2035 52.9417C95.8567 52.5317 95.5263 52.1601 95.463 52.1189C95.4039 52.0872 95.13 51.7941 94.8437 51.4721C94.5615 51.1597 94.2216 50.7923 94.0839 50.6575C93.9504 50.5323 93.6104 50.1649 93.3338 49.8387C93.0709 49.5181 92.7709 49.1906 92.6759 49.1287C92.5864 49.053 92.486 48.925 92.4529 48.848C92.4199 48.7709 92.3524 48.72 92.3139 48.7365C92.2657 48.7572 92.0552 48.5053 91.8253 48.182C91.6009 47.8448 91.3614 47.5256 91.2899 47.465C91.0353 47.2435 90.6237 46.7357 90.1874 46.0903C89.2321 44.6867 89.0147 44.3922 88.9266 44.373C88.8853 44.3565 88.6802 44.0909 88.4738 43.7689C87.2694 41.8905 85.71 40.2214 84.8264 39.8361C84.5057 39.6999 84.3736 39.7109 83.9209 39.905C83.6319 40.0289 83.3787 40.1831 83.3512 40.2519C83.314 40.3248 83.0718 40.5313 82.8076 40.713C81.8154 41.3778 81.2705 41.7825 81.2031 41.8912C81.1673 41.9407 80.932 42.11 80.6788 42.2642C80.4352 42.4142 80.2041 42.5932 80.1628 42.6565C80.1311 42.7157 79.7445 42.9841 79.311 43.2497C78.8679 43.5195 78.5335 43.7769 78.55 43.8154C78.5665 43.8539 78.4427 43.9641 78.2913 44.0632C77.39 44.6206 76.4886 45.3377 76.3703 45.5937C76.2534 45.8263 76.2658 45.935 76.4337 46.1937C76.5507 46.3602 76.6952 46.5377 76.7544 46.5694C76.8273 46.6065 77.0283 46.8625 77.2141 47.1363C77.5472 47.6207 78.6551 48.6624 78.7804 48.6087C78.8093 48.5963 79.0309 48.7408 79.2579 48.9513C79.4809 49.1522 79.7314 49.3641 79.803 49.4247C79.8745 49.4852 80.0989 49.7425 80.2861 49.993C80.4788 50.2297 80.6646 50.4237 80.7128 50.403C80.7513 50.3865 80.8229 50.4471 80.8642 50.5434C80.9013 50.6301 81.3775 51.0759 81.9184 51.5396C82.4552 51.9937 82.9314 52.4395 82.9727 52.5359C83.014 52.6322 83.0759 52.6969 83.1241 52.6762C83.2108 52.6391 83.815 53.2239 84.0738 53.6147C84.1825 53.7619 84.3023 53.8816 84.3504 53.861C84.3986 53.8404 84.4578 53.872 84.4867 53.9394C84.5569 54.1032 85.4845 54.8572 85.5712 54.8201C85.6098 54.8035 85.6648 54.8256 85.6855 54.8737C85.7102 54.9315 86.3282 55.3622 87.0742 55.8521C87.816 56.3323 88.5124 56.7863 88.6252 56.8634C88.734 56.9308 88.9377 57.0601 89.0835 57.1344C89.2239 57.2225 89.3547 57.3147 89.3712 57.3532C89.3836 57.3821 89.6547 57.5624 89.9864 57.7509C90.3085 57.9435 90.7021 58.1967 90.8548 58.3136C91.2003 58.5875 91.5113 58.8076 91.6077 58.8461C91.649 58.8627 91.8802 59.003 92.1155 59.153C92.355 59.3126 92.6716 59.4392 92.8119 59.4474C93.083 59.468 94.4743 58.8032 94.6766 58.5568ZM89.344 60.2157C89.2779 60.0616 86.4675 57.7884 85.8165 57.3605C85.5729 57.1913 85.3527 57.0234 85.332 56.9752C85.3155 56.9367 85.2522 56.8954 85.1958 56.8968C85.0499 56.9023 83.2042 55.4699 83.1299 55.2965C83.0927 55.2098 83.0088 55.1204 82.9262 55.0874C82.8574 55.0598 82.6399 54.7654 82.4665 54.4406C82.2793 54.1103 82.0852 53.8172 82.0219 53.7759C81.9627 53.7443 81.781 53.5599 81.6228 53.3769C81.4741 53.1897 81.141 52.865 80.9002 52.649C80.6593 52.4329 80.4377 52.2086 80.4088 52.1412C80.3593 52.0256 79.733 51.416 79.4233 51.1725C79.338 51.1064 79.1673 50.8945 79.0421 50.7087C78.8053 50.3427 78.336 49.9395 78.2204 49.9891C78.1819 50.0056 78.0773 49.9478 78.003 49.8542C77.9286 49.7607 77.78 49.6533 77.6974 49.6203C77.4635 49.5268 75.9357 48.1975 75.5035 47.7214C75.3136 47.5177 75.0026 47.2976 74.8236 47.2261C74.4975 47.1036 74.4878 47.1077 74.053 47.4766C73.8108 47.6831 73.442 47.9666 73.2232 48.0946C73.0182 48.2281 72.831 48.3768 72.8324 48.4332C72.82 48.4841 72.6178 48.6507 72.3838 48.7966C72.1458 48.9328 71.9338 49.1035 71.8926 49.1668C71.8609 49.226 71.5362 49.4793 71.1894 49.7077C70.833 49.9404 70.5564 50.173 70.5729 50.2115C70.5894 50.25 70.4807 50.3423 70.3266 50.4083C70.1628 50.4785 70.0349 50.579 70.0225 50.6299C70.0142 50.6905 69.7142 50.9217 69.362 51.164C69.0056 51.3966 68.667 51.6443 68.601 51.7297C68.4895 51.8687 68.0368 52.2224 67.3212 52.7344C67.1052 52.8955 66.8231 53.1419 66.6828 53.2932C66.552 53.4405 66.4034 53.5726 66.3456 53.5974C66.2975 53.6181 66.153 53.7598 66.0415 53.8988C65.9204 54.042 65.747 54.1961 65.6603 54.2333C65.564 54.2746 65.5076 54.3558 65.5282 54.404C65.553 54.4618 65.4732 54.5416 65.3576 54.5912C65.1842 54.6655 65.3797 54.7756 66.3761 55.158C67.5982 55.6148 69.7052 56.3536 70.2406 56.5118C70.7016 56.6562 72.2706 57.2038 73.9331 57.8366C74.8015 58.1599 75.6988 58.4709 75.9066 58.53C76.1199 58.5754 76.3222 58.6483 76.3484 58.6827C76.3883 58.7226 76.4585 58.7267 76.5163 58.702C76.603 58.6648 76.8438 58.7212 77.5829 58.9289C77.6751 58.9578 77.7687 58.9633 77.7976 58.9509C77.8554 58.9261 78.3604 59.0403 79.6059 59.3388C80.1936 59.486 80.6161 59.8066 80.8102 60.2593C80.8763 60.4135 81.0359 60.5731 81.1694 60.6185C81.5149 60.7327 84.4544 60.8865 84.6664 60.7956C84.7338 60.7667 84.7985 60.7846 84.815 60.8231C84.8315 60.8617 85.0751 60.8713 85.3641 60.8272C85.6476 60.7969 85.9352 60.7762 86.004 60.8037C86.0784 60.8175 86.3054 60.7886 86.5242 60.7404C86.7334 60.6963 86.9453 60.6853 86.9908 60.7114C87.0403 60.7472 87.2674 60.7183 87.5151 60.6577C87.7532 60.6012 88.0133 60.5695 88.0779 60.5874C88.2995 60.6521 89.3935 60.3313 89.344 60.2157ZM101.203 53.8316C101.187 53.793 101.326 53.5852 101.509 53.3471C101.692 53.109 101.827 52.8916 101.81 52.853C101.789 52.8049 101.825 52.7553 101.873 52.7347C101.931 52.7099 102.062 52.5626 102.161 52.3947C102.264 52.2364 102.594 51.73 102.903 51.2785C103.211 50.8271 103.52 50.3523 103.593 50.2298C103.662 50.0977 103.808 49.9325 103.921 49.8499C104.02 49.7618 104.092 49.6627 104.071 49.6146C104.054 49.576 104.203 49.2843 104.4 48.9719C104.591 48.6732 104.924 48.0401 105.125 47.5777C105.335 47.1111 105.532 46.7189 105.561 46.7065C105.599 46.69 105.627 46.5414 105.627 46.3817C105.635 46.1615 105.524 45.9014 105.152 45.2739C104.892 44.8267 104.64 44.4785 104.592 44.4992C104.553 44.5157 104.461 44.407 104.395 44.2529C104.325 44.0891 104.224 43.9611 104.173 43.9488C104.113 43.9405 103.915 43.7176 103.719 43.4479C103.524 43.1782 103.255 42.8713 103.116 42.7599C102.977 42.6484 102.845 42.4998 102.816 42.4323C102.787 42.3649 102.695 42.2562 102.606 42.1805C102.52 42.1145 102.233 41.8159 101.968 41.5187C101.704 41.2214 101.412 40.9132 101.319 40.8279C101.235 40.7384 100.895 40.371 100.578 40.005C100.252 39.6431 99.9218 39.2715 99.8282 39.1862C99.7346 39.1009 99.5846 38.9372 99.4979 38.8147C99.319 38.5835 98.862 38.1294 98.606 37.9313C98.5207 37.8652 98.3542 37.663 98.2427 37.4827C98.1215 37.3065 97.988 37.1813 97.9495 37.1978C97.911 37.2144 97.7307 37.0066 97.5393 36.7465C97.348 36.4864 97.1402 36.2676 97.0796 36.2594C97.015 36.2415 96.9351 36.1617 96.898 36.075C96.8512 35.9924 96.6667 35.775 96.4699 35.6085C96.2731 35.442 96.1052 35.2631 96.079 35.2287C96.0625 35.1902 95.9772 35.1241 95.9001 35.0774C95.8134 35.0347 95.618 34.9246 95.4501 34.8256C95.2863 34.7361 94.8899 34.6096 94.5693 34.5532C93.9376 34.4363 93.2922 34.6331 92.8491 35.0626C92.7294 35.1823 92.0069 35.5718 91.2445 35.9215C90.4863 36.2808 89.7982 36.6442 89.7129 36.7378C89.6276 36.8313 88.9863 37.1975 88.2983 37.5609C86.5011 38.5024 86.5712 38.4267 86.9622 39.1258C87.1411 39.4368 87.3971 39.7945 87.5403 39.9156C87.6793 40.0271 87.8376 40.2101 87.8871 40.3257C87.9325 40.4317 88.0151 40.5445 88.0702 40.5665C88.1349 40.5844 88.3152 40.7922 88.4858 41.0041C88.651 41.2298 88.9662 41.6192 89.1671 41.8752C89.3777 42.127 89.7452 42.5852 89.9902 42.8907C90.2256 43.2003 90.472 43.4824 90.5311 43.514C90.5848 43.5595 90.7665 43.8237 90.9372 44.1154C91.1037 44.3975 91.2785 44.619 91.3171 44.6025C91.3652 44.5819 91.5221 44.7883 91.6804 45.0511C91.8346 45.3043 92.0218 45.5548 92.081 45.5864C92.1443 45.6277 92.3411 45.874 92.5228 46.1382C92.8284 46.6116 93.0968 46.9185 93.6253 47.4331C93.7533 47.5721 93.9556 47.8046 94.0643 47.9519C94.1676 48.1129 94.3148 48.2436 94.3754 48.2519C94.4401 48.2697 94.5199 48.3496 94.5571 48.4363C94.5942 48.523 94.7346 48.6908 94.8736 48.8023C95.0126 48.9137 95.2108 49.1367 95.3237 49.2935C95.5109 49.544 95.8688 49.9265 96.2445 50.2444C96.3161 50.3049 96.5308 50.5664 96.718 50.8168C96.9107 51.0535 97.0965 51.2475 97.135 51.231C97.1735 51.2145 97.263 51.2902 97.3456 51.403C97.6594 51.8158 98.5664 52.7612 99.0055 53.1203C99.2601 53.3419 99.4831 53.5428 99.4955 53.5717C99.512 53.6102 99.768 53.8083 100.075 54.0189L100.631 54.3849L100.927 54.144C101.095 54.0036 101.216 53.8605 101.203 53.8316ZM72.4115 62.6397C72.2065 62.6136 71.9257 62.5971 71.7744 62.6164C71.4909 62.6467 70.917 62.6647 70.3734 62.6468C69.9426 62.6263 69.1087 62.6759 68.7908 62.7323C68.6532 62.7571 68.5321 62.7406 68.5155 62.7021C68.499 62.6636 68.1247 62.7214 67.6912 62.8274C67.2481 62.9376 66.8077 63.0009 66.7059 62.9762C66.4375 62.9088 62.0587 64.7974 61.9706 65.0176C61.866 65.2791 62.184 65.3823 62.6849 65.2473C62.923 65.1909 63.9922 64.8123 65.0628 64.4104C66.1335 64.0084 67.0816 63.6931 67.1601 63.7165C67.2482 63.7358 67.628 63.6642 68.0106 63.5458C68.3931 63.4274 68.7977 63.3337 68.8913 63.3392C68.9987 63.3502 69.4308 63.2676 69.8505 63.1561C70.5757 62.9592 71.0973 62.8725 71.6092 62.8696C71.8583 62.8655 72.5395 62.7787 72.6882 62.7264C72.7501 62.7113 72.6207 62.6755 72.4115 62.6397ZM71.5442 59.2599C70.1899 58.7343 68.6416 58.1551 68.098 57.9777C67.564 57.7961 66.5153 57.4246 65.7708 57.1508C65.0359 56.8729 64.3216 56.6432 64.195 56.6404C64.078 56.6336 63.9583 56.5937 63.9376 56.5455C63.8468 56.3336 63.2468 56.8759 63.0748 57.3259C63.0019 57.5282 62.6029 58.1668 62.5354 58.1957C62.5066 58.2081 62.4075 58.376 62.3263 58.5591C62.2451 58.7421 62.0938 59.0009 61.9823 59.1399C61.8764 59.2651 61.7787 59.4096 61.7622 59.4509C61.7085 59.645 60.8637 61.0791 60.7866 61.1121C60.7385 61.1327 60.671 61.2415 60.6408 61.3571C60.5968 61.4672 60.3546 61.9131 60.0753 62.3521C59.8056 62.787 59.5951 63.1738 59.6157 63.2219C59.6983 63.4146 60.158 63.2632 63.1111 62.0655C66.1029 60.8514 66.9162 60.594 67.2217 60.748C67.2671 60.7742 67.4928 60.7687 67.7295 60.7356C68.3736 60.642 69.1456 60.6075 69.297 60.668C69.3658 60.6955 69.5075 60.6804 69.6231 60.6308C69.7387 60.5812 69.941 60.5743 70.08 60.606C70.2094 60.6417 70.3924 60.6431 70.4695 60.6101C70.5466 60.577 70.8246 60.5605 71.0819 60.5756C71.3393 60.5907 71.5938 60.5728 71.6558 60.5576C71.7232 60.5287 71.9255 60.5218 72.103 60.5369C72.2902 60.5479 72.5118 60.5328 72.5888 60.4997C72.67 60.4763 72.8682 60.4598 73.0361 60.479C73.204 60.4983 73.4889 60.4446 73.676 60.3757C74.0035 60.2353 73.9719 60.2147 71.5442 59.2599ZM106.915 42.4429C107.058 42.0851 107.23 41.5552 107.289 41.2676C107.344 40.9703 107.424 40.651 107.458 40.5451C107.492 40.4391 107.536 40.0097 107.542 39.5968C107.557 39.1799 107.573 38.7395 107.58 38.6225C107.591 38.5152 107.418 37.8711 107.189 37.2051C106.975 36.5445 106.809 35.9197 106.834 35.8179C106.921 35.5413 106.398 34.3743 106.091 34.1638C105.946 34.0661 105.759 33.8955 105.663 33.7771C105.518 33.5996 104.603 33.1937 103.85 32.9805C103.476 32.8787 101.702 32.6243 101.606 32.6656C101.557 32.6863 101.427 32.6739 101.33 32.6354C100.898 32.4785 99.522 32.7264 98.2972 33.1944C97.1303 33.6377 97.0862 33.668 97.2376 33.8084C97.3175 33.8882 97.528 34.14 97.6877 34.3794C97.8529 34.6051 98.0263 34.7702 98.0648 34.7537C98.1034 34.7372 98.1708 34.7881 98.2038 34.8652C98.2988 35.0867 99.2375 36.1325 99.3366 36.1243C99.3834 36.127 99.455 36.1875 99.4921 36.2742C99.5582 36.4284 100.592 37.6159 100.816 37.7934C100.902 37.8595 101.056 38.0328 101.173 38.1994C101.286 38.3562 101.48 38.5695 101.619 38.681C101.758 38.7924 101.894 38.9507 101.931 39.0374C101.964 39.1144 102.048 39.2039 102.121 39.241C102.19 39.2685 102.53 39.6359 102.877 40.046C103.237 40.4616 103.585 40.8483 103.657 40.9088C103.949 41.1372 104.579 41.7564 104.616 41.8431C104.633 41.8817 104.936 42.1624 105.28 42.4596C105.624 42.7568 105.922 43.0279 105.935 43.0568C105.947 43.0857 106.074 43.1682 106.202 43.2274C106.494 43.376 106.554 43.3044 106.915 42.4429ZM58.1403 61.8019C58.1485 61.7413 58.326 61.4372 58.5324 61.1206C58.7388 60.8041 58.9466 60.4641 58.9851 60.3678C59.0236 60.2714 59.3002 59.7994 59.6057 59.3149C59.8974 58.825 60.1794 58.3391 60.2097 58.2235C60.2441 58.1175 60.3308 58.0006 60.3982 57.9717C60.4753 57.9386 60.5165 57.8753 60.5 57.8368C60.4794 57.7886 60.6431 57.4789 60.8605 57.1349C61.0724 56.8046 61.3118 56.4054 61.3682 56.2444C61.503 55.9471 61.5291 55.1833 61.4217 54.9329C61.3557 54.7788 61.3721 53.7796 61.4409 53.6475C61.467 53.6021 61.5138 53.2856 61.5523 52.9498C61.5866 52.6044 61.6416 52.3071 61.6898 52.2864C61.7283 52.2699 61.7324 52.1997 61.7035 52.1323C61.6375 51.9782 62.1202 49.2739 62.4242 48.0945C62.6567 47.1738 62.6925 47.0444 62.9456 46.1719C63.0446 45.8443 63.1753 45.3778 63.2455 45.1424C63.3156 44.9071 63.4436 44.4873 63.5344 44.2203C63.7063 43.6905 63.6554 43.279 63.4669 43.6905C63.4118 43.8281 63.3252 43.9451 63.2866 43.9616C63.2288 43.9864 62.8559 44.5796 62.5395 45.1714C62.5078 45.2306 62.3923 45.4398 62.2822 45.6352C61.5007 47.0308 60.5101 49.508 60.0933 51.0893C59.9475 51.6536 59.8195 52.0733 59.7232 52.3541C59.6682 52.4917 59.6407 52.6403 59.6613 52.6885C59.682 52.7367 59.6283 52.9307 59.5375 53.1179C59.4329 53.2996 59.3545 53.5955 59.3628 53.7744C59.3573 53.9478 59.3106 54.1047 59.2528 54.1294C59.2046 54.1501 59.1771 54.2189 59.1977 54.2671C59.239 54.3634 59.1166 55.0887 59.0368 55.2483C59.0203 55.2896 58.9089 55.7479 58.7989 56.2626C58.6888 56.7773 58.532 57.4489 58.4536 57.7448C58.3656 58.0448 58.316 58.3283 58.3367 58.3765C58.3615 58.4343 58.3574 58.5045 58.3271 58.5403C58.217 58.6559 57.924 59.8078 57.9694 59.9137C57.9983 59.9812 57.9598 60.0775 57.8951 60.1394C57.8346 60.211 57.7919 60.2977 57.8126 60.3459C57.8332 60.394 57.8512 60.6486 57.8443 60.9253C57.843 61.9863 57.8403 62.0331 57.9944 61.967C58.0619 61.9381 58.132 61.8624 58.1403 61.8019ZM48.5786 62.9589C48.4052 62.7938 48.2208 62.6562 48.1795 62.6397C48.1382 62.6232 47.9937 62.5255 47.8547 62.4141C47.7198 62.3122 47.1128 61.854 46.5045 61.4192C45.8824 60.9789 45.3745 60.5923 45.3663 60.573C45.3291 60.4863 44.5419 59.8203 44.4496 59.7914C44.4084 59.7749 44.2391 59.6194 44.0904 59.4323C43.9321 59.2492 43.716 59.0112 43.6004 58.9011C43.16 58.4855 43.0678 58.3768 42.787 58.0411C42.3755 57.5333 41.697 57.254 41.035 57.3325C40.2878 57.4248 38.5745 58.0567 37.863 58.4985C37.0346 59.0133 36.3658 59.5281 36.3989 59.6052C36.4154 59.6437 36.2998 59.7731 36.1526 59.8818C35.9916 59.985 35.7425 60.2286 35.6008 60.4034C35.4632 60.5879 35.2939 60.7517 35.2265 60.7806C35.1591 60.8095 35.1219 60.8824 35.1426 60.9306C35.1673 60.9884 35.1453 61.0434 35.0972 61.0641C35.0105 61.1012 34.4023 61.7839 32.7221 63.6901C32.4703 63.9805 32.2061 64.242 32.1483 64.2668C32.0809 64.2957 32.0534 64.3645 32.074 64.4127C32.0988 64.4705 32.0575 64.5338 31.9997 64.5586C31.9323 64.5875 31.7121 64.8187 31.4961 65.0596C31.2938 65.3059 31.0695 65.5275 31.0021 65.5564C30.9443 65.5812 30.8934 65.6487 30.8906 65.6955C30.8934 65.8083 29.1885 67.8164 29.0344 67.8824C28.967 67.9113 28.9298 67.9843 28.9505 68.0325C28.9753 68.0903 28.9243 68.1577 28.8473 68.1907C28.7702 68.2238 28.7193 68.2912 28.7441 68.349C28.7647 68.3972 28.6877 68.51 28.5693 68.6064L28.3437 68.7715L28.6616 68.7949C28.8391 68.81 29.2065 68.7893 29.4721 68.7439C29.7377 68.6984 30.0212 68.6681 30.0859 68.686C30.1602 68.6998 30.4878 68.6392 30.8125 68.5456C31.1469 68.4478 31.4937 68.379 31.5969 68.3803C31.7745 68.3954 33.2635 68.065 34.1855 67.7952C34.4236 67.7387 34.6273 67.7084 34.6438 67.7469C34.6603 67.7855 35.2121 67.6629 35.8672 67.4619C36.5126 67.2651 37.1085 67.1122 37.1732 67.1301C37.2516 67.1535 37.681 67.0379 38.1502 66.8823C38.6195 66.7267 39.0626 66.6166 39.1273 66.6345C39.2016 66.6482 40.0961 66.3674 41.1365 66.0012C42.1631 65.6295 43.3699 65.2261 43.8241 65.0885C44.2686 64.9549 45.0365 64.6713 45.5277 64.4607C46.0479 64.2377 46.4305 64.1193 46.4553 64.1771C46.48 64.2349 46.9589 64.0752 47.7007 63.7572L48.9048 63.241L48.5786 62.9589ZM50.0728 59.8211C49.0638 57.2546 48.3313 54.6949 48.3188 53.6284C48.3216 53.5018 48.2775 53.2128 48.2155 52.9884C48.1136 52.5646 48.02 51.7609 48.0296 51.3577C48.0378 51.1375 47.8643 50.254 47.549 48.8269C47.4705 48.4842 47.4278 48.1718 47.4539 48.1264C47.4801 48.081 47.2639 47.364 46.9845 46.526C46.3829 44.7769 45.0628 42.0701 44.6279 41.7205C44.4889 41.6091 44.3567 41.4605 44.332 41.4027C44.2081 41.1137 44.0251 41.4316 43.9082 42.1431C43.8367 42.5615 43.7762 42.9523 43.772 43.0225C43.7679 43.0927 43.728 43.3721 43.684 43.6418C43.5699 44.3065 43.4559 46.0089 43.5137 46.1438C43.5426 46.2112 43.5247 46.2759 43.4669 46.3007C43.4187 46.3213 43.4036 46.419 43.4449 46.5154C43.4821 46.602 43.5069 46.8195 43.4876 46.9874C43.478 47.1511 43.5028 47.4484 43.5427 47.648C43.5923 47.8434 43.5992 48.3649 43.5731 48.8095C43.5512 49.2636 43.5499 49.6861 43.5788 49.7535C43.6077 49.821 43.5939 49.8953 43.5361 49.9201C43.488 49.9407 43.4687 50.0288 43.5017 50.1058C43.5348 50.1829 43.5251 50.2669 43.4866 50.2834C43.4384 50.304 43.4206 50.5283 43.4523 50.7884C43.4798 51.0389 43.4895 51.2742 43.4633 51.3197C43.4 51.438 43.385 52.1743 43.4332 52.872C43.4539 53.2394 43.4732 53.6303 43.4622 53.7376C43.4457 53.8587 43.5696 54.3872 43.7349 54.9321C43.9001 55.4771 44.0281 56.0152 44.0171 56.1225C43.9965 56.3936 44.2443 56.9716 44.5209 57.2977C44.6489 57.4367 44.9008 57.7849 45.0908 58.0683C45.2766 58.3422 45.4803 58.5513 45.5284 58.5307C45.5766 58.51 45.6358 58.5417 45.6606 58.5995C45.706 58.7054 46.5194 59.2462 46.8222 59.3673C46.9281 59.4017 47.1428 59.5833 47.3011 59.7663C47.4594 59.9493 47.6659 60.1117 47.7498 60.1213C47.8434 60.1268 48.0429 60.2465 48.204 60.3828C48.365 60.519 48.537 60.6277 48.5783 60.6442C48.7077 60.68 49.3546 61.0982 49.3835 61.1657C49.3959 61.1946 49.6133 61.3294 49.8542 61.4656C50.1046 61.5977 50.3166 61.7463 50.3372 61.7945C50.3951 61.9293 50.6992 62.027 50.7983 61.9389C50.8478 61.8949 50.5753 61.0995 50.0728 59.8211ZM64.3803 52.5242C64.3596 52.476 64.5771 52.2916 64.8605 52.1017C65.4523 51.6997 66.0715 51.229 66.2917 50.9978C66.377 50.9042 66.9219 50.4995 67.4957 50.0825C68.0696 49.6654 68.5952 49.269 68.6613 49.1837C68.7273 49.0984 68.9778 48.9112 69.2255 48.7708C69.469 48.6207 69.7002 48.4418 69.7319 48.3826C69.769 48.3097 70.0043 48.1404 70.2479 47.9904C70.5011 47.8362 70.7323 47.6573 70.7639 47.5981C70.8011 47.5251 71.0267 47.36 71.2703 47.2099C71.5139 47.0599 71.8001 46.8232 71.9061 46.6979C72.0079 46.563 72.1469 46.435 72.2143 46.4061C72.5611 46.2575 73.0644 43.5215 72.8414 43.0014C72.8084 42.9243 72.8277 42.8362 72.8758 42.8156C72.9336 42.7908 72.9515 42.7261 72.9267 42.6683C72.9061 42.6201 72.906 42.0614 72.928 41.4476C72.9499 40.8338 72.987 39.8829 73.0048 39.3393C73.0226 38.7957 73.0514 37.9851 73.0734 37.5309C73.0995 37.0864 73.0871 36.6584 73.0623 36.6006C73.0334 36.5332 73.0513 36.4685 73.0994 36.4479C73.1476 36.4272 73.1613 36.2731 73.1297 36.0928C73.1021 35.9222 73.1117 35.7584 73.1599 35.7377C73.2081 35.7171 73.2177 35.6331 73.1847 35.5561C73.1062 35.3731 73.1295 34.3368 73.2189 34.2528C73.2492 34.217 73.2588 34.1331 73.234 34.0753C73.2051 34.0079 73.2243 33.2812 73.2545 32.4472C73.3959 29.5586 73.4123 28.8788 73.3573 28.8567C73.316 28.8402 73.1812 28.9779 73.0491 29.1485C72.9073 29.3233 72.661 29.6 72.4876 29.7541C72.3005 29.9028 72.0707 30.1381 71.9689 30.273C71.8574 30.412 71.7088 30.5441 71.651 30.5689C71.5836 30.5978 71.5464 30.6708 71.5671 30.7189C71.5919 30.7767 71.5506 30.84 71.4928 30.8648C71.3387 30.9309 69.6585 32.9169 69.5554 33.155C69.5127 33.2417 69.4411 33.3408 69.393 33.3615C69.3448 33.3821 68.8976 33.9616 68.4023 34.6415C67.911 35.331 67.4473 35.9517 67.3634 36.0219C67.0345 36.3453 66.7401 37.1216 66.9328 37.1986C67.153 37.2866 67.3953 37.9582 67.3582 38.4302C67.3348 38.6683 67.0624 39.5491 66.7363 40.3845C66.131 41.9782 65.9068 42.6787 65.7417 43.5705C65.6826 43.8582 65.5973 44.1114 65.5587 44.1279C65.5106 44.1486 65.4886 44.2036 65.5133 44.2614C65.534 44.3096 65.4157 44.8848 65.2506 45.5372C65.0856 46.1895 64.8944 46.9671 64.8297 47.2685C64.7609 47.5602 64.6756 47.8135 64.6275 47.8341C64.5889 47.8506 64.5752 47.9249 64.6082 48.002C64.6413 48.0791 64.5863 48.3763 64.4899 48.6571C64.3936 48.9378 64.3221 49.1966 64.3386 49.2351C64.3552 49.2736 64.3345 49.3851 64.296 49.4815C64.2575 49.5778 64.1543 49.9755 64.0759 50.3512C63.9975 50.7269 63.904 51.1205 63.8613 51.2073C63.8228 51.3036 63.8187 51.5334 63.8641 51.7192C63.8999 51.9091 63.9027 52.1018 63.8766 52.1472C63.8504 52.1926 63.8504 52.3522 63.878 52.5229C63.9193 52.7789 63.9509 52.7995 64.1725 52.7045C64.3074 52.6467 64.3968 52.5627 64.3803 52.5242ZM25.8856 67.5332C25.8691 67.4947 26.0329 67.3447 26.2613 67.2125C26.476 67.0749 26.7264 66.8877 26.7925 66.8024C26.9149 66.6358 27.2149 66.3248 27.9538 65.5747C28.1286 65.3971 28.3666 65.181 28.485 65.0847C28.6033 64.9883 28.7038 64.8769 28.7203 64.8356C28.7327 64.7847 29.0065 64.519 29.3147 64.2272C29.6367 63.9409 29.9711 63.6037 30.0771 63.4785C30.183 63.3532 30.3413 63.217 30.428 63.1798C30.5147 63.1426 30.5945 63.0628 30.6124 62.9981C30.6206 62.9376 30.7623 62.7628 30.9261 62.6128C31.094 62.4724 31.2646 62.2852 31.2921 62.2164C31.4146 61.97 32.7699 60.2372 32.8759 60.1918C32.9337 60.167 32.9653 60.1079 32.9405 60.0501C32.9199 60.0019 32.9667 59.9248 33.0437 59.8918C33.1208 59.8587 33.1717 59.7913 33.1511 59.7431C33.1345 59.7046 33.2859 59.5257 33.4978 59.355C33.7097 59.1843 33.8694 59.0247 33.8528 58.9862C33.8405 58.9573 34.0524 58.7068 34.3358 58.437C34.6138 58.181 34.9578 57.8397 35.0982 57.6883C35.2385 57.5369 35.4353 57.3841 35.5412 57.3387C35.6376 57.2974 35.7091 57.1983 35.7036 57.1322C35.7009 57.0194 36.243 56.7413 37.9109 56.0035C39.1357 55.4556 40.1168 54.978 40.0962 54.9298C40.0549 54.8335 39.2718 54.3368 39.1231 54.3092C39.0626 54.301 38.8851 54.2061 38.7405 54.1084C37.1041 53.031 35.9756 52.5797 35.1981 52.7078C34.9421 52.7491 34.5719 52.7368 34.3833 52.6694C33.9595 52.5318 32.5034 52.3806 32.3066 52.4535C32.2296 52.4866 32.008 52.5017 31.8208 52.4907C31.6433 52.4756 31.3928 52.5032 31.2773 52.5527C31.1617 52.6023 30.9828 52.6106 30.8905 52.5817C30.6662 52.484 26.9768 54.0657 26.9466 54.2611C26.9328 54.3354 26.7594 54.4895 26.5599 54.6093C25.3076 55.3856 24.3251 56.0463 24.3251 56.1261C24.3224 56.1729 24.2233 56.261 24.0981 56.3147C23.9728 56.3684 23.7774 56.4978 23.6673 56.6134C23.4733 56.7992 22.7454 57.2823 21.2275 58.2637C20.9055 58.4702 20.6358 58.6656 20.6234 58.7165C20.6069 58.7578 20.1996 59.0579 19.707 59.3717C19.2102 59.6759 18.6185 60.0778 18.3735 60.2513C17.8685 60.616 16.2516 61.6855 15.3544 62.2526C14.4957 62.8032 14.4641 62.9422 15.0958 63.2985C15.1591 63.3398 15.6064 63.6384 16.0895 63.9672C16.5725 64.2961 17.1148 64.6566 17.2868 64.7653C18.0204 65.2262 18.3989 65.4973 18.4361 65.584C18.4608 65.6418 18.5255 65.6597 18.5737 65.639C18.6315 65.6143 18.7416 65.6583 18.8214 65.7381C18.9769 65.8881 20.4716 66.9008 20.601 66.9366C20.6423 66.9531 20.9643 67.1457 21.3029 67.3769C22.0984 67.9025 23.3109 68.3634 23.7099 68.2835C23.8806 68.256 24.0347 68.2697 24.0554 68.3179C24.076 68.366 24.5068 68.227 25.0077 68.0123C25.5086 67.7975 25.9063 67.5814 25.8856 67.5332ZM76.1952 42.9776C76.2228 42.9088 76.3411 42.8124 76.4567 42.7629C76.5819 42.7092 76.681 42.6211 76.6934 42.5702C76.7016 42.5096 77.0016 42.2784 77.358 42.0458C77.7144 41.8131 78.0818 41.553 78.1713 41.469C78.5359 41.0961 79.3024 40.5166 80.0276 40.0802C80.4515 39.8187 80.8189 39.5586 80.8464 39.4898C80.8877 39.4265 81.006 39.3301 81.1312 39.2764C81.2565 39.2227 81.3363 39.1429 81.3156 39.0947C81.295 39.0466 81.3913 38.9255 81.5289 38.8209C81.8716 38.5827 82.1577 37.8671 82.2829 36.9354C82.3406 36.5115 82.4231 36.1454 82.4534 36.1096C82.4837 36.0739 82.4974 35.9995 82.4768 35.9514C82.4561 35.9032 82.5098 35.4697 82.595 34.977C82.7999 33.8059 82.7903 33.81 82.9154 32.8783C82.9649 32.4351 83.0323 32.0071 83.0708 31.9108C83.0997 31.8186 83.141 31.5956 83.1602 31.4277C83.1795 31.2598 83.2579 30.7245 83.3335 30.2359C83.5219 29.0262 83.5948 28.5047 83.6072 28.2941C83.6126 28.2005 83.6346 28.0656 83.6484 27.9913C83.7419 27.6775 83.8478 26.9137 83.8148 26.8367C83.7983 26.7981 83.8024 26.728 83.8423 26.688C83.9276 26.5945 84.0706 25.8375 84.0211 25.7219C84.0004 25.6738 84.0087 25.6132 84.0569 25.5926C84.0954 25.5761 84.1628 25.3077 84.2151 24.9774C84.2618 24.6609 84.321 24.3732 84.3375 24.3319C84.4558 24.076 84.7514 22.0791 84.6785 22.0419C84.5037 21.98 78.9524 24.4055 78.8478 24.5872C78.7956 24.678 78.3593 24.9904 77.8777 25.2767C77.3906 25.5768 77.0039 25.8452 77.0245 25.8934C77.0411 25.9319 76.9901 25.9993 76.9131 26.0324C76.836 26.0654 76.6062 26.3008 76.4136 26.543C76.0847 26.9463 75.9458 27.3936 75.9486 27.9853C75.9555 28.1078 75.9046 28.3349 75.844 28.4863C75.7835 28.6377 75.6638 29.0767 75.5854 29.4524C75.4974 29.8322 75.408 30.2355 75.3736 30.3414C75.2319 30.7557 75.0118 31.9447 74.9596 32.5145C74.8634 33.6733 74.8593 33.8233 74.8511 34.4426C74.8594 34.7811 74.836 35.099 74.8016 35.1252C74.7617 35.1651 74.77 35.2642 74.803 35.3412C74.8402 35.4279 74.8513 35.8793 74.8334 36.3431C74.8156 36.8069 74.806 37.2101 74.8225 37.2486C74.8514 37.3161 74.8611 37.7908 74.8433 38.4941C74.8159 39.5207 74.8297 39.9253 74.8875 40.0602C74.9247 40.1469 74.9151 40.2308 74.8573 40.2556C74.8091 40.2763 74.7816 40.3451 74.8064 40.4029C74.8311 40.4607 74.8518 40.6685 74.845 40.8653C74.8519 41.0676 74.8574 41.5327 74.8685 41.9043C74.8891 42.2717 74.8837 42.6846 74.8617 42.8195C74.8397 42.9543 74.8617 43.2186 74.9017 43.4181L74.9746 43.7745L75.5526 43.4469C75.8732 43.2639 76.1581 43.0505 76.1952 42.9776ZM103.786 28.7088C103.693 28.6235 103.419 28.2506 103.182 27.8845C102.955 27.5144 102.72 27.2047 102.678 27.1882C102.627 27.1758 102.344 26.8869 102.049 26.5456C101.755 26.2044 101.405 25.8411 101.28 25.7351C101.155 25.6292 101.027 25.4902 101.002 25.4324C100.973 25.365 100.91 25.3237 100.852 25.3485C100.804 25.3691 100.731 25.332 100.706 25.2742C100.677 25.2067 100.432 24.9811 100.168 24.7637C99.9037 24.5462 99.4605 24.1775 99.1646 23.9394C98.6402 23.5142 98.5094 23.422 98.1626 23.2514C98.0663 23.2129 97.9713 23.151 97.9548 23.1125C97.8928 22.968 97.0877 22.5263 96.84 22.5071C96.401 22.4672 96.0198 22.9613 95.7021 23.9756C95.5576 24.4366 95.3774 25.027 95.2921 25.2803C95.2206 25.539 95.0844 25.9395 95.0142 26.1748C94.8354 26.7419 94.3567 28.8172 94.2893 29.325C94.2577 29.5439 94.2123 29.9168 94.1752 30.1494C94.0954 30.788 94.0157 31.7458 94.0488 31.8229C94.0653 31.8614 94.2923 31.8325 94.5648 31.7499C94.8318 31.681 95.1497 31.6246 95.2763 31.6273C95.4029 31.63 96.0428 31.4469 96.7034 31.2322C98.9066 30.4929 100.335 30.1542 100.846 30.2546C100.92 30.2684 101.194 30.2422 101.464 30.2064C101.733 30.1706 102.131 30.1939 102.329 30.2572C102.527 30.3205 102.746 30.3521 102.814 30.3232C102.91 30.2819 103.072 30.3149 103.7 30.502C103.792 30.5309 104.018 30.5254 104.212 30.4992L104.572 30.4358L104.271 29.6528C104.108 29.2207 103.88 28.7941 103.786 28.7088ZM86.7567 35.827C87.6609 35.3824 88.4521 34.9406 88.5182 34.8552C88.5787 34.7837 89.147 34.4602 89.7759 34.145C90.4048 33.8298 90.9057 33.5352 90.8851 33.487C90.8644 33.4389 90.9346 33.3632 91.0502 33.3136C91.2525 33.2269 91.6212 32.3846 91.7931 31.6153C91.8399 31.3786 91.9059 31.1336 91.9197 31.0593C92.1769 30.1166 92.2883 29.5785 92.2553 29.5014C92.2305 29.4436 92.2553 29.3418 92.3062 29.2743C92.3571 29.2069 92.5566 28.3688 92.7436 27.4219C93.0187 26.0154 93.6666 23.1377 93.9843 21.9638C94.0201 21.8344 94.0132 21.6321 93.9678 21.5262C93.8232 21.189 92.7387 20.5478 92.1524 20.4571C91.8497 20.4158 91.562 20.3567 91.5208 20.3402C91.4341 20.2975 90.4776 20.354 90.0744 20.4243C89.9271 20.4532 89.7771 20.4491 89.7276 20.4133C89.6822 20.3872 89.3643 20.4436 89.034 20.551L88.4175 20.7355L88.346 21.3135C88.2662 22.0319 88.0599 22.5081 87.8094 22.6154C87.7131 22.6567 87.647 22.7421 87.6677 22.7902C87.6925 22.848 87.6319 22.9196 87.5356 22.9609C87.4393 23.0022 87.3402 23.0903 87.2989 23.1536C87.2714 23.2224 87.0966 23.3999 86.9095 23.5486C86.3233 24.0166 85.9518 25.1451 85.6933 27.2287C85.659 27.4943 85.6067 27.7448 85.5902 27.7861C85.5737 27.8273 85.5503 27.9856 85.5407 28.1494C85.5242 28.5099 85.4637 28.9008 85.4156 29.0013C85.3894 29.0467 85.3523 29.3591 85.3179 29.7045C85.2836 30.0499 85.2272 30.5302 85.1983 30.7821C85.1557 31.0284 85.1296 31.3133 85.1241 31.4069C85.1282 31.4963 85.1076 31.6078 85.0911 31.6491C85.0484 31.7358 84.9934 32.1927 84.9701 32.6702C84.9536 32.8712 84.9192 33.1368 84.8821 33.2895C84.8408 33.4327 84.7845 34.0726 84.7419 34.7181C84.7048 35.3497 84.6484 35.9098 84.614 35.936C84.5741 35.9759 84.5782 36.0654 84.6072 36.1328C84.6361 36.2002 84.6306 36.2938 84.5907 36.3337C84.5604 36.3695 84.5288 36.5085 84.5535 36.6461C84.5783 36.9434 84.4972 36.9668 86.7567 35.827ZM41.4816 51.5648C41.5888 49.6602 41.6258 48.3899 41.5721 48.2647C41.5473 48.2069 41.5748 48.1381 41.623 48.1175C41.6808 48.0927 41.6987 48.028 41.6739 47.9702C41.6367 47.8835 41.6284 47.6248 41.6435 46.5692C41.6462 46.4426 41.631 46.2211 41.6021 46.0738C41.5333 45.5674 41.573 44.1705 41.6707 43.6269C41.7119 43.404 41.749 42.9319 41.76 42.5851C41.771 42.2383 41.7943 41.9204 41.8108 41.8791C41.8783 41.7704 41.607 40.6323 41.3923 40.1314C41.2932 39.9002 41.1982 39.519 41.1775 39.3112C41.1458 38.8915 41.3769 38.2336 41.6384 38.0189C41.7223 37.9487 41.7636 37.8056 41.7457 37.7106C41.7099 37.5207 41.3603 37.0776 41.1552 36.9717C41.096 36.94 40.8731 36.819 40.668 36.713C40.4588 36.5974 40.2826 36.4791 40.2703 36.4502C40.2537 36.4117 40.09 36.3222 39.8973 36.2452C39.7046 36.1681 39.5367 36.0691 39.5202 36.0306C39.4995 35.9824 39.2587 35.8462 38.9889 35.7223C38.7151 35.5889 38.4783 35.4623 38.4618 35.4238C38.4453 35.3852 38.0049 35.1293 37.4998 34.8555C36.9851 34.5858 36.4222 34.257 36.246 34.1387C36.0753 34.0066 35.9116 33.9171 35.8827 33.9295C35.8441 33.946 35.7051 33.9144 35.5579 33.8635C35.2496 33.7562 34.7968 33.7906 34.8546 33.9255C34.8794 33.9833 34.8836 34.2324 34.8781 34.4856C34.8589 34.7333 34.9057 35.1352 34.9621 35.3732C35.0186 35.6113 35.0585 35.8907 35.0475 35.998C35.042 36.0916 35.1164 36.5045 35.2252 36.8912C35.4661 37.8256 35.6369 38.7559 35.5942 38.8426C35.5681 38.888 35.6383 39.2912 35.7526 39.744C35.8668 40.1967 35.9495 40.6288 35.9316 40.6935C35.9178 40.7678 35.9619 41.0568 36.0349 41.3334C36.112 41.6197 36.1657 41.9045 36.1574 41.9651C36.1437 42.0394 36.2235 42.4385 36.3254 42.8624C36.7371 44.4876 36.8569 45.0862 36.8101 45.1633C36.7936 45.2046 36.8501 45.5225 36.9561 45.8762C37.0579 46.2202 37.1158 46.5147 37.0772 46.5312C37.0387 46.5477 37.1296 46.9991 37.2673 47.5331C37.4187 48.0725 37.5082 48.5473 37.4821 48.5927C37.4463 48.6423 37.4697 48.8033 37.5317 48.9478C37.5936 49.0923 37.679 49.4776 37.7162 49.8037C37.7534 50.1299 37.8869 50.6542 38.0273 50.9817C38.2407 51.506 38.3246 51.5955 38.7926 51.8624C39.0789 52.0248 39.4188 52.2325 39.5454 52.3151C40.4331 52.8696 41.1791 53.1998 41.2933 53.0938C41.3483 53.036 41.4308 52.3507 41.4816 51.5648ZM15.5825 59.3268C15.921 59.079 16.4536 58.7253 16.7756 58.5188C17.1017 58.322 17.4347 58.088 17.52 57.9944C17.6095 57.9104 18.0017 57.6283 18.4007 57.3888C19.4727 56.7239 20.352 56.1417 20.4869 56.0041C20.5516 55.9421 20.8983 55.7136 21.2396 55.4989C23.0602 54.3991 23.8748 53.8788 23.9822 53.7302C24.0578 53.6407 24.2244 53.5237 24.3496 53.4701C24.4844 53.4122 24.8312 53.1838 25.1395 52.9718C25.4436 52.7502 26.0188 52.3896 26.4261 52.1693C26.8334 51.9491 27.1802 51.7206 27.1843 51.6504C27.2229 51.4742 29.3476 50.552 29.6889 50.5767C29.843 50.5904 30.3618 50.4706 30.8311 50.3151C31.6637 50.0494 31.6926 50.037 31.5618 49.865C31.4875 49.7714 31.2274 49.5636 30.9838 49.3944C30.7305 49.2293 30.5144 49.071 30.4979 49.0325C30.436 48.888 29.1506 48.4698 28.6414 48.4258C28.3469 48.4038 28.0303 48.3571 27.934 48.3185C27.8514 48.2855 27.6601 48.2649 27.528 48.2759C27.4 48.2966 27.2363 48.287 27.1578 48.2636C26.5165 48.071 26.3775 48.0394 26.2812 48.0807C26.2234 48.1054 26.0142 48.0697 25.8119 47.9968C25.6095 47.9238 25.4293 47.8757 25.41 47.884C25.3907 47.8922 24.8733 47.829 24.2677 47.7465C23.6622 47.664 23.1158 47.6131 23.0677 47.6338C23.0195 47.6544 22.9493 47.6503 22.9135 47.62C22.8833 47.576 22.3878 47.5375 21.8071 47.5128C21.2359 47.484 20.6786 47.4606 20.5616 47.4538C20.4543 47.4428 20.1364 47.4992 19.8501 47.5763C19.5639 47.6534 19.3175 47.6906 19.2969 47.6424C19.2763 47.5943 18.0075 48.0926 16.4662 48.7533C14.9346 49.41 13.6892 49.9895 13.7098 50.0376C13.7263 50.0762 13.3314 50.3253 12.8374 50.5827C12.3433 50.8401 11.9002 51.1099 11.8686 51.1691C11.8314 51.242 11.5714 51.4334 11.2948 51.5861C11.0223 51.7486 10.7237 51.9564 10.6384 52.05C10.5531 52.1436 10.1471 52.5001 9.72742 52.851C8.95132 53.5145 8.88114 53.5902 8.69541 54.1145C8.56059 54.4916 8.60741 54.8136 8.90613 55.5636C9.03415 55.8622 9.09336 56.1333 9.03556 56.1581C8.91997 56.2077 9.83401 58.393 9.99227 58.4164C10.0432 58.4287 10.2552 58.737 10.4589 59.1058C11.2972 60.6622 12.2275 60.8905 14.344 60.0288C14.6908 59.8801 15.2536 59.5704 15.5825 59.3268ZM35.5059 48.6645C35.3365 48.0301 35.1011 47.1617 34.9896 46.742C34.8781 46.3223 34.7872 45.8709 34.7803 45.7484C34.783 45.6218 34.7128 45.2186 34.6219 44.847C34.2598 43.3374 34.1717 42.919 34.1703 42.703C34.173 42.5763 34.1317 42.2406 34.0642 41.9502C33.7833 40.5768 33.6442 39.8268 33.647 39.6203C33.6387 39.2818 33.3109 37.5065 33.2077 37.2657C33.1581 37.1501 33.1554 37.0373 33.1939 37.0208C33.2421 37.0001 33.1925 36.6451 33.0892 36.2446C32.5178 33.901 32.3196 33.4386 31.7732 33.1483C31.4594 32.9749 30.4727 32.8278 30.2511 32.9228C30.1741 32.9558 30.0998 32.9421 30.075 32.8843C30.0543 32.8361 29.9855 32.8086 29.9181 32.8375C29.8603 32.8623 29.5919 32.8747 29.3387 32.8692C29.0759 32.8679 28.6589 32.8528 28.4098 32.8569C28.1566 32.8514 27.6405 32.8446 27.2565 32.8268C25.9395 32.787 25.1578 32.8256 25.0381 32.9454C24.9239 33.0514 25.0037 33.2908 25.5117 34.4757C25.8421 35.2463 26.2068 35.9908 26.3348 36.1298C26.6253 36.4614 27.8889 39.01 29.6275 42.7461C30.3859 44.3823 31.1031 45.8424 31.2256 45.9952C31.3577 46.1438 31.6647 46.5937 31.9221 47.008C32.1753 47.4125 32.4148 47.7318 32.463 47.7111C32.5015 47.6946 32.569 47.7455 32.6061 47.8322C32.7011 48.0538 33.5324 48.7693 34.0375 49.0431C34.6871 49.4146 35.6794 49.8673 35.7468 49.8384C35.7854 49.8218 35.6711 49.2893 35.5059 48.6645ZM27.9004 43.0532C26.7702 40.55 24.7578 36.6006 24.6064 36.6199C24.5403 36.6254 24.4688 36.5648 24.4357 36.4878C24.3779 36.3529 23.7806 35.7309 23.3388 35.3388C22.8612 34.9163 22.5597 33.814 22.7578 33.1589C22.8114 32.9649 22.7605 32.9525 22.3256 33.0819C22.0628 33.1604 21.1078 33.5128 20.205 33.8542L18.5619 34.4902L18.7353 34.8948C18.8262 35.1067 19.0767 35.5581 19.2777 35.8938C19.4883 36.2255 20.116 37.4502 20.6858 38.6199C21.9412 41.2291 21.8545 41.0268 22.0197 41.6515C22.1794 42.2103 22.4382 42.4414 23.2502 42.7661C23.4428 42.8432 23.7759 43.0083 23.9989 43.1294C24.2122 43.2546 24.5769 43.4403 24.8012 43.538C25.0159 43.6398 25.4591 43.8489 25.7784 44.0085C26.0977 44.1681 26.545 44.3869 26.7597 44.4887C26.9881 44.596 27.3115 44.7653 27.4891 44.8602C27.6666 44.9552 28.0272 45.1313 28.2791 45.24C28.5254 45.3624 28.7566 45.5028 28.791 45.5564C28.82 45.6239 28.8433 45.5454 28.8337 45.3899C28.8295 45.2206 28.4482 44.278 27.9004 43.0532ZM24.156 45.4111C24.1436 45.3822 24.0528 45.3299 23.9564 45.2914C23.8601 45.2528 23.4734 45.0423 23.0825 44.8222C22.4687 44.481 20.608 43.705 19.8235 43.4711C19.6666 43.4243 19.4175 43.3487 19.2744 43.3074C19.1175 43.2606 18.6771 43.1644 18.2959 43.0997C17.9009 43.0296 17.5114 42.9457 17.4192 42.9168C17.3229 42.8783 16.972 42.8577 16.6197 42.8605C16.2811 42.8687 15.9825 42.8371 15.9618 42.789C15.9453 42.7504 15.8421 42.7491 15.7458 42.7904C15.6398 42.8358 15.5173 42.8427 15.4678 42.8069C15.4182 42.7711 15.2448 42.7657 15.0838 42.7891C14.9269 42.8221 14.5884 42.8304 14.3255 42.8291C14.0723 42.8236 13.5452 42.8443 13.153 42.887C12.7567 42.9201 12.3328 42.9421 12.2103 42.949C11.342 42.945 11.1397 42.9519 10.8163 43.0221C10.6208 43.0717 10.347 43.0979 10.2107 43.0993C9.89283 43.0759 9.65754 43.4048 9.20489 44.4769C9.02879 44.9173 8.70959 45.6358 8.51009 46.0748C8.21428 46.7148 8.13038 47.1042 8.08093 47.9465C8.05623 48.5272 8.05631 49.3254 8.08939 49.7218C8.12246 50.1181 8.12525 50.4704 8.09911 50.5158C8.07297 50.5612 8.08538 50.7498 8.13494 50.9452C8.1969 51.2493 8.21893 51.2741 8.34827 51.1502C8.64688 50.8626 9.44225 50.2707 9.90875 50.0023C10.1757 49.8536 10.3973 49.6788 10.4096 49.6279C10.4179 49.5674 10.6326 49.4297 10.883 49.3223C11.1335 49.215 11.3688 49.0457 11.4018 48.9631C11.4568 48.8255 12.3981 48.3877 15.4614 47.0745C18.5246 45.7613 19.4907 45.3813 19.6187 45.4405C19.7109 45.4694 19.9187 45.4487 20.0632 45.3868C20.2077 45.3248 20.3494 45.3097 20.3701 45.3578C20.3907 45.406 20.5985 45.3853 20.8462 45.3247C21.2797 45.2187 23.1981 45.2515 23.322 45.3809C23.3578 45.4112 23.4321 45.4249 23.4899 45.4001C23.5381 45.3795 23.673 45.4015 23.7831 45.4455C23.9757 45.5226 24.1932 45.4978 24.156 45.4111ZM19.6884 41.1344C19.6071 40.5192 18.8307 38.788 18.327 38.0917C17.7241 37.2441 16.9575 36.307 16.6946 36.0662C16.3285 35.7442 15.5702 35.9438 14.5533 36.6306C14.1033 36.9376 13.6767 37.2459 13.6203 37.3271C13.5598 37.3987 13.3382 37.6533 13.1222 37.8942C12.9158 38.1309 12.6984 38.3951 12.6598 38.4915C12.6268 38.5741 12.5099 38.7268 12.4012 38.819C12.3021 38.9071 12.2113 39.0145 12.1948 39.0558C12.1824 39.1067 12.0475 39.3241 11.8893 39.5402C11.7311 39.7563 11.5962 39.9738 11.5797 40.015C11.5673 40.066 11.4944 40.1885 11.4132 40.2917C11.2811 40.4623 11.2852 40.472 11.6582 40.5173C11.8633 40.5435 12.0532 40.5875 12.0738 40.6357C12.0903 40.6742 12.1509 40.6824 12.2087 40.6577C12.2665 40.6329 12.5321 40.6673 12.7867 40.7292C13.0454 40.8007 13.4225 40.8557 13.629 40.8584C13.8258 40.8653 14.0074 40.89 14.0239 40.9286C14.0446 40.9767 14.1437 40.9685 14.24 40.9272C14.346 40.8817 14.4684 40.8748 14.5276 40.9065C14.5772 40.9423 14.8015 40.9601 15.0286 40.9312C15.4345 40.894 16.1901 40.9008 16.3139 40.9503C16.3552 40.9668 16.6167 40.9916 16.9112 41.0136C17.2016 41.0259 17.7342 41.1511 18.0975 41.2804C18.6769 41.4882 19.4765 41.6243 19.6774 41.561C19.716 41.5445 19.7228 41.3477 19.6884 41.1344Z" fill="#980B49"/>
<path d="M77.7949 108.819C76.6981 109.107 75.6756 109.009 74.9558 108.553C74.598 108.331 74.5113 108.208 74.2525 107.578C74.0969 107.188 73.9964 106.821 74.0281 106.762C74.0735 106.708 74.0831 106.544 74.0542 106.397C73.9853 105.97 74.4366 104.762 74.8287 104.32C75.3667 103.713 76.5888 103.212 77.4599 103.249C77.8108 103.27 78.2485 103.253 78.4191 103.226C79.1168 103.098 80.2756 103.433 80.4325 103.799C80.4697 103.886 80.5633 103.972 80.6239 103.98C80.7725 104.007 81.0588 104.649 80.9432 104.698C80.895 104.719 80.8868 104.859 80.924 105.026C80.9749 105.277 80.8951 105.597 80.6736 106.011C80.5938 106.171 80.1659 106.662 79.5811 107.266C79.4104 107.453 79.1958 107.671 79.1105 107.764C79.0251 107.858 78.7898 108.107 78.5848 108.321C78.3839 108.543 78.1761 108.724 78.1376 108.74C78.0949 108.747 77.9422 108.79 77.7949 108.819Z" fill="#980B49"/>
</svg>
