<svg width="942" height="398" viewBox="0 0 942 398" fill="none" xmlns="http://www.w3.org/2000/svg">
<path d="M440.1 265.02C437.483 268.04 436.879 270.456 438.288 272.268C439.899 274.08 441.61 274.986 443.422 274.986C445.435 274.986 447.449 274.684 449.462 274.08C458.119 271.463 466.475 266.329 474.528 258.678C482.783 250.826 486.91 242.873 486.91 234.82C486.91 230.391 481.977 225.559 472.112 220.324C467.481 217.908 464.864 216.499 464.26 216.096C458.824 212.472 455.401 208.848 453.992 205.224C451.173 210.056 446.643 217.002 440.402 226.062C438.993 227.673 437.684 228.075 436.476 227.27C435.268 226.263 435.167 224.955 436.174 223.344C444.429 212.069 449.865 202.607 452.482 194.956C453.891 183.883 461.945 173.917 476.642 165.058C491.339 156.199 504.728 151.77 516.808 151.77C524.459 151.77 529.794 153.179 532.814 155.998C536.035 158.615 537.646 161.233 537.646 163.85C537.646 166.467 536.841 169.487 535.23 172.91C533.821 176.333 530.801 179.554 526.17 182.574C524.962 183.379 523.955 183.178 523.15 181.97C522.747 180.762 523.553 179.151 525.566 177.138C527.781 174.923 529.19 172.004 529.794 168.38C530.398 164.756 528.787 162.541 524.962 161.736C524.358 161.736 523.754 161.736 523.15 161.736C515.298 161.736 505.433 164.655 493.554 170.494C481.877 176.333 472.716 183.883 466.072 193.144C463.455 196.567 462.146 200.09 462.146 203.714C462.146 207.137 464.562 210.257 469.394 213.076C471.407 214.284 474.83 216.197 479.662 218.814C484.494 221.431 487.917 223.344 489.93 224.552C491.943 225.76 494.359 227.673 497.178 230.29C499.997 232.907 501.507 235.323 501.708 237.538C502.715 243.578 499.896 250.222 493.252 257.47C483.789 267.939 469.696 275.288 450.972 279.516C446.744 280.523 442.415 281.026 437.986 281.026C433.758 281.026 430.839 279.415 429.228 276.194C428.624 275.389 428.322 274.08 428.322 272.268C428.322 270.657 429.933 267.939 433.154 264.114C436.174 261.094 441.006 258.175 447.65 255.356C448.254 255.155 448.757 255.255 449.16 255.658C449.563 256.061 449.663 256.564 449.462 257.168C449.261 257.772 448.153 258.477 446.14 259.282C444.328 260.087 442.315 262 440.1 265.02ZM540.333 264.416C533.085 268.04 528.455 269.852 526.441 269.852C524.428 269.852 523.421 269.55 523.421 268.946C523.421 268.342 523.522 267.637 523.723 266.832C524.126 266.228 525.535 262.503 527.951 255.658C530.569 248.813 533.79 240.155 537.615 229.686C541.441 219.217 544.763 210.459 547.581 203.412C542.951 208.445 537.515 215.391 531.273 224.25C530.267 225.659 528.857 226.062 527.045 225.458C525.435 224.854 526.039 222.74 528.857 219.116C535.501 211.063 543.857 199.486 553.923 184.386C550.903 182.775 549.393 181.265 549.393 179.856C549.393 178.245 549.595 177.037 549.997 176.232C551.004 173.816 552.816 173.313 555.433 174.722C556.641 175.125 557.447 175.326 557.849 175.326C566.708 151.971 577.781 131.133 591.069 112.812C598.317 102.544 605.867 95.0947 613.719 90.464C621.571 85.632 628.92 83.216 635.765 83.216C640.597 83.216 645.228 84.424 649.657 86.84C654.087 89.0547 656.301 92.7793 656.301 98.014C656.301 108.081 647.644 122.677 630.329 141.804C621.068 151.669 610.699 160.729 599.223 168.984C587.747 177.239 577.58 183.279 568.721 187.104C560.869 204.419 553.923 222.539 547.883 241.464L567.513 215.794C567.312 213.982 567.211 212.069 567.211 210.056C567.211 204.016 568.52 200.291 571.137 198.882C572.547 198.278 573.453 199.486 573.855 202.506L575.063 206.734C590.566 188.614 601.74 177.943 608.585 174.722C611.807 173.111 614.726 172.306 617.343 172.306C619.961 172.306 622.276 173.011 624.289 174.42C626.303 175.829 627.309 177.339 627.309 178.95C627.309 181.769 624.994 184.285 620.363 186.5C598.217 197.171 583.62 206.231 576.573 213.68C581.405 230.592 586.137 243.88 590.767 253.544C595.398 263.208 602.646 274.08 612.511 286.16C622.578 298.24 631.739 304.28 639.993 304.28C646.839 304.28 649.657 301.26 648.449 295.22C647.644 289.784 645.933 285.053 643.315 281.026C640.899 277.201 640.698 275.288 642.711 275.288C644.523 275.489 646.436 276.395 648.449 278.006C649.657 279.415 651.067 281.831 652.677 285.254C654.288 288.878 655.093 291.898 655.093 294.314C654.892 299.951 652.174 304.381 646.939 307.602C641.705 310.823 636.671 312.434 631.839 312.434C622.377 312.434 613.115 307.703 604.055 298.24C594.995 288.979 587.445 277.704 581.405 264.416C575.365 251.128 571.137 237.538 568.721 223.646C565.097 228.679 561.071 234.719 556.641 241.766C547.581 255.658 542.145 263.208 540.333 264.416ZM639.087 115.228C644.523 106.168 647.241 99.826 647.241 96.202C647.241 92.578 645.731 90.766 642.711 90.766C639.691 90.766 635.866 92.578 631.235 96.202C618.35 106.067 607.478 117.342 598.619 130.026C589.761 142.509 581.003 158.112 572.345 176.836C591.069 168.179 608.082 155.092 623.383 137.576C628.417 131.737 633.651 124.288 639.087 115.228ZM659.246 178.346C664.279 178.346 667.299 179.957 668.306 183.178C668.708 184.99 668.406 186.802 667.4 188.614C666.594 190.225 665.99 191.533 665.588 192.54C665.185 193.547 664.883 194.352 664.682 194.956C663.675 196.969 662.668 198.882 661.662 200.694C650.186 223.646 644.146 238.243 643.542 244.484C643.34 246.296 643.24 248.611 643.24 251.43C643.24 254.249 644.045 256.564 645.656 258.376C648.474 261.597 652.501 261.799 657.736 258.98C662.97 256.161 670.218 250.524 679.48 242.068C688.942 233.612 696.593 225.357 702.432 217.304C703.237 216.297 704.143 216.096 705.15 216.7C706.156 217.103 706.66 217.606 706.66 218.21C706.66 218.613 706.458 219.116 706.056 219.72C703.036 225.156 697.6 232.102 689.748 240.558C676.862 254.45 666.091 263.007 657.434 266.228C652.4 268.04 648.172 268.946 644.75 268.946C636.696 268.946 631.361 265.121 628.744 257.47C628.341 256.061 628.14 254.349 628.14 252.336C628.14 245.289 631.361 234.619 637.804 220.324C636.797 222.539 632.871 227.572 626.026 235.424C624.214 237.437 622.804 237.437 621.798 235.424C621.596 235.021 621.496 234.518 621.496 233.914C621.496 233.109 621.898 232.203 622.704 231.196C632.569 218.915 640.32 208.546 645.958 200.09C645.555 199.083 645.756 197.775 646.562 196.164C650.588 184.889 654.112 178.95 657.132 178.346C657.736 178.346 658.44 178.346 659.246 178.346ZM683.104 138.18L680.688 147.844C680.688 149.656 679.379 152.575 676.762 156.602C674.144 160.629 672.131 162.642 670.722 162.642C662.064 162.642 657.736 160.528 657.736 156.3C657.736 155.495 662.064 151.77 670.722 145.126L675.856 141.2C679.077 138.381 681.09 136.972 681.896 136.972C682.701 136.972 683.104 137.375 683.104 138.18ZM803.175 107.98C805.591 103.551 806.799 100.128 806.799 97.712C806.799 93.484 805.087 91.37 801.665 91.37C798.846 91.37 795.323 92.9807 791.095 96.202C774.988 108.685 759.385 128.415 744.285 155.394C732.205 177.138 723.346 195.761 717.709 211.264C731.601 201.801 747.103 186.399 764.217 165.058C781.531 143.717 794.517 124.691 803.175 107.98ZM713.179 223.344C710.763 230.189 709.454 234.82 709.253 237.236C709.051 239.451 708.951 242.571 708.951 246.598C708.951 250.423 709.957 253.947 711.971 257.168C715.393 262.604 721.131 263.007 729.185 258.376C735.225 255.155 742.875 249.316 752.137 240.86C761.398 232.203 768.545 224.351 773.579 217.304C773.981 216.7 774.585 216.398 775.391 216.398C777.203 216.398 777.706 217.707 776.901 220.324C773.881 225.76 768.243 232.706 759.989 241.162C751.935 249.618 744.587 256.363 737.943 261.396C731.299 266.228 724.655 268.644 718.011 268.644C702.709 268.644 695.059 261.195 695.059 246.296C695.059 245.692 695.059 245.088 695.059 244.484C695.864 230.391 703.011 209.15 716.501 180.762C729.99 152.173 742.171 130.63 753.043 116.134L762.405 104.356C764.619 101.739 767.841 98.5173 772.069 94.692C780.122 87.0413 788.377 83.216 796.833 83.216C805.49 83.216 811.329 85.8333 814.349 91.068C815.355 92.88 815.859 95.4973 815.859 98.92C815.859 102.343 814.349 107.175 811.329 113.416C790.591 149.455 757.875 186.097 713.179 223.344ZM874.251 107.98C876.667 103.551 877.875 100.128 877.875 97.712C877.875 93.484 876.164 91.37 872.741 91.37C869.922 91.37 866.399 92.9807 862.171 96.202C846.064 108.685 830.461 128.415 815.361 155.394C803.281 177.138 794.422 195.761 788.785 211.264C802.677 201.801 818.18 186.399 835.293 165.058C852.608 143.717 865.594 124.691 874.251 107.98ZM784.255 223.344C781.839 230.189 780.53 234.82 780.329 237.236C780.128 239.451 780.027 242.571 780.027 246.598C780.027 250.423 781.034 253.947 783.047 257.168C786.47 262.604 792.208 263.007 800.261 258.376C806.301 255.155 813.952 249.316 823.213 240.86C832.474 232.203 839.622 224.351 844.655 217.304C845.058 216.7 845.662 216.398 846.467 216.398C848.279 216.398 848.782 217.707 847.977 220.324C844.957 225.76 839.32 232.706 831.065 241.162C823.012 249.618 815.663 256.363 809.019 261.396C802.375 266.228 795.731 268.644 789.087 268.644C773.786 268.644 766.135 261.195 766.135 246.296C766.135 245.692 766.135 245.088 766.135 244.484C766.94 230.391 774.088 209.15 787.577 180.762C801.066 152.173 813.247 130.63 824.119 116.134L833.481 104.356C835.696 101.739 838.917 98.5173 843.145 94.692C851.198 87.0413 859.453 83.216 867.909 83.216C876.566 83.216 882.405 85.8333 885.425 91.068C886.432 92.88 886.935 95.4973 886.935 98.92C886.935 102.343 885.425 107.175 882.405 113.416C861.668 149.455 828.951 186.097 784.255 223.344ZM843.553 265.02C840.936 268.04 840.332 270.456 841.741 272.268C843.352 274.08 845.063 274.986 846.875 274.986C848.888 274.986 850.902 274.684 852.915 274.08C861.572 271.463 869.928 266.329 877.981 258.678C886.236 250.826 890.363 242.873 890.363 234.82C890.363 230.391 885.43 225.559 875.565 220.324C870.934 217.908 868.317 216.499 867.713 216.096C862.277 212.472 858.854 208.848 857.445 205.224C854.626 210.056 850.096 217.002 843.855 226.062C842.446 227.673 841.137 228.075 839.929 227.27C838.721 226.263 838.62 224.955 839.627 223.344C847.882 212.069 853.318 202.607 855.935 194.956C857.344 183.883 865.398 173.917 880.095 165.058C894.792 156.199 908.181 151.77 920.261 151.77C927.912 151.77 933.247 153.179 936.267 155.998C939.488 158.615 941.099 161.233 941.099 163.85C941.099 166.467 940.294 169.487 938.683 172.91C937.274 176.333 934.254 179.554 929.623 182.574C928.415 183.379 927.408 183.178 926.603 181.97C926.2 180.762 927.006 179.151 929.019 177.138C931.234 174.923 932.643 172.004 933.247 168.38C933.851 164.756 932.24 162.541 928.415 161.736C927.811 161.736 927.207 161.736 926.603 161.736C918.751 161.736 908.886 164.655 897.007 170.494C885.33 176.333 876.169 183.883 869.525 193.144C866.908 196.567 865.599 200.09 865.599 203.714C865.599 207.137 868.015 210.257 872.847 213.076C874.86 214.284 878.283 216.197 883.115 218.814C887.947 221.431 891.37 223.344 893.383 224.552C895.396 225.76 897.812 227.673 900.631 230.29C903.45 232.907 904.96 235.323 905.161 237.538C906.168 243.578 903.349 250.222 896.705 257.47C887.242 267.939 873.149 275.288 854.425 279.516C850.197 280.523 845.868 281.026 841.439 281.026C837.211 281.026 834.292 279.415 832.681 276.194C832.077 275.389 831.775 274.08 831.775 272.268C831.775 270.657 833.386 267.939 836.607 264.114C839.627 261.094 844.459 258.175 851.103 255.356C851.707 255.155 852.21 255.255 852.613 255.658C853.016 256.061 853.116 256.564 852.915 257.168C852.714 257.772 851.606 258.477 849.593 259.282C847.781 260.087 845.768 262 843.553 265.02Z" fill="black"/>
<path d="M103.75 211.969C103.75 203.812 103.328 196.172 102.484 189.047C101.641 181.828 100.281 175.547 98.4062 170.203C96.5312 164.766 94.1406 160.5 91.2344 157.406C88.3281 154.219 84.8125 152.625 80.6875 152.625C77.5 152.625 74.7812 153.422 72.5312 155.016C70.375 156.516 68.5938 158.25 67.1875 160.219C65.7812 162.188 64.75 164.156 64.0938 166.125C63.4375 168 63.1094 169.266 63.1094 169.922V211.969C63.1094 232.406 64.7969 247.266 68.1719 256.547C71.6406 265.828 76.7031 270.469 83.3594 270.469C90.3906 270.469 95.5469 265.734 98.8281 256.266C102.109 246.797 103.75 232.031 103.75 211.969ZM19.9375 87.9375C19.9375 85.2188 19.2812 82.875 17.9688 80.9062C16.75 78.8437 14.6406 77.8125 11.6406 77.8125C10.0469 77.8125 8.64062 78.0938 7.42188 78.6562C6.29688 79.125 5.07812 79.875 3.76562 80.9062L0.953125 77.5312C3.10938 75.75 5.5 74.0156 8.125 72.3281C10.8438 70.5469 13.75 69 16.8438 67.6875C19.9375 66.375 23.2656 65.2969 26.8281 64.4531C30.3906 63.6094 34.1406 63.1875 38.0781 63.1875C43.5156 63.1875 47.875 64.0312 51.1562 65.7188C54.5312 67.3125 57.0625 69.3281 58.75 71.7656C60.5312 74.1094 61.7031 76.6875 62.2656 79.5C62.8281 82.2187 63.1094 84.75 63.1094 87.0938V149.812C64.2344 148.781 65.6875 147.516 67.4688 146.016C69.25 144.422 71.5 142.875 74.2188 141.375C76.9375 139.875 80.1719 138.609 83.9219 137.578C87.7656 136.547 92.2656 136.031 97.4219 136.031C103.422 136.031 109.422 137.438 115.422 140.25C121.422 142.969 126.812 147.281 131.594 153.188C136.375 159.094 140.266 166.688 143.266 175.969C146.266 185.25 147.766 196.406 147.766 209.438C147.766 219.656 146.359 229.312 143.547 238.406C140.828 247.5 136.75 255.469 131.312 262.312C125.875 269.062 119.078 274.406 110.922 278.344C102.766 282.281 93.2969 284.25 82.5156 284.25C70.7969 284.25 60.9062 282.375 52.8438 278.625C44.875 274.781 38.4531 269.672 33.5781 263.297C28.7031 256.828 25.1875 249.328 23.0312 240.797C20.9688 232.266 19.9375 223.266 19.9375 213.797V87.9375ZM219.906 269.344C219.906 270.562 219.672 272.062 219.203 273.844C218.828 275.531 217.844 277.172 216.25 278.766C214.75 280.266 212.547 281.531 209.641 282.562C206.734 283.688 202.797 284.25 197.828 284.25C192.859 284.25 188.969 283.641 186.156 282.422C183.344 281.297 181.234 279.938 179.828 278.344C178.422 276.75 177.531 275.109 177.156 273.422C176.875 271.734 176.734 270.375 176.734 269.344V160.781C176.734 158.062 176.078 155.719 174.766 153.75C173.547 151.688 171.438 150.656 168.438 150.656C166.844 150.656 165.484 150.938 164.359 151.5C163.234 152.062 162.016 152.859 160.703 153.891L157.75 150.375C159.906 148.594 162.297 146.859 164.922 145.172C167.641 143.391 170.547 141.844 173.641 140.531C176.734 139.219 180.062 138.141 183.625 137.297C187.188 136.453 190.938 136.031 194.875 136.031C200.969 136.031 205.703 136.875 209.078 138.562C212.453 140.156 214.938 142.172 216.531 144.609C218.125 146.953 219.062 149.484 219.344 152.203C219.719 154.922 219.906 157.312 219.906 159.375V269.344ZM172.375 103.969C172.375 101.344 172.938 98.8594 174.062 96.5156C175.281 94.0781 176.922 91.9688 178.984 90.1875C181.141 88.4062 183.578 87 186.297 85.9688C189.109 84.9375 192.156 84.4219 195.438 84.4219C198.625 84.4219 201.578 84.9375 204.297 85.9688C207.109 87 209.547 88.4062 211.609 90.1875C213.672 91.9688 215.266 94.0781 216.391 96.5156C217.609 98.8594 218.219 101.344 218.219 103.969C218.219 106.687 217.609 109.219 216.391 111.562C215.266 113.906 213.672 115.969 211.609 117.75C209.547 119.438 207.109 120.797 204.297 121.828C201.578 122.859 198.625 123.375 195.438 123.375C192.156 123.375 189.109 122.859 186.297 121.828C183.578 120.797 181.141 119.438 178.984 117.75C176.922 115.969 175.281 113.906 174.062 111.562C172.938 109.219 172.375 106.687 172.375 103.969ZM259.562 260.625C259.562 257.344 260.172 254.25 261.391 251.344C262.609 248.438 264.25 245.906 266.312 243.75C268.469 241.594 270.953 239.906 273.766 238.688C276.672 237.375 279.812 236.719 283.188 236.719C286.469 236.719 289.562 237.375 292.469 238.688C295.375 239.906 297.906 241.594 300.062 243.75C302.219 245.906 303.906 248.438 305.125 251.344C306.438 254.25 307.094 257.344 307.094 260.625C307.094 264 306.438 267.141 305.125 270.047C303.906 272.859 302.219 275.344 300.062 277.5C297.906 279.562 295.375 281.203 292.469 282.422C289.562 283.641 286.469 284.25 283.188 284.25C279.812 284.25 276.672 283.641 273.766 282.422C270.953 281.203 268.469 279.562 266.312 277.5C264.25 275.344 262.609 272.859 261.391 270.047C260.172 267.141 259.562 264 259.562 260.625ZM259.562 165.703C259.562 162.328 260.172 159.188 261.391 156.281C262.609 153.375 264.25 150.844 266.312 148.688C268.469 146.531 270.953 144.844 273.766 143.625C276.672 142.406 279.812 141.797 283.188 141.797C286.469 141.797 289.562 142.406 292.469 143.625C295.375 144.844 297.906 146.531 300.062 148.688C302.219 150.844 303.906 153.375 305.125 156.281C306.438 159.188 307.094 162.328 307.094 165.703C307.094 168.984 306.438 172.078 305.125 174.984C303.906 177.891 302.219 180.422 300.062 182.578C297.906 184.641 295.375 186.281 292.469 187.5C289.562 188.719 286.469 189.328 283.188 189.328C279.812 189.328 276.672 188.719 273.766 187.5C270.953 186.281 268.469 184.641 266.312 182.578C264.25 180.422 262.609 177.891 261.391 174.984C260.172 172.078 259.562 168.984 259.562 165.703ZM391.891 148.125V252.047C391.891 257.016 392.828 260.484 394.703 262.453C396.578 264.328 399.156 265.266 402.438 265.266C404.969 265.266 407.219 264.562 409.188 263.156C411.156 261.75 412.844 260.156 414.25 258.375C415.938 256.406 417.391 254.109 418.609 251.484L422.969 253.453C421.562 256.453 419.875 259.734 417.906 263.297C416.031 266.859 413.5 270.188 410.312 273.281C407.125 276.281 403.094 278.812 398.219 280.875C393.438 282.938 387.391 283.969 380.078 283.969C375.953 283.969 371.969 283.359 368.125 282.141C364.375 280.922 361 279 358 276.375C355.094 273.75 352.75 270.469 350.969 266.531C349.188 262.594 348.297 257.859 348.297 252.328V148.125H332.547V138C335.172 138 338.828 137.344 343.516 136.031C348.203 134.625 352.984 132.328 357.859 129.141C362.828 125.953 367.422 121.688 371.641 116.344C375.859 111 378.859 104.391 380.641 96.5156H391.891V138H414.812C422.312 138 426.062 136.734 426.062 134.203C426.062 133.266 425.594 132.656 424.656 132.375C423.719 132 422.641 131.578 421.422 131.109C420.297 130.547 419.266 129.797 418.328 128.859C417.391 127.922 416.922 126.375 416.922 124.219C416.922 121.594 417.719 119.531 419.312 118.031C421 116.531 423.156 115.781 425.781 115.781C427.469 115.781 428.922 116.156 430.141 116.906C431.453 117.563 432.531 118.5 433.375 119.719C434.219 120.844 434.828 122.156 435.203 123.656C435.672 125.156 435.906 126.656 435.906 128.156C435.906 134.25 434.125 139.125 430.562 142.781C427.094 146.344 421.469 148.125 413.688 148.125H391.891Z" fill="black"/>
<path d="M289.301 284.502C289.204 284.486 289 284.517 288.856 284.579C288.701 284.645 288.569 284.656 288.549 284.608C288.532 284.569 288.33 284.576 288.096 284.642C287.647 284.766 286.154 284.927 286.036 284.864C285.994 284.847 285.825 284.851 285.655 284.879C285.474 284.911 284.953 284.918 284.489 284.9C284.025 284.882 283.597 284.894 283.549 284.915C283.491 284.94 283.436 284.918 283.415 284.87C283.395 284.821 283.26 284.799 283.113 284.828C282.961 284.848 282.826 284.826 282.806 284.777C282.781 284.72 282.716 284.702 282.659 284.727C282.398 284.838 280.601 284.343 279.234 283.788C278.409 283.458 277.232 283.028 276.614 282.836C276 282.655 275.47 282.483 275.429 282.466C275.388 282.45 274.996 282.333 274.551 282.227C273.644 282 272.693 281.723 272.178 281.534C271.99 281.466 271.763 281.415 271.664 281.424C271.565 281.432 271.046 281.153 270.494 280.796C269.946 280.449 269.389 280.107 269.243 280.033C269.091 279.972 268.961 279.88 268.944 279.841C268.928 279.803 268.846 279.746 268.769 279.7C268.198 279.431 265.817 277.601 265.714 277.36C265.677 277.274 265.206 276.814 264.91 276.576C264.821 276.5 264.569 276.152 264.346 275.792C264.123 275.431 263.872 275.06 263.779 274.974C263.517 274.71 262.555 273.184 261.894 271.962C261.056 270.406 259.21 266.1 258.962 265.123C258.768 264.351 258.611 263.266 258.658 263.029C258.676 262.965 258.643 262.648 258.604 262.345C258.552 262.037 258.539 261.769 258.588 261.748C258.626 261.732 258.636 261.648 258.603 261.571C258.57 261.494 258.546 261.333 258.553 261.216C258.564 261.108 258.597 260.387 258.623 259.623C258.659 258.855 258.707 258.196 258.723 258.155C258.74 258.114 258.774 257.928 258.781 257.731C258.792 257.544 258.822 257.348 258.839 257.307C258.855 257.266 258.915 256.898 258.977 256.484C259.034 256.06 259.111 255.708 259.159 255.687C259.208 255.667 259.232 255.565 259.225 255.442C259.213 255.334 259.241 255.105 259.293 254.935C259.345 254.764 259.399 254.57 259.413 254.496C259.52 254.107 260.063 252.449 260.278 251.912C261.212 249.516 262.865 246.721 264.411 244.929C264.663 244.639 264.88 244.374 264.897 244.333C264.913 244.292 265.046 244.121 265.191 243.956C266.267 242.742 266.556 242.459 266.983 242.15C267.247 241.968 267.451 241.779 267.434 241.74C267.418 241.701 267.527 241.609 267.681 241.543C267.844 241.473 267.972 241.373 267.981 241.312C267.993 241.261 268.166 241.107 268.362 240.978C268.766 240.724 269.157 239.907 269.025 239.598C268.984 239.502 268.977 239.38 269.003 239.334C269.039 239.285 268.96 238.862 268.834 238.381C268.661 237.713 268.525 237.395 268.253 236.999C267.851 236.407 267.2 235.74 266.901 235.628C266.791 235.584 266.596 235.474 266.455 235.386C266.324 235.294 266.173 235.234 266.125 235.254C266.086 235.271 265.788 235.239 265.477 235.179C265.054 235.097 264.724 235.125 264.171 235.271C263.765 235.388 263.289 235.501 263.1 235.513C262.916 235.535 261.637 236.038 260.25 236.632C258.863 237.227 257.71 237.676 257.693 237.637C257.672 237.589 257.114 237.749 256.452 237.987C255.78 238.229 255.048 238.463 254.82 238.516C254.169 238.646 253.336 238.753 253.254 238.72C253.181 238.682 252.056 238.799 251.619 238.896C251.471 238.925 251.254 238.95 251.127 238.947C251.005 238.954 250.216 239.189 249.369 239.473C248.525 239.766 247.756 239.993 247.653 239.992C247.545 239.981 247.17 240.062 246.81 240.182C246.457 240.288 246.1 240.361 246.03 240.357C245.965 240.339 245.643 240.386 245.326 240.442C244.456 240.621 243.817 240.701 243.418 240.701C243.221 240.694 243.004 240.719 242.927 240.752C242.859 240.781 242.661 240.797 242.484 240.782C242.306 240.767 242.028 240.784 241.848 240.815C241.668 240.847 241.504 240.837 241.483 240.789C241.463 240.741 241.379 240.731 241.302 240.765C241.138 240.835 240.179 240.778 240.095 240.689C240.059 240.659 239.975 240.649 239.908 240.678C239.802 240.723 239.064 240.572 238.293 240.344C237.55 240.126 236.06 239.443 235.216 238.938C234.2 238.324 233.87 238.112 233.303 237.694C233.015 237.475 232.73 237.289 232.689 237.273C232.638 237.26 232.385 237.095 232.119 236.901C231.844 236.711 231.505 236.48 231.357 236.373C231.203 236.279 231.018 236.142 230.947 236.081C230.865 236.025 230.455 235.733 230.026 235.45C229.596 235.166 228.914 234.718 228.522 234.441C226.914 233.351 226.558 233.105 226.402 233.035C226.311 232.982 225.935 232.665 225.567 232.31C225.198 231.955 224.825 231.59 224.731 231.505C224.647 231.415 224.306 230.991 223.989 230.545C223.52 229.903 223.271 229.428 222.672 228.031C222.267 227.087 221.882 226.055 221.806 225.746C221.427 224.118 221.173 222.699 221.221 222.518C221.239 222.454 221.207 222.114 221.142 221.777C221.078 221.439 221.049 221.133 221.084 221.083C221.111 221.038 221.104 220.915 221.058 220.809C221.017 220.713 221.018 220.61 221.057 220.593C221.105 220.572 221.093 220.304 221.044 220.005C221.002 219.693 220.973 219.386 220.977 219.316C220.995 219.251 221.011 218.731 221.007 218.163C221.011 216.736 221.144 215.823 221.442 215.08C221.739 214.337 222.01 213.799 222.116 213.753C222.154 213.737 222.268 213.551 222.365 213.35C222.972 212.132 223.155 211.734 223.281 211.418C223.653 210.529 224.868 208.468 225.07 208.382C225.108 208.365 225.195 208.248 225.258 208.13C225.432 207.816 226.433 206.509 226.743 206.193C226.883 206.042 226.981 205.897 226.96 205.849C226.94 205.801 226.971 205.742 227.039 205.713C227.097 205.688 227.193 205.567 227.241 205.467C227.311 205.311 227.72 205.067 228.701 204.59C229.455 204.221 230.11 203.86 230.153 203.774C230.274 203.551 236.734 200.77 236.892 200.873C236.951 200.905 237.324 200.87 237.705 200.775C238.1 200.686 238.508 200.625 238.611 200.627C238.962 200.647 239.37 200.643 239.65 200.603C239.896 200.566 240.437 200.551 241.314 200.574C241.51 200.581 241.709 200.564 241.766 200.54C241.815 200.519 242.091 200.526 242.386 200.548C242.671 200.574 243.027 200.581 243.178 200.561C243.67 200.51 247.209 200.761 247.396 200.851C247.438 200.868 247.661 200.909 247.885 200.927C248.888 201.033 251.474 201.772 252.249 202.169C252.509 202.297 252.925 202.495 253.181 202.614C253.446 202.728 253.77 202.897 253.896 202.98C254.023 203.062 254.345 203.255 254.604 203.406C255.216 203.771 256.271 204.528 256.324 204.653C256.349 204.711 256.403 204.756 256.459 204.755C256.699 204.755 258.463 206.53 258.826 207.138C258.989 207.41 259.171 207.675 259.23 207.706C259.303 207.743 259.462 207.983 259.593 208.235C260.606 210.092 261.577 211.797 261.82 212.126C262.261 212.701 263.537 215.518 263.775 216.42C263.877 216.844 264.093 217.64 264.244 218.18C264.521 219.224 264.707 220.137 264.713 220.522C264.719 220.645 264.781 221.029 264.86 221.371C264.938 221.714 265 222.098 264.998 222.224C264.996 222.567 265.12 223.335 265.298 224.069C265.39 224.417 265.419 224.724 265.38 224.74C265.342 224.757 265.441 225.147 265.597 225.617C265.752 226.086 265.854 226.51 265.818 226.559C265.732 226.676 267.012 229.663 267.177 229.729C267.25 229.766 267.696 230.646 268.179 231.694C269.105 233.748 268.98 233.562 270.472 235.101C270.56 235.2 270.6 235.16 270.662 234.905C270.71 234.725 270.721 234.458 270.684 234.292C270.661 234.131 270.679 233.986 270.727 233.966C270.775 233.945 270.793 233.88 270.768 233.822C270.702 233.668 270.867 231.18 270.986 230.581C271.046 230.294 271.084 230.038 271.068 229.999C271.026 229.903 271.515 227.424 271.659 227.043C271.704 226.91 271.732 226.761 271.715 226.722C271.695 226.674 271.718 226.516 271.765 226.359C271.806 226.216 271.872 225.971 271.9 225.822C271.997 225.279 272.289 224.23 272.354 224.168C272.384 224.132 272.389 224.039 272.36 223.971C272.327 223.894 272.344 223.773 272.395 223.706C272.436 223.642 272.524 223.342 272.583 223.055C272.638 222.758 272.724 222.504 272.762 222.488C272.81 222.467 272.824 222.393 272.799 222.335C272.77 222.268 272.817 222.031 272.891 221.805C273.054 221.359 273.3 220.364 273.407 219.737C273.449 219.514 273.512 219.316 273.56 219.295C273.608 219.274 273.63 219.219 273.605 219.161C273.539 219.007 273.831 217.799 274.096 217.115C274.234 216.771 274.611 216.028 274.926 215.459C275.717 214.06 276.32 212.832 276.976 211.33C277.383 210.392 278.058 208.985 278.128 208.91C278.168 208.87 278.272 208.688 278.359 208.491C278.446 208.294 278.86 207.558 279.277 206.855C279.694 206.152 280.069 205.512 280.101 205.452C280.163 205.357 281.126 203.907 281.491 203.374C281.568 203.261 281.698 203.114 281.782 203.044C281.852 202.968 281.905 202.877 281.888 202.839C281.872 202.8 281.949 202.687 282.062 202.605C282.184 202.518 282.311 202.361 282.349 202.265C282.388 202.169 282.9 201.527 283.484 200.843C284.065 200.149 284.551 199.554 284.544 199.511C284.543 199.454 284.588 199.401 284.646 199.376C284.694 199.355 284.909 199.138 285.12 198.887C285.323 198.641 285.557 198.415 285.624 198.386C285.692 198.357 285.756 198.296 285.759 198.249C285.758 198.113 286.929 196.801 287.112 196.722C287.16 196.702 287.295 196.564 287.416 196.421C287.531 196.292 287.846 196.042 288.109 195.884C288.376 195.736 288.578 195.569 288.562 195.53C288.545 195.492 288.665 195.372 288.822 195.259C289.721 194.669 290.802 193.92 290.903 193.809C290.967 193.747 291.281 193.521 291.603 193.314C291.925 193.108 292.423 192.78 292.716 192.586C293.479 192.077 297.438 190.38 298.881 189.943C299.546 189.738 300.965 189.244 302.045 188.838C303.112 188.426 304.031 188.123 304.09 188.155C304.144 188.2 304.375 188.181 304.603 188.129C304.97 188.052 305.598 188.056 305.805 188.138C305.846 188.155 306.028 188.18 306.205 188.195C306.664 188.226 312.426 190.523 312.762 190.8C312.909 190.931 313.113 191.061 313.209 191.099C313.31 191.147 313.517 191.286 313.674 191.413C313.835 191.549 313.998 191.662 314.039 191.678C314.131 191.707 314.522 192.007 315.091 192.482C315.309 192.673 315.525 192.831 315.567 192.848C315.608 192.864 315.9 193.093 316.203 193.374C316.515 193.65 316.788 193.887 316.829 193.903C316.949 193.943 317.781 194.795 317.839 194.93C317.864 194.988 317.927 195.029 317.975 195.008C318.024 194.988 318.161 195.123 318.286 195.308C318.408 195.484 318.556 195.672 318.625 195.699C318.688 195.74 318.895 195.983 319.076 196.247C319.268 196.507 319.495 196.797 319.579 196.887C320.293 197.595 320.688 198.304 321.806 200.778C323.089 203.638 323.878 205.957 323.925 206.997C323.932 207.12 324.042 207.642 324.157 208.152C324.497 209.557 324.595 210.131 324.502 210.205C324.452 210.249 324.438 210.323 324.463 210.381C324.484 210.429 324.469 210.607 324.436 210.769C324.389 210.926 324.331 211.19 324.304 211.339C324.276 211.488 324.205 211.746 324.148 211.907C324.092 212.068 323.991 212.419 323.918 212.701C323.851 212.97 323.7 213.388 323.602 213.612C323.499 213.851 323.429 214.086 323.449 214.134C323.486 214.221 323.277 215.223 323.096 215.836C322.867 216.607 322.42 217.586 321.779 218.75C321.617 219.036 321.421 219.405 321.332 219.569C320.769 220.597 320.105 221.68 319.754 222.138C319.41 222.56 319.24 222.803 319.217 222.882C319.201 222.923 319.042 223.139 318.859 223.377C318.672 223.606 318.497 223.863 318.46 223.936C318.427 224.018 318.233 224.284 318.027 224.521C317.825 224.767 317.651 225.001 317.635 225.042C317.571 225.241 316.516 226.423 316.333 226.501C316.275 226.526 316.244 226.585 316.264 226.634C316.31 226.739 315.198 227.444 314.523 227.733C314.234 227.857 313.985 228.021 313.977 228.082C313.973 228.152 313.729 228.302 313.44 228.426C313.151 228.55 312.918 228.695 312.909 228.756C312.897 228.807 312.428 229.122 311.859 229.446C311.291 229.769 310.787 230.11 310.735 230.201C310.608 230.438 306.857 232.035 306.473 232.017C306.323 232.013 305.835 232.097 305.392 232.207C304.953 232.327 304.555 232.383 304.509 232.357C304.46 232.321 304.318 232.336 304.193 232.39C304.068 232.444 303.926 232.459 303.876 232.423C303.817 232.392 303.448 232.436 303.053 232.525C302.649 232.619 302.313 232.66 302.292 232.612C302.276 232.573 302.153 232.58 302.028 232.634C301.73 232.762 300.218 232.908 299.497 232.875C298.35 232.831 297.857 232.826 297.741 232.875C297.684 232.9 297.623 232.892 297.606 232.853C297.586 232.805 297.268 232.782 296.892 232.783C296.516 232.785 296.199 232.761 296.182 232.723C296.161 232.675 296.091 232.67 296.033 232.695C295.966 232.724 295.548 232.732 295.093 232.71C293.918 232.656 293.219 232.647 293.103 232.697C293.046 232.722 292.981 232.704 292.956 232.646C292.936 232.598 292.857 232.574 292.799 232.599C292.728 232.618 292.464 232.641 292.206 232.625C291.949 232.61 291.704 232.624 291.661 232.631C291.613 232.652 291.242 232.663 290.825 232.648C290.421 232.638 289.966 232.639 289.819 232.668C289.681 232.693 289.546 232.671 289.525 232.623C289.505 232.575 289.411 232.569 289.315 232.611C289.218 232.652 289.04 232.66 288.905 232.638C288.766 232.607 288.559 232.604 288.441 232.62C288.323 232.637 288.124 232.653 288.002 232.66C287.823 232.669 287.845 232.693 288.108 232.775C288.288 232.823 288.493 232.849 288.561 232.82C288.696 232.762 289.146 232.774 290.322 232.886C290.752 232.93 291.331 232.978 291.625 233C291.92 233.022 292.19 233.066 292.22 233.11C292.256 233.14 292.336 233.14 292.403 233.111C292.47 233.082 292.662 233.103 292.832 233.155C293.003 233.207 293.175 233.236 293.233 233.212C293.281 233.191 293.565 233.24 293.856 233.309C294.143 233.392 294.462 233.472 294.564 233.496C295.267 233.674 297.743 234.768 297.821 234.951C297.834 234.979 297.993 235.059 298.182 235.127C298.37 235.194 298.538 235.293 298.559 235.341C298.58 235.389 298.873 235.595 299.205 235.783C299.536 235.972 299.838 236.196 299.867 236.263C299.895 236.331 299.959 236.372 300.007 236.351C300.161 236.285 302.934 238.631 303.066 238.94C303.1 239.017 303.179 239.096 303.248 239.124C303.431 239.205 303.993 240.036 304.208 240.537C304.311 240.778 304.442 240.95 304.49 240.929C304.548 240.905 304.706 241.167 304.867 241.543C305.024 241.909 305.493 242.871 305.914 243.694C306.728 245.272 308.318 249.38 308.217 249.651C308.19 249.72 308.25 249.968 308.348 250.222C308.652 250.959 309.3 253.692 309.184 253.741C309.145 253.758 309.161 253.979 309.235 254.233C309.296 254.48 309.323 254.731 309.287 254.78C309.261 254.826 309.276 255.047 309.329 255.276C309.381 255.504 309.398 255.702 309.349 255.723C309.311 255.739 309.309 255.923 309.359 256.118C309.399 256.317 309.398 256.501 309.349 256.521C309.292 256.546 309.286 256.64 309.323 256.726C309.394 256.89 309.377 257.889 309.308 258.021C309.282 258.067 309.27 258.277 309.29 258.485C309.302 258.697 309.291 259.044 309.251 259.243C309.225 259.448 309.192 259.77 309.181 259.958C309.174 260.154 309.116 260.498 309.06 260.739C309.003 260.98 308.97 261.222 308.987 261.261C309.024 261.348 308.978 261.561 308.575 263.307C308.177 264.984 307.359 267.307 306.704 268.545C306.541 268.855 306.316 269.316 306.213 269.554C306.106 269.783 305.982 270.052 305.935 270.129C305.883 270.22 305.71 270.534 305.556 270.84C305.397 271.135 305.217 271.407 305.15 271.435C305.092 271.46 305.064 271.529 305.085 271.577C305.11 271.635 305.035 271.781 304.92 271.91C304.79 272.034 304.635 272.283 304.55 272.457C304.469 272.64 304.365 272.798 304.308 272.823C304.25 272.848 304.071 273.095 303.904 273.372C303.724 273.643 303.215 274.317 302.771 274.85C302.316 275.387 301.937 275.858 301.92 275.899C301.832 276.119 300.218 277.86 299.891 278.08C299.724 278.197 299.575 278.329 299.563 278.38C299.533 278.496 298.786 279.147 298.404 279.402C298.234 279.509 298.022 279.68 297.937 279.773C297.626 280.112 295.329 281.564 294.601 281.888C294.379 281.982 294.188 282.122 294.18 282.182C294.176 282.252 293.932 282.402 293.643 282.526C293.354 282.65 293.115 282.81 293.106 282.87C293.083 283.029 289.548 284.544 289.301 284.502ZM295.511 277.654C295.554 277.568 295.849 277.35 296.169 277.167C296.48 276.988 296.725 276.815 296.709 276.776C296.692 276.738 296.963 276.519 297.3 276.294C297.647 276.066 297.904 275.841 297.884 275.793C297.863 275.745 297.904 275.682 297.981 275.649C298.059 275.616 298.217 275.48 298.338 275.336C299.707 273.769 299.952 273.436 300.234 272.79C300.645 271.861 300.808 269.819 300.536 269L300.36 268.483L300.044 268.755C299.856 268.904 299.706 269.059 299.69 269.101C299.656 269.207 298.413 270.218 298.22 270.301C298.134 270.338 298.054 270.338 298.033 270.29C298.017 270.251 297.887 270.216 297.751 270.217C297.611 270.209 297.45 270.152 297.378 270.092C297.306 270.031 297.159 269.901 297.052 269.81C296.931 269.713 296.817 269.58 296.783 269.503C296.75 269.426 296.625 269.32 296.492 269.274C296.24 269.166 296.046 269.272 295.151 270.032C294.776 270.352 294.459 270.545 294.221 270.601C293.855 270.678 293.186 270.475 292.395 270.039C291.7 269.641 291.438 269.856 290.839 271.276C290.545 271.949 290.288 272.333 290.067 272.428C289.951 272.478 289.885 272.563 289.906 272.611C289.93 272.669 289.754 272.79 289.513 272.893C289.273 272.996 289.063 273.041 289.039 272.983C289.018 272.935 288.93 272.915 288.853 272.948C288.776 272.981 288.507 272.994 288.26 272.975C288.002 272.959 287.733 272.995 287.662 273.071C287.478 273.253 287.488 273.807 287.679 274.626C287.774 275.007 287.824 275.362 287.788 275.412C287.752 275.461 287.755 275.574 287.796 275.671C287.891 275.892 287.803 276.831 287.663 277.142C287.6 277.26 287.388 277.511 287.184 277.701C286.857 278.001 286.77 278.038 286.265 278.083C285.968 278.108 285.582 278.114 285.418 278.104C285.255 278.094 285.076 278.103 285.018 278.127C284.816 278.214 284.792 278.772 284.966 279.176C285.114 279.523 285.249 279.625 286.116 280.051C286.65 280.313 287.22 280.525 287.403 280.526C287.577 280.531 287.729 280.569 287.75 280.617C287.767 280.655 287.95 280.657 288.149 280.617C288.345 280.567 288.528 280.568 288.548 280.617C288.627 280.8 295.359 277.936 295.511 277.654ZM309.677 228.557C309.737 228.485 310.268 228.155 310.846 227.827C311.428 227.509 311.979 227.171 312.064 227.077C312.149 226.984 312.452 226.785 312.725 226.623C313.414 226.236 313.521 226.008 313.265 225.57C313.035 225.167 312.23 224.087 311.995 223.857C311.901 223.772 311.545 223.366 311.204 222.942C310.857 222.532 310.526 222.16 310.463 222.119C310.404 222.087 310.13 221.794 309.844 221.472C309.562 221.16 309.222 220.792 309.084 220.657C308.95 220.532 308.61 220.165 308.334 219.839C308.071 219.518 307.771 219.191 307.676 219.129C307.586 219.053 307.486 218.925 307.453 218.848C307.42 218.771 307.352 218.72 307.314 218.737C307.266 218.757 307.055 218.505 306.825 218.182C306.601 217.845 306.361 217.526 306.29 217.465C306.035 217.243 305.624 216.736 305.187 216.09C304.232 214.687 304.015 214.392 303.927 214.373C303.885 214.356 303.68 214.091 303.474 213.769C302.269 211.891 300.71 210.221 299.826 209.836C299.506 209.7 299.374 209.711 298.921 209.905C298.632 210.029 298.379 210.183 298.351 210.252C298.314 210.325 298.072 210.531 297.808 210.713C296.815 211.378 296.271 211.782 296.203 211.891C296.167 211.941 295.932 212.11 295.679 212.264C295.435 212.414 295.204 212.593 295.163 212.656C295.131 212.716 294.744 212.984 294.311 213.25C293.868 213.519 293.533 213.777 293.55 213.815C293.567 213.854 293.443 213.964 293.291 214.063C292.39 214.621 291.489 215.338 291.37 215.594C291.253 215.826 291.266 215.935 291.434 216.194C291.551 216.36 291.695 216.538 291.754 216.569C291.827 216.607 292.028 216.862 292.214 217.136C292.547 217.621 293.655 218.662 293.78 218.609C293.809 218.596 294.031 218.741 294.258 218.951C294.481 219.152 294.731 219.364 294.803 219.425C294.875 219.485 295.099 219.743 295.286 219.993C295.479 220.23 295.665 220.424 295.713 220.403C295.751 220.387 295.823 220.447 295.864 220.543C295.901 220.63 296.378 221.076 296.918 221.54C297.455 221.994 297.931 222.44 297.973 222.536C298.014 222.632 298.076 222.697 298.124 222.676C298.211 222.639 298.815 223.224 299.074 223.615C299.183 223.762 299.302 223.882 299.35 223.861C299.399 223.84 299.458 223.872 299.487 223.939C299.557 224.103 300.485 224.857 300.571 224.82C300.61 224.804 300.665 224.826 300.685 224.874C300.71 224.932 301.328 225.362 302.074 225.852C302.816 226.332 303.512 226.786 303.625 226.863C303.734 226.931 303.938 227.06 304.084 227.134C304.224 227.222 304.355 227.315 304.371 227.353C304.384 227.382 304.655 227.562 304.986 227.751C305.308 227.944 305.702 228.197 305.855 228.314C306.2 228.587 306.511 228.808 306.608 228.846C306.649 228.863 306.88 229.003 307.116 229.153C307.355 229.313 307.672 229.439 307.812 229.447C308.083 229.468 309.474 228.803 309.677 228.557ZM304.344 230.216C304.278 230.062 301.467 227.788 300.816 227.361C300.573 227.191 300.353 227.023 300.332 226.975C300.315 226.937 300.252 226.895 300.196 226.897C300.05 226.902 298.204 225.47 298.13 225.297C298.093 225.21 298.009 225.12 297.926 225.087C297.857 225.06 297.64 224.765 297.466 224.441C297.279 224.11 297.085 223.817 297.022 223.776C296.963 223.744 296.781 223.56 296.623 223.377C296.474 223.19 296.141 222.865 295.9 222.649C295.659 222.433 295.438 222.209 295.409 222.141C295.359 222.026 294.733 221.416 294.423 221.172C294.338 221.106 294.167 220.895 294.042 220.709C293.805 220.343 293.336 219.94 293.22 219.989C293.182 220.006 293.077 219.948 293.003 219.854C292.929 219.761 292.78 219.653 292.697 219.62C292.463 219.527 290.936 218.198 290.504 217.721C290.314 217.518 290.003 217.298 289.824 217.226C289.497 217.104 289.488 217.108 289.053 217.477C288.811 217.683 288.442 217.967 288.223 218.095C288.018 218.228 287.831 218.377 287.832 218.433C287.82 218.484 287.618 218.651 287.384 218.797C287.146 218.933 286.934 219.104 286.893 219.167C286.861 219.226 286.536 219.479 286.189 219.708C285.833 219.94 285.556 220.173 285.573 220.212C285.589 220.25 285.481 220.342 285.327 220.408C285.163 220.479 285.035 220.579 285.022 220.63C285.014 220.69 284.714 220.922 284.362 221.164C284.006 221.397 283.667 221.644 283.601 221.73C283.49 221.869 283.037 222.222 282.321 222.734C282.105 222.895 281.823 223.142 281.683 223.293C281.552 223.441 281.403 223.573 281.346 223.597C281.297 223.618 281.153 223.76 281.042 223.899C280.92 224.042 280.747 224.196 280.66 224.233C280.564 224.275 280.508 224.356 280.528 224.404C280.553 224.462 280.473 224.542 280.358 224.591C280.184 224.665 280.38 224.776 281.376 225.158C282.598 225.615 284.705 226.354 285.241 226.512C285.702 226.656 287.271 227.204 288.933 227.837C289.801 228.16 290.699 228.471 290.907 228.53C291.12 228.575 291.322 228.648 291.348 228.683C291.388 228.723 291.458 228.727 291.516 228.702C291.603 228.665 291.844 228.721 292.583 228.929C292.675 228.958 292.769 228.963 292.798 228.951C292.855 228.926 293.36 229.04 294.606 229.339C295.194 229.486 295.616 229.807 295.81 230.259C295.876 230.413 296.036 230.573 296.169 230.618C296.515 230.733 299.454 230.886 299.666 230.796C299.734 230.767 299.798 230.785 299.815 230.823C299.832 230.862 300.075 230.871 300.364 230.827C300.648 230.797 300.935 230.776 301.004 230.804C301.078 230.817 301.305 230.789 301.524 230.74C301.733 230.696 301.945 230.685 301.991 230.711C302.04 230.747 302.267 230.718 302.515 230.658C302.753 230.601 303.013 230.57 303.078 230.587C303.3 230.652 304.394 230.331 304.344 230.216ZM316.203 223.832C316.187 223.793 316.326 223.585 316.509 223.347C316.692 223.109 316.827 222.892 316.81 222.853C316.789 222.805 316.825 222.755 316.873 222.735C316.931 222.71 317.062 222.563 317.161 222.395C317.264 222.236 317.594 221.73 317.903 221.279C318.211 220.827 318.52 220.352 318.593 220.23C318.662 220.098 318.808 219.933 318.921 219.85C319.02 219.762 319.092 219.663 319.071 219.615C319.054 219.576 319.203 219.284 319.4 218.972C319.591 218.673 319.924 218.04 320.125 217.578C320.335 217.111 320.532 216.719 320.561 216.707C320.599 216.69 320.627 216.541 320.627 216.382C320.635 216.162 320.524 215.901 320.152 215.274C319.892 214.827 319.64 214.479 319.592 214.499C319.553 214.516 319.461 214.407 319.395 214.253C319.325 214.089 319.224 213.961 319.173 213.949C319.113 213.941 318.915 213.718 318.719 213.448C318.524 213.178 318.255 212.871 318.116 212.76C317.977 212.648 317.845 212.5 317.816 212.432C317.787 212.365 317.695 212.256 317.606 212.181C317.52 212.114 317.233 211.816 316.968 211.519C316.704 211.221 316.412 210.913 316.319 210.828C316.235 210.738 315.895 210.371 315.578 210.005C315.252 209.643 314.922 209.272 314.828 209.186C314.735 209.101 314.585 208.937 314.498 208.815C314.319 208.584 313.862 208.129 313.606 207.931C313.521 207.865 313.354 207.663 313.243 207.483C313.122 207.307 312.988 207.181 312.95 207.198C312.911 207.214 312.731 207.007 312.539 206.746C312.348 206.486 312.14 206.268 312.08 206.259C312.015 206.241 311.935 206.162 311.898 206.075C311.851 205.992 311.667 205.775 311.47 205.609C311.273 205.442 311.105 205.263 311.079 205.229C311.063 205.19 310.977 205.124 310.9 205.077C310.813 205.035 310.618 204.925 310.45 204.826C310.286 204.736 309.89 204.61 309.569 204.553C308.938 204.436 308.292 204.633 307.849 205.063C307.729 205.182 307.007 205.572 306.245 205.921C305.486 206.281 304.798 206.644 304.713 206.738C304.628 206.831 303.986 207.197 303.298 207.561C301.501 208.502 301.571 208.427 301.962 209.126C302.141 209.437 302.397 209.795 302.54 209.916C302.679 210.027 302.838 210.21 302.887 210.326C302.933 210.432 303.015 210.545 303.07 210.567C303.135 210.584 303.315 210.792 303.486 211.004C303.651 211.23 303.966 211.619 304.167 211.875C304.378 212.127 304.745 212.585 304.99 212.891C305.226 213.2 305.472 213.482 305.531 213.514C305.585 213.559 305.767 213.824 305.937 214.115C306.104 214.398 306.279 214.619 306.317 214.603C306.365 214.582 306.522 214.788 306.68 215.051C306.835 215.304 307.022 215.555 307.081 215.586C307.144 215.628 307.341 215.874 307.523 216.138C307.828 216.612 308.097 216.918 308.625 217.433C308.753 217.572 308.956 217.805 309.064 217.952C309.168 218.113 309.315 218.244 309.375 218.252C309.44 218.27 309.52 218.35 309.557 218.436C309.594 218.523 309.735 218.691 309.874 218.802C310.013 218.914 310.211 219.137 310.324 219.294C310.511 219.544 310.869 219.927 311.244 220.244C311.316 220.305 311.531 220.566 311.718 220.817C311.911 221.054 312.096 221.248 312.135 221.231C312.174 221.214 312.263 221.29 312.346 221.403C312.659 221.816 313.566 222.761 314.005 223.12C314.26 223.342 314.483 223.543 314.495 223.572C314.512 223.61 314.768 223.808 315.075 224.019L315.631 224.385L315.927 224.144C316.095 224.004 316.216 223.86 316.203 223.832ZM287.412 232.64C287.206 232.614 286.926 232.597 286.774 232.616C286.491 232.647 285.917 232.665 285.373 232.647C284.943 232.626 284.109 232.676 283.791 232.732C283.653 232.757 283.532 232.741 283.516 232.702C283.499 232.664 283.125 232.721 282.691 232.827C282.248 232.938 281.808 233.001 281.706 232.976C281.438 232.909 277.059 234.797 276.971 235.018C276.866 235.279 277.184 235.382 277.685 235.247C277.923 235.191 278.992 234.812 280.063 234.41C281.133 234.008 282.082 233.693 282.16 233.717C282.248 233.736 282.628 233.664 283.011 233.546C283.393 233.427 283.798 233.334 283.891 233.339C283.999 233.35 284.431 233.268 284.85 233.156C285.576 232.959 286.097 232.872 286.609 232.87C286.858 232.865 287.54 232.779 287.688 232.726C287.75 232.711 287.621 232.675 287.412 232.64ZM286.544 229.26C285.19 228.734 283.642 228.155 283.098 227.978C282.564 227.796 281.515 227.425 280.771 227.151C280.036 226.873 279.322 226.643 279.195 226.64C279.078 226.634 278.958 226.594 278.938 226.546C278.847 226.334 278.247 226.876 278.075 227.326C278.002 227.528 277.603 228.167 277.535 228.196C277.507 228.208 277.407 228.376 277.326 228.559C277.245 228.742 277.094 229.001 276.982 229.14C276.876 229.265 276.779 229.41 276.762 229.451C276.709 229.645 275.864 231.079 275.787 231.112C275.738 231.133 275.671 231.241 275.641 231.357C275.597 231.467 275.355 231.913 275.075 232.352C274.806 232.787 274.595 233.174 274.616 233.222C274.698 233.415 275.158 233.263 278.111 232.066C281.103 230.851 281.916 230.594 282.222 230.748C282.267 230.774 282.493 230.769 282.73 230.736C283.374 230.642 284.146 230.607 284.297 230.668C284.366 230.696 284.508 230.68 284.623 230.631C284.739 230.581 284.941 230.574 285.08 230.606C285.209 230.642 285.392 230.643 285.469 230.61C285.547 230.577 285.825 230.56 286.082 230.576C286.339 230.591 286.594 230.573 286.656 230.558C286.723 230.529 286.926 230.522 287.103 230.537C287.29 230.548 287.512 230.533 287.589 230.5C287.67 230.476 287.868 230.46 288.036 230.479C288.204 230.498 288.489 230.445 288.676 230.376C289.004 230.235 288.972 230.215 286.544 229.26ZM321.915 212.443C322.058 212.085 322.23 211.555 322.289 211.268C322.344 210.97 322.424 210.651 322.458 210.545C322.492 210.439 322.536 210.01 322.542 209.597C322.557 209.18 322.573 208.739 322.58 208.622C322.591 208.515 322.418 207.871 322.189 207.205C321.975 206.545 321.809 205.92 321.834 205.818C321.921 205.541 321.398 204.374 321.091 204.164C320.946 204.066 320.759 203.895 320.663 203.777C320.518 203.6 319.603 203.194 318.85 202.981C318.476 202.879 316.702 202.624 316.606 202.666C316.557 202.686 316.427 202.674 316.33 202.635C315.898 202.479 314.522 202.726 313.297 203.194C312.13 203.638 312.086 203.668 312.238 203.808C312.317 203.888 312.528 204.14 312.688 204.379C312.853 204.605 313.026 204.77 313.065 204.754C313.103 204.737 313.171 204.788 313.204 204.865C313.299 205.087 314.238 206.133 314.337 206.124C314.383 206.127 314.455 206.188 314.492 206.274C314.558 206.428 315.592 207.616 315.816 207.793C315.902 207.859 316.056 208.033 316.173 208.199C316.286 208.356 316.48 208.57 316.619 208.681C316.758 208.792 316.894 208.951 316.931 209.037C316.964 209.114 317.048 209.204 317.121 209.241C317.19 209.269 317.53 209.636 317.877 210.046C318.237 210.462 318.585 210.848 318.657 210.909C318.949 211.137 319.579 211.756 319.616 211.843C319.633 211.882 319.936 212.162 320.28 212.46C320.624 212.757 320.922 213.028 320.935 213.057C320.947 213.086 321.074 213.168 321.202 213.227C321.494 213.376 321.554 213.304 321.915 212.443ZM273.14 231.802C273.149 231.741 273.326 231.437 273.532 231.121C273.739 230.804 273.947 230.464 273.985 230.368C274.024 230.271 274.3 229.799 274.606 229.315C274.897 228.825 275.179 228.339 275.21 228.224C275.244 228.118 275.331 228.001 275.398 227.972C275.475 227.939 275.517 227.875 275.5 227.837C275.479 227.789 275.643 227.479 275.86 227.135C276.072 226.805 276.312 226.405 276.368 226.244C276.503 225.947 276.529 225.183 276.422 224.933C276.356 224.779 276.372 223.78 276.441 223.648C276.467 223.602 276.514 223.286 276.552 222.95C276.587 222.604 276.642 222.307 276.69 222.286C276.728 222.27 276.732 222.2 276.704 222.132C276.637 221.978 277.12 219.274 277.424 218.094C277.657 217.174 277.692 217.044 277.946 216.172C278.045 215.844 278.175 215.378 278.245 215.142C278.316 214.907 278.444 214.487 278.534 214.22C278.706 213.69 278.655 213.279 278.467 213.691C278.412 213.828 278.325 213.945 278.287 213.962C278.229 213.986 277.856 214.58 277.539 215.171C277.508 215.231 277.392 215.44 277.282 215.635C276.501 217.031 275.51 219.508 275.093 221.089C274.947 221.654 274.82 222.073 274.723 222.354C274.668 222.492 274.641 222.64 274.661 222.689C274.682 222.737 274.628 222.931 274.538 223.118C274.433 223.3 274.355 223.595 274.363 223.774C274.357 223.948 274.311 224.105 274.253 224.129C274.205 224.15 274.177 224.219 274.198 224.267C274.239 224.363 274.117 225.089 274.037 225.248C274.02 225.29 273.909 225.748 273.799 226.263C273.689 226.777 273.532 227.449 273.454 227.745C273.366 228.045 273.316 228.328 273.337 228.376C273.361 228.434 273.357 228.504 273.327 228.54C273.217 228.656 272.924 229.808 272.969 229.914C272.998 229.981 272.96 230.078 272.895 230.139C272.835 230.211 272.792 230.298 272.813 230.346C272.833 230.394 272.851 230.649 272.844 230.925C272.843 231.986 272.84 232.033 272.994 231.967C273.062 231.938 273.132 231.862 273.14 231.802ZM263.579 232.959C263.405 232.794 263.221 232.656 263.179 232.64C263.138 232.623 262.994 232.526 262.855 232.414C262.72 232.312 262.113 231.854 261.504 231.419C260.882 230.979 260.375 230.592 260.366 230.573C260.329 230.486 259.542 229.82 259.45 229.791C259.408 229.775 259.239 229.619 259.09 229.432C258.932 229.249 258.716 229.011 258.6 228.901C258.16 228.486 258.068 228.377 257.787 228.041C257.375 227.533 256.697 227.254 256.035 227.333C255.288 227.425 253.574 228.057 252.863 228.499C252.035 229.013 251.366 229.528 251.399 229.605C251.415 229.644 251.3 229.773 251.153 229.882C250.992 229.985 250.743 230.229 250.601 230.403C250.463 230.588 250.294 230.752 250.226 230.781C250.159 230.809 250.122 230.882 250.143 230.931C250.167 230.988 250.145 231.043 250.097 231.064C250.01 231.101 249.402 231.784 247.722 233.69C247.47 233.981 247.206 234.242 247.148 234.267C247.081 234.296 247.053 234.365 247.074 234.413C247.099 234.47 247.058 234.534 247 234.559C246.932 234.587 246.712 234.819 246.496 235.06C246.294 235.306 246.07 235.528 246.002 235.556C245.944 235.581 245.893 235.649 245.891 235.695C245.893 235.808 244.189 237.816 244.034 237.882C243.967 237.911 243.93 237.984 243.95 238.032C243.975 238.09 243.924 238.158 243.847 238.191C243.77 238.224 243.719 238.291 243.744 238.349C243.765 238.397 243.688 238.51 243.569 238.606L243.344 238.772L243.662 238.795C243.839 238.81 244.207 238.789 244.472 238.744C244.738 238.698 245.021 238.668 245.086 238.686C245.16 238.7 245.488 238.639 245.813 238.546C246.147 238.448 246.494 238.379 246.597 238.38C246.774 238.395 248.263 238.065 249.186 237.795C249.424 237.739 249.627 237.708 249.644 237.747C249.66 237.785 250.212 237.663 250.867 237.462C251.513 237.265 252.108 237.112 252.173 237.13C252.252 237.154 252.681 237.038 253.15 236.882C253.619 236.727 254.063 236.617 254.127 236.634C254.202 236.648 255.096 236.367 256.136 236.001C257.163 235.629 258.37 235.226 258.824 235.088C259.269 234.955 260.036 234.671 260.528 234.461C261.048 234.238 261.43 234.119 261.455 234.177C261.48 234.235 261.959 234.075 262.701 233.757L263.905 233.241L263.579 232.959ZM265.073 229.821C264.064 227.255 263.331 224.695 263.319 223.628C263.322 223.502 263.277 223.213 263.216 222.988C263.114 222.565 263.02 221.761 263.03 221.358C263.038 221.137 262.864 220.254 262.549 218.827C262.471 218.484 262.428 218.172 262.454 218.126C262.48 218.081 262.264 217.364 261.984 216.526C261.383 214.777 260.063 212.07 259.628 211.721C259.489 211.609 259.357 211.46 259.332 211.403C259.208 211.114 259.025 211.432 258.908 212.143C258.837 212.561 258.776 212.952 258.772 213.023C258.768 213.093 258.728 213.372 258.684 213.642C258.57 214.307 258.456 216.009 258.514 216.144C258.543 216.211 258.525 216.276 258.467 216.301C258.419 216.321 258.404 216.419 258.445 216.515C258.482 216.602 258.507 216.819 258.488 216.987C258.478 217.151 258.503 217.448 258.543 217.648C258.592 217.843 258.599 218.365 258.573 218.809C258.551 219.264 258.55 219.686 258.579 219.754C258.608 219.821 258.594 219.895 258.536 219.92C258.488 219.941 258.469 220.029 258.502 220.106C258.535 220.183 258.525 220.267 258.487 220.283C258.438 220.304 258.421 220.528 258.452 220.788C258.48 221.039 258.489 221.274 258.463 221.32C258.4 221.438 258.385 222.174 258.433 222.872C258.454 223.239 258.473 223.63 258.462 223.738C258.446 223.859 258.57 224.387 258.735 224.932C258.9 225.477 259.028 226.015 259.017 226.123C258.996 226.394 259.244 226.972 259.521 227.298C259.649 227.437 259.901 227.785 260.091 228.068C260.277 228.342 260.48 228.551 260.528 228.531C260.577 228.51 260.636 228.542 260.661 228.599C260.706 228.705 261.519 229.246 261.822 229.367C261.928 229.402 262.143 229.583 262.301 229.766C262.459 229.949 262.666 230.112 262.75 230.121C262.843 230.127 263.043 230.247 263.204 230.383C263.365 230.519 263.537 230.628 263.578 230.644C263.708 230.68 264.355 231.098 264.383 231.166C264.396 231.195 264.613 231.329 264.854 231.466C265.105 231.598 265.317 231.746 265.337 231.794C265.395 231.929 265.699 232.027 265.798 231.939C265.848 231.895 265.575 231.099 265.073 229.821ZM279.38 222.524C279.36 222.476 279.577 222.292 279.861 222.102C280.452 221.7 281.071 221.229 281.292 220.998C281.377 220.904 281.922 220.5 282.496 220.082C283.07 219.665 283.595 219.269 283.661 219.184C283.727 219.098 283.978 218.911 284.225 218.771C284.469 218.621 284.7 218.442 284.732 218.383C284.769 218.31 285.004 218.14 285.248 217.99C285.501 217.836 285.732 217.657 285.764 217.598C285.801 217.525 286.027 217.36 286.27 217.21C286.514 217.06 286.8 216.823 286.906 216.698C287.008 216.563 287.147 216.435 287.214 216.406C287.561 216.257 288.064 213.522 287.841 213.001C287.808 212.924 287.828 212.836 287.876 212.816C287.934 212.791 287.952 212.726 287.927 212.668C287.906 212.62 287.906 212.061 287.928 211.448C287.95 210.834 287.987 209.883 288.005 209.339C288.023 208.796 288.051 207.985 288.073 207.531C288.1 207.086 288.087 206.658 288.062 206.601C288.033 206.533 288.051 206.469 288.099 206.448C288.148 206.427 288.161 206.273 288.13 206.093C288.102 205.922 288.112 205.758 288.16 205.738C288.208 205.717 288.218 205.633 288.185 205.556C288.106 205.373 288.129 204.337 288.219 204.253C288.249 204.217 288.259 204.133 288.234 204.075C288.205 204.008 288.224 203.281 288.254 202.447C288.396 199.559 288.412 198.879 288.357 198.857C288.316 198.84 288.181 198.978 288.049 199.149C287.907 199.323 287.661 199.6 287.488 199.754C287.3 199.903 287.071 200.138 286.969 200.273C286.857 200.412 286.709 200.544 286.651 200.569C286.584 200.598 286.546 200.671 286.567 200.719C286.592 200.777 286.551 200.84 286.493 200.865C286.339 200.931 284.659 202.917 284.555 203.155C284.513 203.242 284.441 203.341 284.393 203.361C284.345 203.382 283.898 203.962 283.402 204.641C282.911 205.331 282.447 205.952 282.363 206.022C282.035 206.345 281.74 207.122 281.933 207.199C282.153 207.287 282.395 207.958 282.358 208.43C282.335 208.668 282.062 209.549 281.736 210.385C281.131 211.978 280.907 212.679 280.742 213.571C280.683 213.858 280.597 214.111 280.559 214.128C280.511 214.149 280.489 214.204 280.513 214.261C280.534 214.31 280.416 214.885 280.251 215.537C280.086 216.189 279.894 216.967 279.83 217.268C279.761 217.56 279.676 217.813 279.627 217.834C279.589 217.851 279.575 217.925 279.608 218.002C279.641 218.079 279.586 218.376 279.49 218.657C279.394 218.938 279.322 219.197 279.339 219.235C279.355 219.274 279.335 219.385 279.296 219.481C279.257 219.578 279.154 219.976 279.076 220.351C278.998 220.727 278.904 221.121 278.861 221.207C278.823 221.304 278.819 221.533 278.864 221.719C278.9 221.909 278.903 222.102 278.877 222.147C278.85 222.193 278.85 222.352 278.878 222.523C278.919 222.779 278.951 222.8 279.173 222.705C279.307 222.647 279.397 222.563 279.38 222.524ZM240.886 237.533C240.869 237.495 241.033 237.345 241.261 237.213C241.476 237.075 241.726 236.888 241.792 236.802C241.915 236.636 242.215 236.325 242.954 235.575C243.129 235.397 243.367 235.181 243.485 235.085C243.603 234.988 243.704 234.877 243.72 234.836C243.733 234.785 244.007 234.519 244.315 234.227C244.637 233.941 244.971 233.604 245.077 233.478C245.183 233.353 245.341 233.217 245.428 233.18C245.515 233.143 245.594 233.063 245.612 232.998C245.621 232.938 245.762 232.763 245.926 232.613C246.094 232.472 246.265 232.285 246.292 232.216C246.415 231.97 247.77 230.237 247.876 230.192C247.934 230.167 247.965 230.108 247.941 230.05C247.92 230.002 247.967 229.925 248.044 229.892C248.121 229.859 248.172 229.791 248.151 229.743C248.135 229.705 248.286 229.526 248.498 229.355C248.71 229.184 248.869 229.025 248.853 228.986C248.84 228.957 249.052 228.707 249.336 228.437C249.614 228.181 249.958 227.84 250.098 227.688C250.239 227.537 250.435 227.384 250.541 227.339C250.638 227.297 250.709 227.198 250.704 227.132C250.701 227.019 251.243 226.741 252.911 226.003C254.136 225.456 255.117 224.978 255.096 224.93C255.055 224.833 254.272 224.337 254.123 224.309C254.063 224.301 253.885 224.206 253.741 224.108C252.104 223.031 250.976 222.58 250.198 222.708C249.942 222.749 249.572 222.737 249.383 222.669C248.959 222.532 247.503 222.381 247.307 222.454C247.23 222.487 247.008 222.502 246.821 222.491C246.643 222.476 246.393 222.503 246.277 222.553C246.162 222.602 245.983 222.611 245.891 222.582C245.666 222.484 241.977 224.066 241.947 224.261C241.933 224.335 241.759 224.49 241.56 224.609C240.308 225.386 239.325 226.046 239.325 226.126C239.322 226.173 239.223 226.261 239.098 226.315C238.973 226.368 238.777 226.498 238.667 226.613C238.473 226.799 237.745 227.282 236.228 228.264C235.906 228.47 235.636 228.666 235.623 228.717C235.607 228.758 235.2 229.058 234.707 229.372C234.21 229.676 233.618 230.078 233.374 230.251C232.868 230.616 231.252 231.685 230.354 232.253C229.496 232.803 229.464 232.942 230.096 233.299C230.159 233.34 230.606 233.638 231.089 233.967C231.573 234.296 232.115 234.657 232.287 234.765C233.02 235.226 233.399 235.497 233.436 235.584C233.461 235.642 233.526 235.66 233.574 235.639C233.631 235.614 233.742 235.658 233.821 235.738C233.977 235.888 235.472 236.901 235.601 236.937C235.642 236.953 235.964 237.146 236.303 237.377C237.098 237.902 238.311 238.363 238.71 238.284C238.881 238.256 239.035 238.27 239.055 238.318C239.076 238.366 239.507 238.227 240.008 238.012C240.509 237.798 240.906 237.581 240.886 237.533ZM291.195 212.978C291.223 212.909 291.341 212.812 291.457 212.763C291.582 212.709 291.681 212.621 291.693 212.57C291.702 212.51 292.002 212.278 292.358 212.046C292.714 211.813 293.082 211.553 293.171 211.469C293.536 211.096 294.302 210.517 295.028 210.08C295.451 209.819 295.819 209.559 295.846 209.49C295.888 209.426 296.006 209.33 296.131 209.276C296.256 209.223 296.336 209.143 296.316 209.095C296.295 209.047 296.391 208.925 296.529 208.821C296.872 208.583 297.158 207.867 297.283 206.935C297.341 206.512 297.423 206.145 297.453 206.11C297.484 206.074 297.497 206 297.477 205.951C297.456 205.903 297.51 205.47 297.595 204.977C297.8 203.806 297.79 203.81 297.915 202.878C297.965 202.435 298.032 202.007 298.071 201.911C298.1 201.819 298.141 201.596 298.16 201.428C298.179 201.26 298.258 200.724 298.334 200.236C298.522 199.026 298.595 198.505 298.607 198.294C298.613 198.201 298.635 198.066 298.648 197.991C298.742 197.678 298.848 196.914 298.815 196.837C298.798 196.798 298.802 196.728 298.842 196.688C298.928 196.594 299.071 195.838 299.021 195.722C299 195.674 299.009 195.613 299.057 195.593C299.095 195.576 299.163 195.308 299.215 194.977C299.262 194.661 299.321 194.373 299.337 194.332C299.456 194.076 299.751 192.079 299.679 192.042C299.504 191.98 293.952 194.405 293.848 194.587C293.796 194.678 293.359 194.99 292.878 195.277C292.391 195.577 292.004 195.845 292.025 195.893C292.041 195.932 291.99 195.999 291.913 196.032C291.836 196.065 291.606 196.301 291.414 196.543C291.085 196.946 290.946 197.394 290.949 197.985C290.955 198.108 290.905 198.335 290.844 198.486C290.784 198.638 290.664 199.077 290.585 199.452C290.497 199.832 290.408 200.235 290.374 200.341C290.232 200.756 290.012 201.945 289.96 202.514C289.863 203.673 289.859 203.823 289.851 204.443C289.859 204.781 289.836 205.099 289.802 205.125C289.762 205.165 289.77 205.264 289.803 205.341C289.84 205.428 289.851 205.879 289.833 206.343C289.816 206.807 289.806 207.21 289.823 207.249C289.851 207.316 289.861 207.791 289.843 208.494C289.816 209.521 289.83 209.925 289.888 210.06C289.925 210.147 289.915 210.231 289.857 210.256C289.809 210.276 289.782 210.345 289.806 210.403C289.831 210.461 289.852 210.668 289.845 210.865C289.852 211.068 289.857 211.533 289.868 211.904C289.889 212.272 289.884 212.685 289.862 212.819C289.84 212.954 289.862 213.219 289.902 213.418L289.975 213.775L290.553 213.447C290.873 213.264 291.158 213.051 291.195 212.978ZM318.786 198.709C318.693 198.623 318.419 198.251 318.182 197.885C317.955 197.514 317.72 197.205 317.678 197.188C317.627 197.176 317.344 196.887 317.049 196.546C316.755 196.204 316.405 195.841 316.28 195.735C316.155 195.629 316.027 195.49 316.002 195.432C315.973 195.365 315.91 195.324 315.852 195.348C315.804 195.369 315.731 195.332 315.706 195.274C315.677 195.207 315.432 194.981 315.168 194.764C314.904 194.546 314.46 194.177 314.165 193.939C313.64 193.514 313.509 193.422 313.163 193.251C313.066 193.213 312.971 193.151 312.955 193.112C312.893 192.968 312.088 192.526 311.84 192.507C311.401 192.467 311.02 192.961 310.702 193.976C310.558 194.437 310.377 195.027 310.292 195.28C310.221 195.539 310.084 195.94 310.014 196.175C309.835 196.742 309.357 198.817 309.289 199.325C309.258 199.544 309.212 199.917 309.175 200.149C309.095 200.788 309.016 201.746 309.049 201.823C309.065 201.861 309.292 201.832 309.565 201.75C309.832 201.681 310.15 201.625 310.276 201.627C310.403 201.63 311.043 201.447 311.703 201.232C313.907 200.493 315.335 200.154 315.846 200.255C315.92 200.268 316.194 200.242 316.464 200.206C316.733 200.171 317.131 200.194 317.329 200.257C317.527 200.32 317.746 200.352 317.814 200.323C317.91 200.282 318.072 200.315 318.7 200.502C318.792 200.531 319.018 200.525 319.212 200.499L319.572 200.436L319.271 199.653C319.108 199.221 318.88 198.794 318.786 198.709ZM301.757 205.827C302.661 205.382 303.452 204.941 303.518 204.855C303.579 204.784 304.147 204.46 304.776 204.145C305.405 203.83 305.906 203.535 305.885 203.487C305.864 203.439 305.935 203.363 306.05 203.314C306.252 203.227 306.621 202.385 306.793 201.615C306.84 201.379 306.906 201.134 306.92 201.059C307.177 200.117 307.288 199.578 307.255 199.501C307.231 199.444 307.255 199.342 307.306 199.274C307.357 199.207 307.557 198.369 307.744 197.422C308.019 196.015 308.667 193.138 308.984 191.964C309.02 191.834 309.013 191.632 308.968 191.526C308.823 191.189 307.739 190.548 307.152 190.457C306.85 190.416 306.562 190.357 306.521 190.34C306.434 190.298 305.478 190.354 305.074 190.424C304.927 190.453 304.777 190.449 304.728 190.413C304.682 190.387 304.364 190.444 304.034 190.551L303.417 190.735L303.346 191.313C303.266 192.032 303.06 192.508 302.809 192.615C302.713 192.657 302.647 192.742 302.668 192.79C302.692 192.848 302.632 192.92 302.536 192.961C302.439 193.002 302.34 193.09 302.299 193.154C302.271 193.222 302.097 193.4 301.909 193.549C301.323 194.017 300.952 195.145 300.693 197.229C300.659 197.494 300.607 197.745 300.59 197.786C300.574 197.827 300.55 197.986 300.541 198.149C300.524 198.51 300.464 198.901 300.416 199.001C300.389 199.047 300.352 199.359 300.318 199.705C300.284 200.05 300.227 200.53 300.198 200.782C300.156 201.028 300.13 201.313 300.124 201.407C300.128 201.496 300.108 201.608 300.091 201.649C300.048 201.736 299.993 202.193 299.97 202.67C299.954 202.871 299.919 203.137 299.882 203.29C299.841 203.433 299.784 204.073 299.742 204.718C299.705 205.35 299.648 205.91 299.614 205.936C299.574 205.976 299.578 206.065 299.607 206.133C299.636 206.2 299.631 206.294 299.591 206.334C299.56 206.37 299.529 206.509 299.554 206.646C299.578 206.943 299.497 206.967 301.757 205.827ZM256.482 221.565C256.589 219.66 256.626 218.39 256.572 218.265C256.547 218.207 256.575 218.138 256.623 218.117C256.681 218.093 256.699 218.028 256.674 217.97C256.637 217.883 256.628 217.625 256.643 216.569C256.646 216.443 256.631 216.221 256.602 216.074C256.533 215.567 256.573 214.171 256.671 213.627C256.712 213.404 256.749 212.932 256.76 212.585C256.771 212.238 256.794 211.92 256.811 211.879C256.878 211.77 256.607 210.632 256.392 210.131C256.293 209.9 256.198 209.519 256.177 209.311C256.146 208.891 256.377 208.234 256.638 208.019C256.722 207.949 256.764 207.806 256.746 207.711C256.71 207.521 256.36 207.078 256.155 206.972C256.096 206.94 255.873 206.819 255.668 206.713C255.459 206.597 255.283 206.479 255.27 206.45C255.254 206.412 255.09 206.322 254.897 206.245C254.705 206.168 254.537 206.069 254.52 206.031C254.5 205.982 254.259 205.846 253.989 205.722C253.715 205.589 253.478 205.462 253.462 205.424C253.445 205.385 253.005 205.129 252.5 204.856C251.985 204.586 251.422 204.257 251.246 204.139C251.075 204.007 250.912 203.917 250.883 203.93C250.844 203.946 250.705 203.914 250.558 203.863C250.25 203.756 249.797 203.791 249.855 203.925C249.879 203.983 249.884 204.232 249.878 204.486C249.859 204.733 249.906 205.135 249.962 205.373C250.019 205.611 250.059 205.891 250.048 205.998C250.042 206.092 250.116 206.504 250.225 206.891C250.466 207.826 250.637 208.756 250.594 208.843C250.568 208.888 250.638 209.291 250.753 209.744C250.867 210.197 250.949 210.629 250.932 210.694C250.918 210.768 250.962 211.057 251.035 211.333C251.112 211.62 251.166 211.905 251.157 211.965C251.144 212.039 251.224 212.438 251.325 212.862C251.737 214.488 251.857 215.086 251.81 215.163C251.794 215.205 251.85 215.522 251.956 215.876C252.058 216.22 252.116 216.515 252.077 216.531C252.039 216.548 252.13 216.999 252.267 217.533C252.419 218.073 252.508 218.547 252.482 218.593C252.446 218.642 252.47 218.803 252.532 218.948C252.594 219.092 252.679 219.478 252.716 219.804C252.753 220.13 252.887 220.654 253.027 220.982C253.241 221.506 253.325 221.595 253.793 221.862C254.079 222.025 254.419 222.233 254.545 222.315C255.433 222.87 256.179 223.2 256.293 223.094C256.348 223.036 256.431 222.351 256.482 221.565ZM230.582 229.327C230.921 229.079 231.454 228.725 231.776 228.519C232.102 228.322 232.435 228.088 232.52 227.994C232.609 227.91 233.002 227.628 233.401 227.389C234.473 226.724 235.352 226.142 235.487 226.004C235.552 225.942 235.898 225.714 236.24 225.499C238.06 224.399 238.875 223.879 238.982 223.73C239.058 223.641 239.224 223.524 239.35 223.47C239.484 223.412 239.831 223.184 240.139 222.972C240.444 222.75 241.019 222.39 241.426 222.169C241.833 221.949 242.18 221.721 242.184 221.65C242.223 221.474 244.348 220.552 244.689 220.577C244.843 220.59 245.362 220.471 245.831 220.315C246.664 220.049 246.693 220.037 246.562 219.865C246.487 219.771 246.227 219.564 245.984 219.394C245.731 219.229 245.514 219.071 245.498 219.033C245.436 218.888 244.151 218.47 243.641 218.426C243.347 218.404 243.03 218.357 242.934 218.319C242.851 218.286 242.66 218.265 242.528 218.276C242.4 218.297 242.236 218.287 242.158 218.264C241.516 218.071 241.377 218.039 241.281 218.081C241.223 218.105 241.014 218.07 240.812 217.997C240.61 217.924 240.429 217.876 240.41 217.884C240.391 217.892 239.873 217.829 239.268 217.746C238.662 217.664 238.116 217.613 238.068 217.634C238.02 217.654 237.949 217.65 237.914 217.62C237.883 217.576 237.388 217.537 236.807 217.513C236.236 217.484 235.679 217.461 235.562 217.454C235.454 217.443 235.136 217.499 234.85 217.576C234.564 217.653 234.318 217.691 234.297 217.642C234.276 217.594 233.007 218.093 231.466 218.753C229.935 219.41 228.689 219.989 228.71 220.038C228.726 220.076 228.331 220.325 227.837 220.583C227.343 220.84 226.9 221.11 226.869 221.169C226.831 221.242 226.571 221.433 226.295 221.586C226.022 221.749 225.724 221.956 225.638 222.05C225.553 222.144 225.147 222.5 224.727 222.851C223.951 223.514 223.881 223.59 223.695 224.115C223.561 224.492 223.607 224.814 223.906 225.564C224.034 225.862 224.093 226.133 224.036 226.158C223.92 226.208 224.834 228.393 224.992 228.416C225.043 228.429 225.255 228.737 225.459 229.106C226.297 230.662 227.227 230.891 229.344 230.029C229.691 229.88 230.254 229.57 230.582 229.327ZM250.506 218.664C250.337 218.03 250.101 217.162 249.99 216.742C249.878 216.322 249.787 215.871 249.78 215.748C249.783 215.622 249.713 215.219 249.622 214.847C249.26 213.337 249.172 212.919 249.17 212.703C249.173 212.576 249.132 212.241 249.064 211.95C248.783 210.577 248.644 209.827 248.647 209.62C248.639 209.282 248.311 207.507 248.208 207.266C248.158 207.15 248.155 207.037 248.194 207.021C248.242 207 248.192 206.645 248.089 206.245C247.518 203.901 247.32 203.439 246.773 203.148C246.459 202.975 245.473 202.828 245.251 202.923C245.174 202.956 245.1 202.942 245.075 202.884C245.054 202.836 244.986 202.809 244.918 202.837C244.86 202.862 244.592 202.875 244.339 202.869C244.076 202.868 243.659 202.853 243.41 202.857C243.157 202.851 242.64 202.845 242.257 202.827C240.94 202.787 240.158 202.826 240.038 202.945C239.924 203.051 240.004 203.291 240.512 204.476C240.842 205.246 241.207 205.991 241.335 206.13C241.625 206.461 242.889 209.01 244.627 212.746C245.386 214.382 246.103 215.842 246.226 215.995C246.358 216.144 246.665 216.594 246.922 217.008C247.175 217.413 247.415 217.732 247.463 217.711C247.502 217.695 247.569 217.746 247.606 217.832C247.701 218.054 248.532 218.769 249.038 219.043C249.687 219.415 250.679 219.867 250.747 219.838C250.785 219.822 250.671 219.289 250.506 218.664ZM242.9 213.053C241.77 210.55 239.758 206.601 239.606 206.62C239.54 206.625 239.469 206.565 239.436 206.488C239.378 206.353 238.781 205.731 238.339 205.339C237.861 204.916 237.56 203.814 237.758 203.159C237.811 202.965 237.761 202.953 237.326 203.082C237.063 203.16 236.108 203.513 235.205 203.854L233.562 204.49L233.735 204.895C233.826 205.107 234.077 205.558 234.278 205.894C234.488 206.225 235.116 207.45 235.686 208.62C236.941 211.229 236.855 211.027 237.02 211.652C237.179 212.21 237.438 212.441 238.25 212.766C238.443 212.843 238.776 213.008 238.999 213.129C239.212 213.255 239.577 213.44 239.801 213.538C240.016 213.64 240.459 213.849 240.778 214.009C241.098 214.168 241.545 214.387 241.76 214.489C241.988 214.596 242.312 214.765 242.489 214.86C242.667 214.955 243.027 215.131 243.279 215.24C243.525 215.362 243.757 215.503 243.791 215.556C243.82 215.624 243.843 215.545 243.834 215.39C243.83 215.221 243.448 214.278 242.9 213.053ZM239.156 215.411C239.144 215.382 239.053 215.33 238.956 215.291C238.86 215.253 238.473 215.042 238.083 214.822C237.469 214.481 235.608 213.705 234.824 213.471C234.667 213.424 234.418 213.349 234.274 213.307C234.118 213.261 233.677 213.164 233.296 213.1C232.901 213.03 232.511 212.946 232.419 212.917C232.323 212.878 231.972 212.858 231.62 212.86C231.281 212.869 230.982 212.837 230.962 212.789C230.945 212.75 230.842 212.749 230.746 212.79C230.64 212.836 230.517 212.843 230.468 212.807C230.418 212.771 230.245 212.766 230.084 212.789C229.927 212.822 229.588 212.83 229.326 212.829C229.072 212.824 228.545 212.844 228.153 212.887C227.757 212.92 227.333 212.942 227.21 212.949C226.342 212.945 226.14 212.952 225.816 213.022C225.621 213.072 225.347 213.098 225.211 213.099C224.893 213.076 224.658 213.405 224.205 214.477C224.029 214.917 223.71 215.636 223.51 216.075C223.214 216.715 223.13 217.104 223.081 217.946C223.056 218.527 223.056 219.325 223.089 219.722C223.122 220.118 223.125 220.47 223.099 220.516C223.073 220.561 223.085 220.75 223.135 220.945C223.197 221.249 223.219 221.274 223.348 221.15C223.647 220.863 224.442 220.271 224.909 220.002C225.176 219.854 225.397 219.679 225.41 219.628C225.418 219.567 225.633 219.43 225.883 219.322C226.133 219.215 226.369 219.046 226.402 218.963C226.457 218.825 227.398 218.388 230.461 217.074C233.525 215.761 234.491 215.381 234.619 215.44C234.711 215.469 234.919 215.449 235.063 215.387C235.208 215.325 235.349 215.31 235.37 215.358C235.391 215.406 235.599 215.385 235.846 215.325C236.28 215.219 238.198 215.252 238.322 215.381C238.358 215.411 238.432 215.425 238.49 215.4C238.538 215.379 238.673 215.401 238.783 215.446C238.976 215.523 239.193 215.498 239.156 215.411ZM234.688 211.134C234.607 210.519 233.831 208.788 233.327 208.092C232.724 207.244 231.957 206.307 231.695 206.066C231.328 205.744 230.57 205.944 229.553 206.631C229.103 206.938 228.677 207.246 228.62 207.327C228.56 207.399 228.338 207.653 228.122 207.894C227.916 208.131 227.698 208.395 227.66 208.491C227.627 208.574 227.51 208.727 227.401 208.819C227.302 208.907 227.211 209.014 227.195 209.056C227.182 209.107 227.048 209.324 226.889 209.54C226.731 209.756 226.596 209.974 226.58 210.015C226.567 210.066 226.494 210.188 226.413 210.292C226.281 210.462 226.285 210.472 226.658 210.517C226.863 210.543 227.053 210.587 227.074 210.636C227.09 210.674 227.151 210.682 227.209 210.658C227.266 210.633 227.532 210.667 227.787 210.729C228.045 210.801 228.423 210.856 228.629 210.858C228.826 210.865 229.007 210.89 229.024 210.929C229.045 210.977 229.144 210.968 229.24 210.927C229.346 210.882 229.468 210.875 229.528 210.906C229.577 210.942 229.801 210.96 230.029 210.931C230.435 210.894 231.19 210.901 231.314 210.95C231.355 210.967 231.617 210.992 231.911 211.014C232.202 211.026 232.734 211.151 233.098 211.28C233.677 211.488 234.477 211.624 234.677 211.561C234.716 211.544 234.723 211.348 234.688 211.134Z" fill="#980B49"/>
<path d="M292.795 278.819C291.698 279.107 290.676 279.009 289.956 278.553C289.598 278.331 289.511 278.208 289.252 277.578C289.097 277.188 288.996 276.821 289.028 276.762C289.073 276.708 289.083 276.544 289.054 276.397C288.985 275.97 289.437 274.762 289.829 274.32C290.367 273.713 291.589 273.212 292.46 273.249C292.811 273.27 293.248 273.253 293.419 273.226C294.117 273.098 295.276 273.433 295.433 273.799C295.47 273.886 295.563 273.972 295.624 273.98C295.772 274.007 296.059 274.649 295.943 274.698C295.895 274.719 295.887 274.859 295.924 275.026C295.975 275.277 295.895 275.597 295.674 276.011C295.594 276.171 295.166 276.662 294.581 277.266C294.41 277.453 294.196 277.671 294.11 277.764C294.025 277.858 293.79 278.107 293.585 278.321C293.384 278.543 293.176 278.724 293.138 278.74C293.095 278.747 292.942 278.79 292.795 278.819Z" fill="#980B49"/>
</svg>
