<svg width="942" height="240" viewBox="0 0 942 240" fill="none" xmlns="http://www.w3.org/2000/svg">
<path d="M440.1 192.02C437.483 195.04 436.879 197.456 438.288 199.268C439.899 201.08 441.61 201.986 443.422 201.986C445.435 201.986 447.449 201.684 449.462 201.08C458.119 198.463 466.475 193.329 474.528 185.678C482.783 177.826 486.91 169.873 486.91 161.82C486.91 157.391 481.977 152.559 472.112 147.324C467.481 144.908 464.864 143.499 464.26 143.096C458.824 139.472 455.401 135.848 453.992 132.224C451.173 137.056 446.643 144.002 440.402 153.062C438.993 154.673 437.684 155.075 436.476 154.27C435.268 153.263 435.167 151.955 436.174 150.344C444.429 139.069 449.865 129.607 452.482 121.956C453.891 110.883 461.945 100.917 476.642 92.058C491.339 83.1993 504.728 78.77 516.808 78.77C524.459 78.77 529.794 80.1793 532.814 82.998C536.035 85.6153 537.646 88.2327 537.646 90.85C537.646 93.4673 536.841 96.4873 535.23 99.91C533.821 103.333 530.801 106.554 526.17 109.574C524.962 110.379 523.955 110.178 523.15 108.97C522.747 107.762 523.553 106.151 525.566 104.138C527.781 101.923 529.19 99.004 529.794 95.38C530.398 91.756 528.787 89.5413 524.962 88.736C524.358 88.736 523.754 88.736 523.15 88.736C515.298 88.736 505.433 91.6553 493.554 97.494C481.877 103.333 472.716 110.883 466.072 120.144C463.455 123.567 462.146 127.09 462.146 130.714C462.146 134.137 464.562 137.257 469.394 140.076C471.407 141.284 474.83 143.197 479.662 145.814C484.494 148.431 487.917 150.344 489.93 151.552C491.943 152.76 494.359 154.673 497.178 157.29C499.997 159.907 501.507 162.323 501.708 164.538C502.715 170.578 499.896 177.222 493.252 184.47C483.789 194.939 469.696 202.288 450.972 206.516C446.744 207.523 442.415 208.026 437.986 208.026C433.758 208.026 430.839 206.415 429.228 203.194C428.624 202.389 428.322 201.08 428.322 199.268C428.322 197.657 429.933 194.939 433.154 191.114C436.174 188.094 441.006 185.175 447.65 182.356C448.254 182.155 448.757 182.255 449.16 182.658C449.563 183.061 449.663 183.564 449.462 184.168C449.261 184.772 448.153 185.477 446.14 186.282C444.328 187.087 442.315 189 440.1 192.02ZM540.333 191.416C533.085 195.04 528.455 196.852 526.441 196.852C524.428 196.852 523.421 196.55 523.421 195.946C523.421 195.342 523.522 194.637 523.723 193.832C524.126 193.228 525.535 189.503 527.951 182.658C530.569 175.813 533.79 167.155 537.615 156.686C541.441 146.217 544.763 137.459 547.581 130.412C542.951 135.445 537.515 142.391 531.273 151.25C530.267 152.659 528.857 153.062 527.045 152.458C525.435 151.854 526.039 149.74 528.857 146.116C535.501 138.063 543.857 126.486 553.923 111.386C550.903 109.775 549.393 108.265 549.393 106.856C549.393 105.245 549.595 104.037 549.997 103.232C551.004 100.816 552.816 100.313 555.433 101.722C556.641 102.125 557.447 102.326 557.849 102.326C566.708 78.9713 577.781 58.1333 591.069 39.812C598.317 29.544 605.867 22.0947 613.719 17.464C621.571 12.632 628.92 10.216 635.765 10.216C640.597 10.216 645.228 11.424 649.657 13.84C654.087 16.0547 656.301 19.7793 656.301 25.014C656.301 35.0807 647.644 49.6773 630.329 68.804C621.068 78.6693 610.699 87.7293 599.223 95.984C587.747 104.239 577.58 110.279 568.721 114.104C560.869 131.419 553.923 149.539 547.883 168.464L567.513 142.794C567.312 140.982 567.211 139.069 567.211 137.056C567.211 131.016 568.52 127.291 571.137 125.882C572.547 125.278 573.453 126.486 573.855 129.506L575.063 133.734C590.566 115.614 601.74 104.943 608.585 101.722C611.807 100.111 614.726 99.306 617.343 99.306C619.961 99.306 622.276 100.011 624.289 101.42C626.303 102.829 627.309 104.339 627.309 105.95C627.309 108.769 624.994 111.285 620.363 113.5C598.217 124.171 583.62 133.231 576.573 140.68C581.405 157.592 586.137 170.88 590.767 180.544C595.398 190.208 602.646 201.08 612.511 213.16C622.578 225.24 631.739 231.28 639.993 231.28C646.839 231.28 649.657 228.26 648.449 222.22C647.644 216.784 645.933 212.053 643.315 208.026C640.899 204.201 640.698 202.288 642.711 202.288C644.523 202.489 646.436 203.395 648.449 205.006C649.657 206.415 651.067 208.831 652.677 212.254C654.288 215.878 655.093 218.898 655.093 221.314C654.892 226.951 652.174 231.381 646.939 234.602C641.705 237.823 636.671 239.434 631.839 239.434C622.377 239.434 613.115 234.703 604.055 225.24C594.995 215.979 587.445 204.704 581.405 191.416C575.365 178.128 571.137 164.538 568.721 150.646C565.097 155.679 561.071 161.719 556.641 168.766C547.581 182.658 542.145 190.208 540.333 191.416ZM639.087 42.228C644.523 33.168 647.241 26.826 647.241 23.202C647.241 19.578 645.731 17.766 642.711 17.766C639.691 17.766 635.866 19.578 631.235 23.202C618.35 33.0673 607.478 44.342 598.619 57.026C589.761 69.5087 581.003 85.112 572.345 103.836C591.069 95.1787 608.082 82.092 623.383 64.576C628.417 58.7373 633.651 51.288 639.087 42.228ZM659.246 105.346C664.279 105.346 667.299 106.957 668.306 110.178C668.708 111.99 668.406 113.802 667.4 115.614C666.594 117.225 665.99 118.533 665.588 119.54C665.185 120.547 664.883 121.352 664.682 121.956C663.675 123.969 662.668 125.882 661.662 127.694C650.186 150.646 644.146 165.243 643.542 171.484C643.34 173.296 643.24 175.611 643.24 178.43C643.24 181.249 644.045 183.564 645.656 185.376C648.474 188.597 652.501 188.799 657.736 185.98C662.97 183.161 670.218 177.524 679.48 169.068C688.942 160.612 696.593 152.357 702.432 144.304C703.237 143.297 704.143 143.096 705.15 143.7C706.156 144.103 706.66 144.606 706.66 145.21C706.66 145.613 706.458 146.116 706.056 146.72C703.036 152.156 697.6 159.102 689.748 167.558C676.862 181.45 666.091 190.007 657.434 193.228C652.4 195.04 648.172 195.946 644.75 195.946C636.696 195.946 631.361 192.121 628.744 184.47C628.341 183.061 628.14 181.349 628.14 179.336C628.14 172.289 631.361 161.619 637.804 147.324C636.797 149.539 632.871 154.572 626.026 162.424C624.214 164.437 622.804 164.437 621.798 162.424C621.596 162.021 621.496 161.518 621.496 160.914C621.496 160.109 621.898 159.203 622.704 158.196C632.569 145.915 640.32 135.546 645.958 127.09C645.555 126.083 645.756 124.775 646.562 123.164C650.588 111.889 654.112 105.95 657.132 105.346C657.736 105.346 658.44 105.346 659.246 105.346ZM683.104 65.18L680.688 74.844C680.688 76.656 679.379 79.5753 676.762 83.602C674.144 87.6287 672.131 89.642 670.722 89.642C662.064 89.642 657.736 87.528 657.736 83.3C657.736 82.4947 662.064 78.77 670.722 72.126L675.856 68.2C679.077 65.3813 681.09 63.972 681.896 63.972C682.701 63.972 683.104 64.3747 683.104 65.18ZM803.175 34.98C805.591 30.5507 806.799 27.128 806.799 24.712C806.799 20.484 805.087 18.37 801.665 18.37C798.846 18.37 795.323 19.9807 791.095 23.202C774.988 35.6847 759.385 55.4153 744.285 82.394C732.205 104.138 723.346 122.761 717.709 138.264C731.601 128.801 747.103 113.399 764.217 92.058C781.531 70.7167 794.517 51.6907 803.175 34.98ZM713.179 150.344C710.763 157.189 709.454 161.82 709.253 164.236C709.051 166.451 708.951 169.571 708.951 173.598C708.951 177.423 709.957 180.947 711.971 184.168C715.393 189.604 721.131 190.007 729.185 185.376C735.225 182.155 742.875 176.316 752.137 167.86C761.398 159.203 768.545 151.351 773.579 144.304C773.981 143.7 774.585 143.398 775.391 143.398C777.203 143.398 777.706 144.707 776.901 147.324C773.881 152.76 768.243 159.706 759.989 168.162C751.935 176.618 744.587 183.363 737.943 188.396C731.299 193.228 724.655 195.644 718.011 195.644C702.709 195.644 695.059 188.195 695.059 173.296C695.059 172.692 695.059 172.088 695.059 171.484C695.864 157.391 703.011 136.15 716.501 107.762C729.99 79.1727 742.171 57.63 753.043 43.134L762.405 31.356C764.619 28.7387 767.841 25.5173 772.069 21.692C780.122 14.0413 788.377 10.216 796.833 10.216C805.49 10.216 811.329 12.8333 814.349 18.068C815.355 19.88 815.859 22.4973 815.859 25.92C815.859 29.3427 814.349 34.1747 811.329 40.416C790.591 76.4547 757.875 113.097 713.179 150.344ZM874.251 34.98C876.667 30.5507 877.875 27.128 877.875 24.712C877.875 20.484 876.164 18.37 872.741 18.37C869.922 18.37 866.399 19.9807 862.171 23.202C846.064 35.6847 830.461 55.4153 815.361 82.394C803.281 104.138 794.422 122.761 788.785 138.264C802.677 128.801 818.18 113.399 835.293 92.058C852.608 70.7167 865.594 51.6907 874.251 34.98ZM784.255 150.344C781.839 157.189 780.53 161.82 780.329 164.236C780.128 166.451 780.027 169.571 780.027 173.598C780.027 177.423 781.034 180.947 783.047 184.168C786.47 189.604 792.208 190.007 800.261 185.376C806.301 182.155 813.952 176.316 823.213 167.86C832.474 159.203 839.622 151.351 844.655 144.304C845.058 143.7 845.662 143.398 846.467 143.398C848.279 143.398 848.782 144.707 847.977 147.324C844.957 152.76 839.32 159.706 831.065 168.162C823.012 176.618 815.663 183.363 809.019 188.396C802.375 193.228 795.731 195.644 789.087 195.644C773.786 195.644 766.135 188.195 766.135 173.296C766.135 172.692 766.135 172.088 766.135 171.484C766.94 157.391 774.088 136.15 787.577 107.762C801.066 79.1727 813.247 57.63 824.119 43.134L833.481 31.356C835.696 28.7387 838.917 25.5173 843.145 21.692C851.198 14.0413 859.453 10.216 867.909 10.216C876.566 10.216 882.405 12.8333 885.425 18.068C886.432 19.88 886.935 22.4973 886.935 25.92C886.935 29.3427 885.425 34.1747 882.405 40.416C861.668 76.4547 828.951 113.097 784.255 150.344ZM843.553 192.02C840.936 195.04 840.332 197.456 841.741 199.268C843.352 201.08 845.063 201.986 846.875 201.986C848.888 201.986 850.902 201.684 852.915 201.08C861.572 198.463 869.928 193.329 877.981 185.678C886.236 177.826 890.363 169.873 890.363 161.82C890.363 157.391 885.43 152.559 875.565 147.324C870.934 144.908 868.317 143.499 867.713 143.096C862.277 139.472 858.854 135.848 857.445 132.224C854.626 137.056 850.096 144.002 843.855 153.062C842.446 154.673 841.137 155.075 839.929 154.27C838.721 153.263 838.62 151.955 839.627 150.344C847.882 139.069 853.318 129.607 855.935 121.956C857.344 110.883 865.398 100.917 880.095 92.058C894.792 83.1993 908.181 78.77 920.261 78.77C927.912 78.77 933.247 80.1793 936.267 82.998C939.488 85.6153 941.099 88.2327 941.099 90.85C941.099 93.4673 940.294 96.4873 938.683 99.91C937.274 103.333 934.254 106.554 929.623 109.574C928.415 110.379 927.408 110.178 926.603 108.97C926.2 107.762 927.006 106.151 929.019 104.138C931.234 101.923 932.643 99.004 933.247 95.38C933.851 91.756 932.24 89.5413 928.415 88.736C927.811 88.736 927.207 88.736 926.603 88.736C918.751 88.736 908.886 91.6553 897.007 97.494C885.33 103.333 876.169 110.883 869.525 120.144C866.908 123.567 865.599 127.09 865.599 130.714C865.599 134.137 868.015 137.257 872.847 140.076C874.86 141.284 878.283 143.197 883.115 145.814C887.947 148.431 891.37 150.344 893.383 151.552C895.396 152.76 897.812 154.673 900.631 157.29C903.45 159.907 904.96 162.323 905.161 164.538C906.168 170.578 903.349 177.222 896.705 184.47C887.242 194.939 873.149 202.288 854.425 206.516C850.197 207.523 845.868 208.026 841.439 208.026C837.211 208.026 834.292 206.415 832.681 203.194C832.077 202.389 831.775 201.08 831.775 199.268C831.775 197.657 833.386 194.939 836.607 191.114C839.627 188.094 844.459 185.175 851.103 182.356C851.707 182.155 852.21 182.255 852.613 182.658C853.016 183.061 853.116 183.564 852.915 184.168C852.714 184.772 851.606 185.477 849.593 186.282C847.781 187.087 845.768 189 843.553 192.02Z" fill="black"/>
<path d="M103.75 148.969C103.75 140.812 103.328 133.172 102.484 126.047C101.641 118.828 100.281 112.547 98.4062 107.203C96.5312 101.766 94.1406 97.5 91.2344 94.4062C88.3281 91.2188 84.8125 89.625 80.6875 89.625C77.5 89.625 74.7812 90.4219 72.5312 92.0156C70.375 93.5156 68.5938 95.25 67.1875 97.2188C65.7812 99.1875 64.75 101.156 64.0938 103.125C63.4375 105 63.1094 106.266 63.1094 106.922V148.969C63.1094 169.406 64.7969 184.266 68.1719 193.547C71.6406 202.828 76.7031 207.469 83.3594 207.469C90.3906 207.469 95.5469 202.734 98.8281 193.266C102.109 183.797 103.75 169.031 103.75 148.969ZM19.9375 24.9375C19.9375 22.2188 19.2812 19.875 17.9688 17.9062C16.75 15.8437 14.6406 14.8125 11.6406 14.8125C10.0469 14.8125 8.64062 15.0938 7.42188 15.6562C6.29688 16.125 5.07812 16.875 3.76562 17.9062L0.953125 14.5312C3.10938 12.75 5.5 11.0156 8.125 9.32812C10.8438 7.54687 13.75 6 16.8438 4.6875C19.9375 3.375 23.2656 2.29688 26.8281 1.45312C30.3906 0.609375 34.1406 0.1875 38.0781 0.1875C43.5156 0.1875 47.875 1.03125 51.1562 2.71875C54.5312 4.3125 57.0625 6.32813 58.75 8.76562C60.5312 11.1094 61.7031 13.6875 62.2656 16.5C62.8281 19.2187 63.1094 21.75 63.1094 24.0938V86.8125C64.2344 85.7812 65.6875 84.5156 67.4688 83.0156C69.25 81.4219 71.5 79.875 74.2188 78.375C76.9375 76.875 80.1719 75.6094 83.9219 74.5781C87.7656 73.5469 92.2656 73.0312 97.4219 73.0312C103.422 73.0312 109.422 74.4375 115.422 77.25C121.422 79.9688 126.812 84.2812 131.594 90.1875C136.375 96.0938 140.266 103.688 143.266 112.969C146.266 122.25 147.766 133.406 147.766 146.438C147.766 156.656 146.359 166.312 143.547 175.406C140.828 184.5 136.75 192.469 131.312 199.312C125.875 206.062 119.078 211.406 110.922 215.344C102.766 219.281 93.2969 221.25 82.5156 221.25C70.7969 221.25 60.9062 219.375 52.8438 215.625C44.875 211.781 38.4531 206.672 33.5781 200.297C28.7031 193.828 25.1875 186.328 23.0312 177.797C20.9688 169.266 19.9375 160.266 19.9375 150.797V24.9375ZM219.906 206.344C219.906 207.562 219.672 209.062 219.203 210.844C218.828 212.531 217.844 214.172 216.25 215.766C214.75 217.266 212.547 218.531 209.641 219.562C206.734 220.688 202.797 221.25 197.828 221.25C192.859 221.25 188.969 220.641 186.156 219.422C183.344 218.297 181.234 216.938 179.828 215.344C178.422 213.75 177.531 212.109 177.156 210.422C176.875 208.734 176.734 207.375 176.734 206.344V97.7812C176.734 95.0625 176.078 92.7188 174.766 90.75C173.547 88.6875 171.438 87.6562 168.438 87.6562C166.844 87.6562 165.484 87.9375 164.359 88.5C163.234 89.0625 162.016 89.8594 160.703 90.8906L157.75 87.375C159.906 85.5938 162.297 83.8594 164.922 82.1719C167.641 80.3906 170.547 78.8438 173.641 77.5312C176.734 76.2188 180.062 75.1406 183.625 74.2969C187.188 73.4531 190.938 73.0312 194.875 73.0312C200.969 73.0312 205.703 73.875 209.078 75.5625C212.453 77.1562 214.938 79.1719 216.531 81.6094C218.125 83.9531 219.062 86.4844 219.344 89.2031C219.719 91.9219 219.906 94.3125 219.906 96.375V206.344ZM172.375 40.9688C172.375 38.3437 172.938 35.8594 174.062 33.5156C175.281 31.0781 176.922 28.9688 178.984 27.1875C181.141 25.4062 183.578 24 186.297 22.9688C189.109 21.9375 192.156 21.4219 195.438 21.4219C198.625 21.4219 201.578 21.9375 204.297 22.9688C207.109 24 209.547 25.4062 211.609 27.1875C213.672 28.9688 215.266 31.0781 216.391 33.5156C217.609 35.8594 218.219 38.3437 218.219 40.9688C218.219 43.6875 217.609 46.2187 216.391 48.5625C215.266 50.9063 213.672 52.9687 211.609 54.75C209.547 56.4375 207.109 57.7969 204.297 58.8281C201.578 59.8594 198.625 60.375 195.438 60.375C192.156 60.375 189.109 59.8594 186.297 58.8281C183.578 57.7969 181.141 56.4375 178.984 54.75C176.922 52.9687 175.281 50.9063 174.062 48.5625C172.938 46.2187 172.375 43.6875 172.375 40.9688ZM259.562 197.625C259.562 194.344 260.172 191.25 261.391 188.344C262.609 185.438 264.25 182.906 266.312 180.75C268.469 178.594 270.953 176.906 273.766 175.688C276.672 174.375 279.812 173.719 283.188 173.719C286.469 173.719 289.562 174.375 292.469 175.688C295.375 176.906 297.906 178.594 300.062 180.75C302.219 182.906 303.906 185.438 305.125 188.344C306.438 191.25 307.094 194.344 307.094 197.625C307.094 201 306.438 204.141 305.125 207.047C303.906 209.859 302.219 212.344 300.062 214.5C297.906 216.562 295.375 218.203 292.469 219.422C289.562 220.641 286.469 221.25 283.188 221.25C279.812 221.25 276.672 220.641 273.766 219.422C270.953 218.203 268.469 216.562 266.312 214.5C264.25 212.344 262.609 209.859 261.391 207.047C260.172 204.141 259.562 201 259.562 197.625ZM259.562 102.703C259.562 99.3281 260.172 96.1875 261.391 93.2812C262.609 90.375 264.25 87.8438 266.312 85.6875C268.469 83.5312 270.953 81.8438 273.766 80.625C276.672 79.4062 279.812 78.7969 283.188 78.7969C286.469 78.7969 289.562 79.4062 292.469 80.625C295.375 81.8438 297.906 83.5312 300.062 85.6875C302.219 87.8438 303.906 90.375 305.125 93.2812C306.438 96.1875 307.094 99.3281 307.094 102.703C307.094 105.984 306.438 109.078 305.125 111.984C303.906 114.891 302.219 117.422 300.062 119.578C297.906 121.641 295.375 123.281 292.469 124.5C289.562 125.719 286.469 126.328 283.188 126.328C279.812 126.328 276.672 125.719 273.766 124.5C270.953 123.281 268.469 121.641 266.312 119.578C264.25 117.422 262.609 114.891 261.391 111.984C260.172 109.078 259.562 105.984 259.562 102.703ZM391.891 85.125V189.047C391.891 194.016 392.828 197.484 394.703 199.453C396.578 201.328 399.156 202.266 402.438 202.266C404.969 202.266 407.219 201.562 409.188 200.156C411.156 198.75 412.844 197.156 414.25 195.375C415.938 193.406 417.391 191.109 418.609 188.484L422.969 190.453C421.562 193.453 419.875 196.734 417.906 200.297C416.031 203.859 413.5 207.188 410.312 210.281C407.125 213.281 403.094 215.812 398.219 217.875C393.438 219.938 387.391 220.969 380.078 220.969C375.953 220.969 371.969 220.359 368.125 219.141C364.375 217.922 361 216 358 213.375C355.094 210.75 352.75 207.469 350.969 203.531C349.188 199.594 348.297 194.859 348.297 189.328V85.125H332.547V75C335.172 75 338.828 74.3437 343.516 73.0312C348.203 71.625 352.984 69.3281 357.859 66.1406C362.828 62.9531 367.422 58.6875 371.641 53.3438C375.859 48 378.859 41.3906 380.641 33.5156H391.891V75H414.812C422.312 75 426.062 73.7344 426.062 71.2031C426.062 70.2656 425.594 69.6562 424.656 69.375C423.719 69 422.641 68.5781 421.422 68.1094C420.297 67.5469 419.266 66.7969 418.328 65.8594C417.391 64.9219 416.922 63.375 416.922 61.2188C416.922 58.5937 417.719 56.5313 419.312 55.0312C421 53.5312 423.156 52.7812 425.781 52.7812C427.469 52.7812 428.922 53.1563 430.141 53.9062C431.453 54.5625 432.531 55.5 433.375 56.7188C434.219 57.8438 434.828 59.1562 435.203 60.6562C435.672 62.1563 435.906 63.6562 435.906 65.1562C435.906 71.25 434.125 76.125 430.562 79.7812C427.094 83.3438 421.469 85.125 413.688 85.125H391.891Z" fill="black"/>
<path d="M288.301 222.502C288.204 222.486 288 222.517 287.856 222.579C287.701 222.645 287.569 222.656 287.549 222.608C287.532 222.569 287.33 222.576 287.096 222.642C286.647 222.766 285.154 222.927 285.036 222.864C284.994 222.847 284.825 222.851 284.655 222.879C284.474 222.911 283.953 222.918 283.489 222.9C283.025 222.882 282.597 222.894 282.549 222.915C282.491 222.94 282.436 222.918 282.415 222.87C282.395 222.821 282.26 222.799 282.113 222.828C281.961 222.848 281.826 222.826 281.806 222.777C281.781 222.72 281.716 222.702 281.659 222.727C281.398 222.838 279.601 222.343 278.234 221.788C277.409 221.458 276.232 221.028 275.614 220.836C275 220.655 274.47 220.483 274.429 220.466C274.388 220.45 273.996 220.333 273.551 220.227C272.644 220 271.693 219.723 271.178 219.534C270.99 219.466 270.763 219.415 270.664 219.424C270.565 219.432 270.046 219.153 269.494 218.796C268.946 218.449 268.389 218.107 268.243 218.033C268.091 217.972 267.961 217.88 267.944 217.841C267.928 217.803 267.846 217.746 267.769 217.7C267.198 217.431 264.817 215.601 264.714 215.36C264.677 215.274 264.206 214.814 263.91 214.576C263.821 214.5 263.569 214.152 263.346 213.792C263.123 213.431 262.872 213.06 262.779 212.974C262.517 212.71 261.555 211.184 260.894 209.962C260.056 208.406 258.21 204.1 257.962 203.123C257.768 202.351 257.611 201.266 257.658 201.029C257.676 200.965 257.643 200.648 257.604 200.345C257.552 200.037 257.539 199.769 257.588 199.748C257.626 199.732 257.636 199.648 257.603 199.571C257.57 199.494 257.546 199.333 257.553 199.216C257.564 199.108 257.597 198.387 257.623 197.623C257.659 196.855 257.707 196.196 257.723 196.155C257.74 196.114 257.774 195.928 257.781 195.731C257.792 195.544 257.822 195.348 257.839 195.307C257.855 195.266 257.915 194.898 257.977 194.484C258.034 194.06 258.111 193.708 258.159 193.687C258.208 193.667 258.232 193.565 258.225 193.442C258.213 193.334 258.241 193.105 258.293 192.935C258.345 192.764 258.399 192.57 258.413 192.496C258.52 192.107 259.063 190.449 259.278 189.912C260.212 187.516 261.865 184.721 263.411 182.929C263.663 182.639 263.88 182.374 263.897 182.333C263.913 182.292 264.046 182.121 264.191 181.956C265.267 180.742 265.556 180.459 265.983 180.15C266.247 179.968 266.451 179.779 266.434 179.74C266.418 179.701 266.527 179.609 266.681 179.543C266.844 179.473 266.972 179.373 266.981 179.312C266.993 179.261 267.166 179.107 267.362 178.978C267.766 178.724 268.157 177.907 268.025 177.598C267.984 177.502 267.977 177.38 268.003 177.334C268.039 177.285 267.96 176.862 267.834 176.381C267.661 175.713 267.525 175.395 267.253 174.999C266.851 174.407 266.2 173.74 265.901 173.628C265.791 173.584 265.596 173.474 265.455 173.386C265.324 173.294 265.173 173.234 265.125 173.254C265.086 173.271 264.788 173.239 264.477 173.179C264.054 173.097 263.724 173.125 263.171 173.271C262.765 173.388 262.289 173.501 262.1 173.513C261.916 173.535 260.637 174.038 259.25 174.632C257.863 175.227 256.71 175.676 256.693 175.637C256.672 175.589 256.114 175.749 255.452 175.987C254.78 176.229 254.048 176.463 253.82 176.516C253.169 176.646 252.336 176.753 252.254 176.72C252.181 176.682 251.056 176.799 250.619 176.896C250.471 176.925 250.254 176.95 250.127 176.947C250.005 176.954 249.216 177.189 248.369 177.473C247.525 177.766 246.756 177.993 246.653 177.992C246.545 177.981 246.17 178.062 245.81 178.182C245.457 178.288 245.1 178.361 245.03 178.357C244.965 178.339 244.643 178.386 244.326 178.442C243.456 178.621 242.817 178.701 242.418 178.701C242.221 178.694 242.004 178.719 241.927 178.752C241.859 178.781 241.661 178.797 241.484 178.782C241.306 178.767 241.028 178.784 240.848 178.815C240.668 178.847 240.504 178.837 240.483 178.789C240.463 178.741 240.379 178.731 240.302 178.765C240.138 178.835 239.179 178.778 239.095 178.689C239.059 178.659 238.975 178.649 238.908 178.678C238.802 178.723 238.064 178.572 237.293 178.344C236.55 178.126 235.06 177.443 234.216 176.938C233.2 176.324 232.87 176.112 232.303 175.694C232.015 175.475 231.73 175.289 231.689 175.273C231.638 175.26 231.385 175.095 231.119 174.901C230.844 174.711 230.505 174.48 230.357 174.373C230.203 174.279 230.018 174.142 229.947 174.081C229.865 174.025 229.455 173.733 229.026 173.45C228.596 173.166 227.914 172.718 227.522 172.441C225.914 171.351 225.558 171.105 225.402 171.035C225.311 170.982 224.935 170.665 224.567 170.31C224.198 169.955 223.825 169.59 223.731 169.505C223.647 169.415 223.306 168.991 222.989 168.545C222.52 167.903 222.271 167.428 221.672 166.031C221.267 165.087 220.882 164.055 220.806 163.746C220.427 162.118 220.173 160.699 220.221 160.518C220.239 160.454 220.207 160.114 220.142 159.777C220.078 159.439 220.049 159.133 220.084 159.083C220.111 159.038 220.104 158.915 220.058 158.809C220.017 158.713 220.018 158.61 220.057 158.593C220.105 158.572 220.093 158.304 220.044 158.005C220.002 157.693 219.973 157.386 219.977 157.316C219.995 157.251 220.011 156.731 220.007 156.163C220.011 154.736 220.144 153.823 220.442 153.08C220.739 152.337 221.01 151.799 221.116 151.753C221.154 151.737 221.268 151.551 221.365 151.35C221.972 150.132 222.155 149.734 222.281 149.418C222.653 148.529 223.868 146.468 224.07 146.382C224.108 146.365 224.195 146.248 224.258 146.13C224.432 145.816 225.433 144.509 225.743 144.193C225.883 144.042 225.981 143.897 225.96 143.849C225.94 143.801 225.971 143.742 226.039 143.713C226.097 143.688 226.193 143.567 226.241 143.467C226.311 143.311 226.72 143.067 227.701 142.59C228.455 142.221 229.11 141.86 229.153 141.774C229.274 141.551 235.734 138.77 235.892 138.873C235.951 138.905 236.324 138.87 236.705 138.775C237.1 138.686 237.508 138.625 237.611 138.627C237.962 138.647 238.37 138.643 238.65 138.603C238.896 138.566 239.437 138.551 240.314 138.574C240.51 138.581 240.709 138.564 240.766 138.54C240.815 138.519 241.091 138.526 241.386 138.548C241.671 138.574 242.027 138.581 242.178 138.561C242.67 138.51 246.209 138.761 246.396 138.851C246.438 138.868 246.661 138.909 246.885 138.927C247.888 139.033 250.474 139.772 251.249 140.169C251.509 140.297 251.925 140.495 252.181 140.614C252.446 140.728 252.77 140.897 252.896 140.98C253.023 141.062 253.345 141.255 253.604 141.406C254.216 141.771 255.271 142.528 255.324 142.653C255.349 142.711 255.403 142.756 255.459 142.755C255.699 142.755 257.463 144.53 257.826 145.138C257.989 145.41 258.171 145.675 258.23 145.706C258.303 145.743 258.462 145.983 258.593 146.235C259.606 148.092 260.577 149.797 260.82 150.126C261.261 150.701 262.537 153.518 262.775 154.42C262.877 154.844 263.093 155.64 263.244 156.18C263.521 157.224 263.707 158.137 263.713 158.522C263.719 158.645 263.781 159.029 263.86 159.371C263.938 159.714 264 160.098 263.998 160.224C263.996 160.567 264.12 161.335 264.298 162.069C264.39 162.417 264.419 162.724 264.38 162.74C264.342 162.757 264.441 163.147 264.597 163.617C264.752 164.086 264.854 164.51 264.818 164.559C264.732 164.676 266.012 167.663 266.177 167.729C266.25 167.766 266.696 168.646 267.179 169.694C268.105 171.748 267.98 171.562 269.472 173.101C269.56 173.2 269.6 173.16 269.662 172.905C269.71 172.725 269.721 172.458 269.684 172.292C269.661 172.131 269.679 171.986 269.727 171.966C269.775 171.945 269.793 171.88 269.768 171.822C269.702 171.668 269.867 169.18 269.986 168.581C270.046 168.294 270.084 168.038 270.068 167.999C270.026 167.903 270.515 165.424 270.659 165.043C270.704 164.91 270.732 164.761 270.715 164.722C270.695 164.674 270.718 164.516 270.765 164.359C270.806 164.216 270.872 163.971 270.9 163.822C270.997 163.279 271.289 162.23 271.354 162.168C271.384 162.132 271.389 162.039 271.36 161.971C271.327 161.894 271.344 161.773 271.395 161.706C271.436 161.642 271.524 161.342 271.583 161.055C271.638 160.758 271.724 160.504 271.762 160.488C271.81 160.467 271.824 160.393 271.799 160.335C271.77 160.268 271.817 160.031 271.891 159.805C272.054 159.359 272.3 158.364 272.407 157.737C272.449 157.514 272.512 157.316 272.56 157.295C272.608 157.274 272.63 157.219 272.605 157.161C272.539 157.007 272.831 155.799 273.096 155.115C273.234 154.771 273.611 154.028 273.926 153.459C274.717 152.06 275.32 150.832 275.976 149.33C276.383 148.392 277.058 146.985 277.128 146.91C277.168 146.87 277.272 146.688 277.359 146.491C277.446 146.294 277.86 145.558 278.277 144.855C278.694 144.152 279.069 143.512 279.101 143.452C279.163 143.357 280.126 141.907 280.491 141.374C280.568 141.261 280.698 141.114 280.782 141.044C280.852 140.968 280.905 140.877 280.888 140.839C280.872 140.8 280.949 140.687 281.062 140.605C281.184 140.518 281.311 140.361 281.349 140.265C281.388 140.169 281.9 139.527 282.484 138.843C283.065 138.149 283.551 137.554 283.544 137.511C283.543 137.454 283.588 137.401 283.646 137.376C283.694 137.355 283.909 137.138 284.12 136.887C284.323 136.641 284.557 136.415 284.624 136.386C284.692 136.357 284.756 136.296 284.759 136.249C284.758 136.113 285.929 134.801 286.112 134.722C286.16 134.702 286.295 134.564 286.416 134.421C286.531 134.292 286.846 134.042 287.109 133.884C287.376 133.736 287.578 133.569 287.562 133.53C287.545 133.492 287.665 133.372 287.822 133.259C288.721 132.669 289.802 131.92 289.903 131.809C289.967 131.747 290.281 131.521 290.603 131.314C290.925 131.108 291.423 130.78 291.716 130.586C292.479 130.077 296.438 128.38 297.881 127.943C298.546 127.738 299.965 127.244 301.045 126.838C302.112 126.426 303.031 126.123 303.09 126.155C303.144 126.2 303.375 126.181 303.603 126.129C303.97 126.052 304.598 126.056 304.805 126.138C304.846 126.155 305.028 126.18 305.205 126.195C305.664 126.226 311.426 128.523 311.762 128.8C311.909 128.931 312.113 129.061 312.209 129.099C312.31 129.147 312.517 129.286 312.674 129.413C312.835 129.549 312.998 129.662 313.039 129.678C313.131 129.707 313.522 130.007 314.091 130.482C314.309 130.673 314.526 130.831 314.567 130.848C314.608 130.864 314.9 131.093 315.203 131.374C315.515 131.65 315.788 131.887 315.829 131.903C315.949 131.943 316.781 132.795 316.839 132.93C316.864 132.988 316.927 133.029 316.975 133.008C317.024 132.988 317.161 133.123 317.286 133.308C317.408 133.484 317.556 133.672 317.625 133.699C317.688 133.74 317.895 133.983 318.076 134.247C318.268 134.507 318.495 134.797 318.579 134.887C319.293 135.595 319.688 136.304 320.806 138.778C322.089 141.638 322.878 143.957 322.925 144.997C322.932 145.12 323.042 145.642 323.157 146.152C323.497 147.557 323.595 148.131 323.502 148.205C323.452 148.249 323.438 148.323 323.463 148.381C323.484 148.429 323.469 148.607 323.436 148.769C323.389 148.926 323.331 149.19 323.304 149.339C323.276 149.488 323.205 149.746 323.148 149.907C323.092 150.068 322.991 150.419 322.918 150.701C322.851 150.97 322.7 151.388 322.602 151.612C322.499 151.851 322.429 152.086 322.449 152.134C322.486 152.221 322.277 153.223 322.096 153.836C321.867 154.607 321.42 155.586 320.779 156.75C320.617 157.036 320.421 157.405 320.332 157.569C319.769 158.597 319.105 159.68 318.754 160.138C318.41 160.56 318.24 160.803 318.217 160.882C318.201 160.923 318.042 161.139 317.859 161.377C317.672 161.606 317.497 161.863 317.46 161.936C317.427 162.018 317.233 162.284 317.027 162.521C316.825 162.767 316.651 163.001 316.635 163.042C316.571 163.241 315.516 164.423 315.333 164.501C315.275 164.526 315.244 164.585 315.264 164.634C315.31 164.739 314.198 165.444 313.523 165.733C313.234 165.857 312.985 166.021 312.977 166.082C312.973 166.152 312.729 166.302 312.44 166.426C312.151 166.55 311.918 166.695 311.909 166.756C311.897 166.807 311.428 167.122 310.859 167.446C310.291 167.769 309.787 168.11 309.735 168.201C309.608 168.438 305.857 170.035 305.473 170.017C305.323 170.013 304.835 170.097 304.392 170.207C303.953 170.327 303.555 170.383 303.509 170.357C303.46 170.321 303.318 170.336 303.193 170.39C303.068 170.444 302.926 170.459 302.876 170.423C302.817 170.392 302.448 170.436 302.053 170.525C301.649 170.619 301.313 170.66 301.292 170.612C301.276 170.573 301.153 170.58 301.028 170.634C300.73 170.762 299.218 170.908 298.497 170.875C297.35 170.831 296.857 170.826 296.741 170.875C296.684 170.9 296.623 170.892 296.606 170.853C296.586 170.805 296.268 170.782 295.892 170.783C295.516 170.785 295.199 170.761 295.182 170.723C295.161 170.675 295.091 170.67 295.033 170.695C294.966 170.724 294.548 170.732 294.093 170.71C292.918 170.656 292.219 170.647 292.103 170.697C292.046 170.722 291.981 170.704 291.956 170.646C291.936 170.598 291.857 170.574 291.799 170.599C291.728 170.618 291.464 170.641 291.206 170.625C290.949 170.61 290.704 170.624 290.661 170.631C290.613 170.652 290.242 170.663 289.825 170.648C289.421 170.638 288.966 170.639 288.819 170.668C288.681 170.693 288.546 170.671 288.525 170.623C288.505 170.575 288.411 170.569 288.315 170.611C288.218 170.652 288.04 170.66 287.905 170.638C287.766 170.607 287.559 170.604 287.441 170.62C287.323 170.637 287.124 170.653 287.002 170.66C286.823 170.669 286.845 170.693 287.108 170.775C287.288 170.823 287.493 170.849 287.561 170.82C287.696 170.762 288.146 170.774 289.322 170.886C289.752 170.93 290.331 170.978 290.625 171C290.92 171.022 291.19 171.066 291.22 171.11C291.256 171.14 291.336 171.14 291.403 171.111C291.47 171.082 291.662 171.103 291.832 171.155C292.003 171.207 292.175 171.236 292.233 171.212C292.281 171.191 292.565 171.24 292.856 171.309C293.143 171.392 293.462 171.472 293.564 171.496C294.267 171.674 296.743 172.768 296.821 172.951C296.834 172.979 296.993 173.059 297.182 173.127C297.37 173.194 297.538 173.293 297.559 173.341C297.58 173.389 297.873 173.595 298.205 173.783C298.536 173.972 298.838 174.196 298.867 174.263C298.895 174.331 298.959 174.372 299.007 174.351C299.161 174.285 301.934 176.631 302.066 176.94C302.1 177.017 302.179 177.096 302.248 177.124C302.431 177.205 302.993 178.036 303.208 178.537C303.311 178.778 303.442 178.95 303.49 178.929C303.548 178.905 303.706 179.167 303.867 179.543C304.024 179.909 304.493 180.871 304.914 181.694C305.728 183.272 307.318 187.38 307.217 187.651C307.19 187.72 307.25 187.968 307.348 188.222C307.652 188.959 308.3 191.692 308.184 191.741C308.145 191.758 308.161 191.979 308.235 192.233C308.296 192.48 308.323 192.731 308.287 192.78C308.261 192.826 308.276 193.047 308.329 193.276C308.381 193.504 308.398 193.702 308.349 193.723C308.311 193.739 308.309 193.923 308.359 194.118C308.399 194.317 308.398 194.501 308.349 194.521C308.292 194.546 308.286 194.64 308.323 194.726C308.394 194.89 308.377 195.889 308.308 196.021C308.282 196.067 308.27 196.277 308.29 196.485C308.302 196.697 308.291 197.044 308.251 197.243C308.225 197.448 308.192 197.77 308.181 197.958C308.174 198.154 308.116 198.498 308.06 198.739C308.003 198.98 307.97 199.222 307.987 199.261C308.024 199.348 307.978 199.561 307.575 201.307C307.177 202.984 306.359 205.307 305.704 206.545C305.541 206.855 305.316 207.316 305.213 207.554C305.106 207.783 304.982 208.052 304.935 208.129C304.883 208.22 304.71 208.534 304.556 208.84C304.397 209.135 304.217 209.407 304.15 209.435C304.092 209.46 304.064 209.529 304.085 209.577C304.11 209.635 304.035 209.781 303.92 209.91C303.79 210.034 303.635 210.283 303.55 210.457C303.469 210.64 303.365 210.798 303.308 210.823C303.25 210.848 303.071 211.095 302.904 211.372C302.724 211.643 302.215 212.317 301.771 212.85C301.316 213.387 300.937 213.858 300.92 213.899C300.832 214.119 299.218 215.86 298.891 216.08C298.724 216.197 298.575 216.329 298.563 216.38C298.533 216.496 297.786 217.147 297.404 217.402C297.234 217.509 297.022 217.68 296.937 217.773C296.626 218.112 294.329 219.564 293.601 219.888C293.379 219.982 293.188 220.122 293.18 220.182C293.176 220.252 292.932 220.402 292.643 220.526C292.354 220.65 292.115 220.81 292.106 220.87C292.083 221.029 288.548 222.544 288.301 222.502ZM294.511 215.654C294.554 215.568 294.849 215.35 295.169 215.167C295.48 214.988 295.725 214.815 295.709 214.776C295.692 214.738 295.963 214.519 296.3 214.294C296.647 214.066 296.904 213.841 296.884 213.793C296.863 213.745 296.904 213.682 296.981 213.649C297.059 213.616 297.217 213.48 297.338 213.336C298.707 211.769 298.952 211.436 299.234 210.79C299.645 209.861 299.808 207.819 299.536 207L299.36 206.483L299.044 206.755C298.856 206.904 298.706 207.059 298.69 207.101C298.656 207.207 297.413 208.218 297.22 208.301C297.134 208.338 297.054 208.338 297.033 208.29C297.017 208.251 296.887 208.216 296.751 208.217C296.611 208.209 296.45 208.152 296.378 208.092C296.306 208.031 296.159 207.901 296.052 207.81C295.931 207.713 295.817 207.58 295.783 207.503C295.75 207.426 295.625 207.32 295.492 207.274C295.24 207.166 295.046 207.272 294.151 208.032C293.776 208.352 293.459 208.545 293.221 208.601C292.855 208.678 292.186 208.475 291.395 208.039C290.7 207.641 290.438 207.856 289.839 209.276C289.545 209.949 289.288 210.333 289.067 210.428C288.951 210.478 288.885 210.563 288.906 210.611C288.93 210.669 288.754 210.79 288.513 210.893C288.273 210.997 288.063 211.041 288.039 210.983C288.018 210.935 287.93 210.915 287.853 210.948C287.776 210.981 287.507 210.994 287.26 210.975C287.002 210.959 286.733 210.995 286.662 211.071C286.478 211.253 286.488 211.807 286.679 212.626C286.774 213.007 286.824 213.362 286.788 213.412C286.752 213.461 286.755 213.574 286.796 213.671C286.891 213.892 286.803 214.831 286.663 215.142C286.6 215.26 286.388 215.511 286.184 215.701C285.857 216.001 285.77 216.038 285.265 216.083C284.968 216.108 284.582 216.114 284.418 216.104C284.255 216.094 284.076 216.103 284.018 216.127C283.816 216.214 283.792 216.772 283.966 217.176C284.114 217.523 284.249 217.625 285.116 218.051C285.65 218.313 286.22 218.525 286.403 218.526C286.577 218.531 286.729 218.569 286.75 218.617C286.767 218.655 286.95 218.657 287.149 218.617C287.345 218.567 287.528 218.568 287.548 218.617C287.627 218.8 294.359 215.936 294.511 215.654ZM308.677 166.557C308.737 166.485 309.268 166.155 309.846 165.827C310.428 165.509 310.979 165.171 311.064 165.077C311.149 164.984 311.452 164.785 311.725 164.623C312.414 164.236 312.521 164.008 312.265 163.57C312.035 163.167 311.23 162.087 310.995 161.857C310.901 161.772 310.545 161.366 310.204 160.942C309.857 160.532 309.526 160.16 309.463 160.119C309.404 160.087 309.13 159.794 308.844 159.472C308.562 159.16 308.222 158.792 308.084 158.657C307.95 158.532 307.61 158.165 307.334 157.839C307.071 157.518 306.771 157.191 306.676 157.129C306.586 157.053 306.486 156.925 306.453 156.848C306.42 156.771 306.352 156.72 306.314 156.737C306.266 156.757 306.055 156.505 305.825 156.182C305.601 155.845 305.361 155.526 305.29 155.465C305.035 155.243 304.624 154.736 304.187 154.09C303.232 152.687 303.015 152.392 302.927 152.373C302.885 152.356 302.68 152.091 302.474 151.769C301.269 149.891 299.71 148.221 298.826 147.836C298.506 147.7 298.374 147.711 297.921 147.905C297.632 148.029 297.379 148.183 297.351 148.252C297.314 148.325 297.072 148.531 296.808 148.713C295.815 149.378 295.271 149.782 295.203 149.891C295.167 149.941 294.932 150.11 294.679 150.264C294.435 150.414 294.204 150.593 294.163 150.656C294.131 150.716 293.744 150.984 293.311 151.25C292.868 151.519 292.533 151.777 292.55 151.815C292.567 151.854 292.443 151.964 292.291 152.063C291.39 152.621 290.489 153.338 290.37 153.594C290.253 153.826 290.266 153.935 290.434 154.194C290.551 154.36 290.695 154.538 290.754 154.569C290.827 154.607 291.028 154.862 291.214 155.136C291.547 155.621 292.655 156.662 292.78 156.609C292.809 156.596 293.031 156.741 293.258 156.951C293.481 157.152 293.731 157.364 293.803 157.425C293.875 157.485 294.099 157.743 294.286 157.993C294.479 158.23 294.665 158.424 294.713 158.403C294.751 158.387 294.823 158.447 294.864 158.543C294.901 158.63 295.378 159.076 295.918 159.54C296.455 159.994 296.931 160.44 296.973 160.536C297.014 160.632 297.076 160.697 297.124 160.676C297.211 160.639 297.815 161.224 298.074 161.615C298.183 161.762 298.302 161.882 298.35 161.861C298.399 161.84 298.458 161.872 298.487 161.939C298.557 162.103 299.485 162.857 299.571 162.82C299.61 162.804 299.665 162.826 299.685 162.874C299.71 162.932 300.328 163.362 301.074 163.852C301.816 164.332 302.512 164.786 302.625 164.863C302.734 164.931 302.938 165.06 303.084 165.134C303.224 165.222 303.355 165.315 303.371 165.353C303.384 165.382 303.655 165.562 303.986 165.751C304.308 165.944 304.702 166.197 304.855 166.314C305.2 166.587 305.511 166.808 305.608 166.846C305.649 166.863 305.88 167.003 306.116 167.153C306.355 167.313 306.672 167.439 306.812 167.447C307.083 167.468 308.474 166.803 308.677 166.557ZM303.344 168.216C303.278 168.062 300.467 165.788 299.816 165.361C299.573 165.191 299.353 165.023 299.332 164.975C299.315 164.937 299.252 164.895 299.196 164.897C299.05 164.902 297.204 163.47 297.13 163.297C297.093 163.21 297.009 163.12 296.926 163.087C296.857 163.06 296.64 162.765 296.466 162.441C296.279 162.11 296.085 161.817 296.022 161.776C295.963 161.744 295.781 161.56 295.623 161.377C295.474 161.19 295.141 160.865 294.9 160.649C294.659 160.433 294.438 160.209 294.409 160.141C294.359 160.026 293.733 159.416 293.423 159.172C293.338 159.106 293.167 158.895 293.042 158.709C292.805 158.343 292.336 157.94 292.22 157.989C292.182 158.006 292.077 157.948 292.003 157.854C291.929 157.761 291.78 157.653 291.697 157.62C291.463 157.527 289.936 156.198 289.504 155.721C289.314 155.518 289.003 155.298 288.824 155.226C288.497 155.104 288.488 155.108 288.053 155.477C287.811 155.683 287.442 155.967 287.223 156.095C287.018 156.228 286.831 156.377 286.832 156.433C286.82 156.484 286.618 156.651 286.384 156.797C286.146 156.933 285.934 157.104 285.893 157.167C285.861 157.226 285.536 157.479 285.189 157.708C284.833 157.94 284.556 158.173 284.573 158.212C284.589 158.25 284.481 158.342 284.327 158.408C284.163 158.479 284.035 158.579 284.022 158.63C284.014 158.69 283.714 158.922 283.362 159.164C283.006 159.397 282.667 159.644 282.601 159.73C282.49 159.869 282.037 160.222 281.321 160.734C281.105 160.895 280.823 161.142 280.683 161.293C280.552 161.441 280.403 161.573 280.346 161.597C280.297 161.618 280.153 161.76 280.042 161.899C279.92 162.042 279.747 162.196 279.66 162.233C279.564 162.275 279.508 162.356 279.528 162.404C279.553 162.462 279.473 162.542 279.358 162.591C279.184 162.665 279.38 162.776 280.376 163.158C281.598 163.615 283.705 164.354 284.241 164.512C284.702 164.656 286.271 165.204 287.933 165.837C288.801 166.16 289.699 166.471 289.907 166.53C290.12 166.575 290.322 166.648 290.348 166.683C290.388 166.723 290.458 166.727 290.516 166.702C290.603 166.665 290.844 166.721 291.583 166.929C291.675 166.958 291.769 166.963 291.798 166.951C291.855 166.926 292.36 167.04 293.606 167.339C294.194 167.486 294.616 167.807 294.81 168.259C294.876 168.413 295.036 168.573 295.169 168.618C295.515 168.733 298.454 168.886 298.666 168.796C298.734 168.767 298.798 168.785 298.815 168.823C298.832 168.862 299.075 168.871 299.364 168.827C299.648 168.797 299.935 168.776 300.004 168.804C300.078 168.817 300.305 168.789 300.524 168.74C300.733 168.696 300.945 168.685 300.991 168.711C301.04 168.747 301.267 168.718 301.515 168.658C301.753 168.601 302.013 168.57 302.078 168.587C302.3 168.652 303.394 168.331 303.344 168.216ZM315.203 161.832C315.187 161.793 315.326 161.585 315.509 161.347C315.692 161.109 315.827 160.892 315.81 160.853C315.789 160.805 315.825 160.755 315.873 160.735C315.931 160.71 316.062 160.563 316.161 160.395C316.264 160.236 316.594 159.73 316.903 159.279C317.211 158.827 317.52 158.352 317.593 158.23C317.662 158.098 317.808 157.933 317.921 157.85C318.02 157.762 318.092 157.663 318.071 157.615C318.054 157.576 318.203 157.284 318.4 156.972C318.591 156.673 318.924 156.04 319.125 155.578C319.335 155.111 319.532 154.719 319.561 154.707C319.599 154.69 319.627 154.541 319.627 154.382C319.635 154.162 319.524 153.901 319.152 153.274C318.892 152.827 318.64 152.479 318.592 152.499C318.553 152.516 318.461 152.407 318.395 152.253C318.325 152.089 318.224 151.961 318.173 151.949C318.113 151.941 317.915 151.718 317.719 151.448C317.524 151.178 317.255 150.871 317.116 150.76C316.977 150.648 316.845 150.5 316.816 150.432C316.787 150.365 316.695 150.256 316.606 150.181C316.52 150.114 316.233 149.816 315.968 149.519C315.704 149.221 315.412 148.913 315.319 148.828C315.235 148.738 314.895 148.371 314.578 148.005C314.252 147.643 313.922 147.272 313.828 147.186C313.735 147.101 313.585 146.937 313.498 146.815C313.319 146.584 312.862 146.129 312.606 145.931C312.521 145.865 312.354 145.663 312.243 145.483C312.122 145.307 311.988 145.181 311.95 145.198C311.911 145.214 311.731 145.007 311.539 144.746C311.348 144.486 311.14 144.268 311.08 144.259C311.015 144.241 310.935 144.162 310.898 144.075C310.851 143.992 310.667 143.775 310.47 143.609C310.273 143.442 310.105 143.263 310.079 143.229C310.063 143.19 309.977 143.124 309.9 143.077C309.813 143.035 309.618 142.925 309.45 142.826C309.286 142.736 308.89 142.61 308.569 142.553C307.938 142.436 307.292 142.633 306.849 143.063C306.729 143.182 306.007 143.572 305.245 143.921C304.486 144.281 303.798 144.644 303.713 144.738C303.628 144.831 302.986 145.197 302.298 145.561C300.501 146.502 300.571 146.427 300.962 147.126C301.141 147.437 301.397 147.795 301.54 147.916C301.679 148.027 301.838 148.21 301.887 148.326C301.933 148.432 302.015 148.545 302.07 148.567C302.135 148.584 302.315 148.792 302.486 149.004C302.651 149.23 302.966 149.619 303.167 149.875C303.378 150.127 303.745 150.585 303.99 150.891C304.226 151.2 304.472 151.482 304.531 151.514C304.585 151.559 304.767 151.824 304.937 152.115C305.104 152.398 305.279 152.619 305.317 152.603C305.365 152.582 305.522 152.788 305.68 153.051C305.835 153.304 306.022 153.555 306.081 153.586C306.144 153.628 306.341 153.874 306.523 154.138C306.828 154.612 307.097 154.918 307.625 155.433C307.753 155.572 307.956 155.805 308.064 155.952C308.168 156.113 308.315 156.244 308.375 156.252C308.44 156.27 308.52 156.35 308.557 156.436C308.594 156.523 308.735 156.691 308.874 156.802C309.013 156.914 309.211 157.137 309.324 157.294C309.511 157.544 309.869 157.927 310.244 158.244C310.316 158.305 310.531 158.566 310.718 158.817C310.911 159.054 311.096 159.248 311.135 159.231C311.174 159.214 311.263 159.29 311.346 159.403C311.659 159.816 312.566 160.761 313.005 161.12C313.26 161.342 313.483 161.543 313.495 161.572C313.512 161.61 313.768 161.808 314.075 162.019L314.631 162.385L314.927 162.144C315.095 162.004 315.216 161.86 315.203 161.832ZM286.412 170.64C286.206 170.614 285.926 170.597 285.774 170.616C285.491 170.647 284.917 170.665 284.373 170.647C283.943 170.626 283.109 170.676 282.791 170.732C282.653 170.757 282.532 170.741 282.516 170.702C282.499 170.664 282.125 170.721 281.691 170.827C281.248 170.938 280.808 171.001 280.706 170.976C280.437 170.909 276.059 172.797 275.971 173.018C275.866 173.279 276.184 173.382 276.685 173.247C276.923 173.191 277.992 172.812 279.063 172.41C280.133 172.008 281.082 171.693 281.16 171.717C281.248 171.736 281.628 171.664 282.011 171.546C282.393 171.427 282.798 171.334 282.891 171.339C282.999 171.35 283.431 171.268 283.85 171.156C284.576 170.959 285.097 170.872 285.609 170.87C285.858 170.865 286.54 170.779 286.688 170.726C286.75 170.711 286.621 170.675 286.412 170.64ZM285.544 167.26C284.19 166.734 282.642 166.155 282.098 165.978C281.564 165.796 280.515 165.425 279.771 165.151C279.036 164.873 278.322 164.643 278.195 164.64C278.078 164.634 277.958 164.594 277.938 164.546C277.847 164.334 277.247 164.876 277.075 165.326C277.002 165.528 276.603 166.167 276.535 166.196C276.507 166.208 276.407 166.376 276.326 166.559C276.245 166.742 276.094 167.001 275.982 167.14C275.876 167.265 275.779 167.41 275.762 167.451C275.709 167.645 274.864 169.079 274.787 169.112C274.738 169.133 274.671 169.241 274.641 169.357C274.597 169.467 274.355 169.913 274.075 170.352C273.806 170.787 273.595 171.174 273.616 171.222C273.698 171.415 274.158 171.263 277.111 170.066C280.103 168.851 280.916 168.594 281.222 168.748C281.267 168.774 281.493 168.769 281.73 168.736C282.374 168.642 283.146 168.607 283.297 168.668C283.366 168.696 283.508 168.68 283.623 168.631C283.739 168.581 283.941 168.574 284.08 168.606C284.209 168.642 284.392 168.643 284.469 168.61C284.547 168.577 284.825 168.56 285.082 168.576C285.339 168.591 285.594 168.573 285.656 168.558C285.723 168.529 285.926 168.522 286.103 168.537C286.29 168.548 286.512 168.533 286.589 168.5C286.67 168.476 286.868 168.46 287.036 168.479C287.204 168.498 287.489 168.445 287.676 168.376C288.004 168.235 287.972 168.215 285.544 167.26ZM320.915 150.443C321.058 150.085 321.23 149.555 321.289 149.268C321.344 148.97 321.424 148.651 321.458 148.545C321.492 148.439 321.536 148.01 321.542 147.597C321.557 147.18 321.573 146.739 321.58 146.622C321.591 146.515 321.418 145.871 321.189 145.205C320.975 144.545 320.809 143.92 320.834 143.818C320.921 143.541 320.398 142.374 320.091 142.164C319.946 142.066 319.759 141.895 319.663 141.777C319.518 141.6 318.603 141.194 317.85 140.981C317.476 140.879 315.702 140.624 315.606 140.666C315.557 140.686 315.427 140.674 315.33 140.635C314.898 140.479 313.522 140.726 312.297 141.194C311.13 141.638 311.086 141.668 311.238 141.808C311.317 141.888 311.528 142.14 311.688 142.379C311.853 142.605 312.026 142.77 312.065 142.754C312.103 142.737 312.171 142.788 312.204 142.865C312.299 143.087 313.238 144.133 313.337 144.124C313.383 144.127 313.455 144.188 313.492 144.274C313.558 144.428 314.592 145.616 314.816 145.793C314.902 145.859 315.056 146.033 315.173 146.199C315.286 146.356 315.48 146.57 315.619 146.681C315.758 146.792 315.894 146.951 315.931 147.037C315.964 147.114 316.048 147.204 316.121 147.241C316.19 147.269 316.53 147.636 316.877 148.046C317.237 148.462 317.585 148.848 317.657 148.909C317.949 149.137 318.579 149.756 318.616 149.843C318.633 149.882 318.936 150.162 319.28 150.46C319.624 150.757 319.922 151.028 319.935 151.057C319.947 151.086 320.074 151.168 320.202 151.227C320.494 151.376 320.554 151.304 320.915 150.443ZM272.14 169.802C272.149 169.741 272.326 169.437 272.532 169.121C272.739 168.804 272.947 168.464 272.985 168.368C273.024 168.271 273.3 167.799 273.606 167.315C273.897 166.825 274.179 166.339 274.21 166.224C274.244 166.118 274.331 166.001 274.398 165.972C274.475 165.939 274.517 165.875 274.5 165.837C274.479 165.789 274.643 165.479 274.86 165.135C275.072 164.805 275.312 164.405 275.368 164.244C275.503 163.947 275.529 163.183 275.422 162.933C275.356 162.779 275.372 161.78 275.441 161.648C275.467 161.602 275.514 161.286 275.552 160.95C275.587 160.604 275.642 160.307 275.69 160.286C275.728 160.27 275.732 160.2 275.704 160.132C275.637 159.978 276.12 157.274 276.424 156.094C276.657 155.174 276.692 155.044 276.946 154.172C277.045 153.844 277.175 153.378 277.245 153.142C277.316 152.907 277.444 152.487 277.534 152.22C277.706 151.69 277.655 151.279 277.467 151.691C277.412 151.828 277.325 151.945 277.287 151.962C277.229 151.986 276.856 152.58 276.539 153.171C276.508 153.231 276.392 153.44 276.282 153.635C275.501 155.031 274.51 157.508 274.093 159.089C273.947 159.654 273.82 160.073 273.723 160.354C273.668 160.492 273.641 160.64 273.661 160.689C273.682 160.737 273.628 160.931 273.538 161.118C273.433 161.3 273.355 161.595 273.363 161.774C273.357 161.948 273.311 162.105 273.253 162.129C273.205 162.15 273.177 162.219 273.198 162.267C273.239 162.363 273.117 163.089 273.037 163.248C273.02 163.29 272.909 163.748 272.799 164.263C272.689 164.777 272.532 165.449 272.454 165.745C272.366 166.045 272.316 166.328 272.337 166.376C272.361 166.434 272.357 166.504 272.327 166.54C272.217 166.656 271.924 167.808 271.969 167.914C271.998 167.981 271.96 168.078 271.895 168.139C271.835 168.211 271.792 168.298 271.813 168.346C271.833 168.394 271.851 168.649 271.844 168.925C271.843 169.986 271.84 170.033 271.994 169.967C272.062 169.938 272.132 169.862 272.14 169.802ZM262.579 170.959C262.405 170.794 262.221 170.656 262.179 170.64C262.138 170.623 261.994 170.526 261.855 170.414C261.72 170.312 261.113 169.854 260.504 169.419C259.882 168.979 259.375 168.592 259.366 168.573C259.329 168.486 258.542 167.82 258.45 167.791C258.408 167.775 258.239 167.619 258.09 167.432C257.932 167.249 257.716 167.011 257.6 166.901C257.16 166.486 257.068 166.377 256.787 166.041C256.375 165.533 255.697 165.254 255.035 165.333C254.288 165.425 252.574 166.057 251.863 166.499C251.035 167.013 250.366 167.528 250.399 167.605C250.415 167.644 250.3 167.773 250.153 167.882C249.992 167.985 249.743 168.229 249.601 168.403C249.463 168.588 249.294 168.752 249.226 168.781C249.159 168.809 249.122 168.882 249.143 168.931C249.167 168.988 249.145 169.043 249.097 169.064C249.01 169.101 248.402 169.784 246.722 171.69C246.47 171.981 246.206 172.242 246.148 172.267C246.081 172.296 246.053 172.365 246.074 172.413C246.099 172.47 246.058 172.534 246 172.559C245.932 172.587 245.712 172.819 245.496 173.06C245.294 173.306 245.07 173.528 245.002 173.556C244.944 173.581 244.893 173.649 244.891 173.695C244.893 173.808 243.189 175.816 243.034 175.882C242.967 175.911 242.93 175.984 242.95 176.032C242.975 176.09 242.924 176.158 242.847 176.191C242.77 176.224 242.719 176.291 242.744 176.349C242.765 176.397 242.688 176.51 242.569 176.606L242.344 176.772L242.662 176.795C242.839 176.81 243.207 176.789 243.472 176.744C243.738 176.698 244.021 176.668 244.086 176.686C244.16 176.7 244.488 176.639 244.813 176.546C245.147 176.448 245.494 176.379 245.597 176.38C245.774 176.395 247.263 176.065 248.186 175.795C248.424 175.739 248.627 175.708 248.644 175.747C248.66 175.785 249.212 175.663 249.867 175.462C250.513 175.265 251.108 175.112 251.173 175.13C251.252 175.154 251.681 175.038 252.15 174.882C252.619 174.727 253.063 174.617 253.127 174.634C253.202 174.648 254.096 174.367 255.136 174.001C256.163 173.629 257.37 173.226 257.824 173.088C258.269 172.955 259.036 172.671 259.528 172.461C260.048 172.238 260.43 172.119 260.455 172.177C260.48 172.235 260.959 172.075 261.701 171.757L262.905 171.241L262.579 170.959ZM264.073 167.821C263.064 165.255 262.331 162.695 262.319 161.628C262.322 161.502 262.277 161.213 262.216 160.988C262.114 160.565 262.02 159.761 262.03 159.358C262.038 159.137 261.864 158.254 261.549 156.827C261.471 156.484 261.428 156.172 261.454 156.126C261.48 156.081 261.264 155.364 260.984 154.526C260.383 152.777 259.063 150.07 258.628 149.721C258.489 149.609 258.357 149.46 258.332 149.403C258.208 149.114 258.025 149.432 257.908 150.143C257.837 150.561 257.776 150.952 257.772 151.023C257.768 151.093 257.728 151.372 257.684 151.642C257.57 152.307 257.456 154.009 257.514 154.144C257.543 154.211 257.525 154.276 257.467 154.301C257.419 154.321 257.404 154.419 257.445 154.515C257.482 154.602 257.507 154.819 257.488 154.987C257.478 155.151 257.503 155.448 257.543 155.648C257.592 155.843 257.599 156.365 257.573 156.809C257.551 157.264 257.55 157.686 257.579 157.754C257.608 157.821 257.594 157.895 257.536 157.92C257.488 157.941 257.469 158.029 257.502 158.106C257.535 158.183 257.525 158.267 257.487 158.283C257.438 158.304 257.421 158.528 257.452 158.788C257.48 159.039 257.489 159.274 257.463 159.32C257.4 159.438 257.385 160.174 257.433 160.872C257.454 161.239 257.473 161.63 257.462 161.738C257.446 161.859 257.57 162.387 257.735 162.932C257.9 163.477 258.028 164.015 258.017 164.123C257.996 164.394 258.244 164.972 258.521 165.298C258.649 165.437 258.901 165.785 259.091 166.068C259.277 166.342 259.48 166.551 259.528 166.531C259.577 166.51 259.636 166.542 259.661 166.599C259.706 166.705 260.519 167.246 260.822 167.367C260.928 167.402 261.143 167.583 261.301 167.766C261.459 167.949 261.666 168.112 261.75 168.121C261.843 168.127 262.043 168.247 262.204 168.383C262.365 168.519 262.537 168.628 262.578 168.644C262.708 168.68 263.355 169.098 263.383 169.166C263.396 169.195 263.613 169.329 263.854 169.466C264.105 169.598 264.317 169.746 264.337 169.794C264.395 169.929 264.699 170.027 264.798 169.939C264.848 169.895 264.575 169.099 264.073 167.821ZM278.38 160.524C278.36 160.476 278.577 160.292 278.861 160.102C279.452 159.7 280.071 159.229 280.292 158.998C280.377 158.904 280.922 158.5 281.496 158.082C282.07 157.665 282.595 157.269 282.661 157.184C282.727 157.098 282.978 156.911 283.225 156.771C283.469 156.621 283.7 156.442 283.732 156.383C283.769 156.31 284.004 156.14 284.248 155.99C284.501 155.836 284.732 155.657 284.764 155.598C284.801 155.525 285.027 155.36 285.27 155.21C285.514 155.06 285.8 154.823 285.906 154.698C286.008 154.563 286.147 154.435 286.214 154.406C286.561 154.257 287.064 151.522 286.841 151.001C286.808 150.924 286.828 150.836 286.876 150.816C286.934 150.791 286.952 150.726 286.927 150.668C286.906 150.62 286.906 150.061 286.928 149.448C286.95 148.834 286.987 147.883 287.005 147.339C287.023 146.796 287.051 145.985 287.073 145.531C287.1 145.086 287.087 144.658 287.062 144.601C287.033 144.533 287.051 144.469 287.099 144.448C287.148 144.427 287.161 144.273 287.13 144.093C287.102 143.922 287.112 143.758 287.16 143.738C287.208 143.717 287.218 143.633 287.185 143.556C287.106 143.373 287.129 142.337 287.219 142.253C287.249 142.217 287.259 142.133 287.234 142.075C287.205 142.008 287.224 141.281 287.254 140.447C287.396 137.559 287.412 136.879 287.357 136.857C287.316 136.84 287.181 136.978 287.049 137.149C286.907 137.323 286.661 137.6 286.488 137.754C286.301 137.903 286.071 138.138 285.969 138.273C285.857 138.412 285.709 138.544 285.651 138.569C285.584 138.598 285.546 138.671 285.567 138.719C285.592 138.777 285.551 138.84 285.493 138.865C285.339 138.931 283.659 140.917 283.555 141.155C283.513 141.242 283.441 141.341 283.393 141.361C283.345 141.382 282.898 141.962 282.402 142.641C281.911 143.331 281.447 143.952 281.363 144.022C281.035 144.345 280.74 145.122 280.933 145.199C281.153 145.287 281.395 145.958 281.358 146.43C281.335 146.668 281.062 147.549 280.736 148.385C280.131 149.978 279.907 150.679 279.742 151.571C279.683 151.858 279.597 152.111 279.559 152.128C279.511 152.149 279.489 152.204 279.513 152.261C279.534 152.31 279.416 152.885 279.251 153.537C279.086 154.189 278.894 154.967 278.83 155.268C278.761 155.56 278.676 155.813 278.627 155.834C278.589 155.851 278.575 155.925 278.608 156.002C278.641 156.079 278.586 156.376 278.49 156.657C278.394 156.938 278.322 157.197 278.339 157.235C278.355 157.274 278.335 157.385 278.296 157.481C278.257 157.578 278.154 157.976 278.076 158.351C277.998 158.727 277.904 159.121 277.861 159.207C277.823 159.304 277.819 159.533 277.864 159.719C277.9 159.909 277.903 160.102 277.877 160.147C277.85 160.193 277.85 160.352 277.878 160.523C277.919 160.779 277.951 160.8 278.173 160.705C278.307 160.647 278.397 160.563 278.38 160.524ZM239.886 175.533C239.869 175.495 240.033 175.345 240.261 175.213C240.476 175.075 240.726 174.888 240.792 174.802C240.915 174.636 241.215 174.325 241.954 173.575C242.129 173.397 242.367 173.181 242.485 173.085C242.603 172.988 242.704 172.877 242.72 172.836C242.733 172.785 243.007 172.519 243.315 172.227C243.637 171.941 243.971 171.604 244.077 171.478C244.183 171.353 244.341 171.217 244.428 171.18C244.515 171.143 244.594 171.063 244.612 170.998C244.621 170.938 244.762 170.763 244.926 170.613C245.094 170.472 245.265 170.285 245.292 170.216C245.415 169.97 246.77 168.237 246.876 168.192C246.934 168.167 246.965 168.108 246.941 168.05C246.92 168.002 246.967 167.925 247.044 167.892C247.121 167.859 247.172 167.791 247.151 167.743C247.135 167.705 247.286 167.526 247.498 167.355C247.71 167.184 247.869 167.025 247.853 166.986C247.84 166.957 248.052 166.707 248.336 166.437C248.614 166.181 248.958 165.84 249.098 165.688C249.239 165.537 249.435 165.384 249.541 165.339C249.638 165.297 249.709 165.198 249.704 165.132C249.701 165.019 250.243 164.741 251.911 164.003C253.136 163.456 254.117 162.978 254.096 162.93C254.055 162.833 253.272 162.337 253.123 162.309C253.063 162.301 252.885 162.206 252.741 162.108C251.104 161.031 249.976 160.58 249.198 160.708C248.942 160.749 248.572 160.737 248.383 160.669C247.959 160.532 246.503 160.381 246.307 160.454C246.23 160.487 246.008 160.502 245.821 160.491C245.643 160.476 245.393 160.503 245.277 160.553C245.162 160.602 244.983 160.611 244.891 160.582C244.666 160.484 240.977 162.066 240.947 162.261C240.933 162.335 240.759 162.49 240.56 162.609C239.308 163.386 238.325 164.046 238.325 164.126C238.322 164.173 238.223 164.261 238.098 164.315C237.973 164.368 237.777 164.498 237.667 164.613C237.473 164.799 236.745 165.282 235.228 166.264C234.906 166.47 234.636 166.666 234.623 166.717C234.607 166.758 234.2 167.058 233.707 167.372C233.21 167.676 232.618 168.078 232.374 168.251C231.868 168.616 230.252 169.685 229.354 170.253C228.496 170.803 228.464 170.942 229.096 171.299C229.159 171.34 229.606 171.638 230.089 171.967C230.573 172.296 231.115 172.657 231.287 172.765C232.02 173.226 232.399 173.497 232.436 173.584C232.461 173.642 232.526 173.66 232.574 173.639C232.631 173.614 232.742 173.658 232.821 173.738C232.977 173.888 234.472 174.901 234.601 174.937C234.642 174.953 234.964 175.146 235.303 175.377C236.098 175.902 237.311 176.363 237.71 176.284C237.881 176.256 238.035 176.27 238.055 176.318C238.076 176.366 238.507 176.227 239.008 176.012C239.509 175.798 239.906 175.581 239.886 175.533ZM290.195 150.978C290.223 150.909 290.341 150.812 290.457 150.763C290.582 150.709 290.681 150.621 290.693 150.57C290.702 150.51 291.002 150.278 291.358 150.046C291.714 149.813 292.082 149.553 292.171 149.469C292.536 149.096 293.302 148.517 294.028 148.08C294.451 147.819 294.819 147.559 294.846 147.49C294.888 147.426 295.006 147.33 295.131 147.276C295.256 147.223 295.336 147.143 295.316 147.095C295.295 147.047 295.391 146.925 295.529 146.821C295.872 146.583 296.158 145.867 296.283 144.935C296.341 144.512 296.423 144.145 296.453 144.11C296.484 144.074 296.497 144 296.477 143.951C296.456 143.903 296.51 143.47 296.595 142.977C296.8 141.806 296.79 141.81 296.915 140.878C296.965 140.435 297.032 140.007 297.071 139.911C297.1 139.819 297.141 139.596 297.16 139.428C297.179 139.26 297.258 138.724 297.334 138.236C297.522 137.026 297.595 136.505 297.607 136.294C297.613 136.201 297.635 136.066 297.648 135.991C297.742 135.678 297.848 134.914 297.815 134.837C297.798 134.798 297.802 134.728 297.842 134.688C297.928 134.594 298.071 133.838 298.021 133.722C298 133.674 298.009 133.613 298.057 133.593C298.095 133.576 298.163 133.308 298.215 132.977C298.262 132.661 298.321 132.373 298.337 132.332C298.456 132.076 298.751 130.079 298.678 130.042C298.504 129.98 292.952 132.405 292.848 132.587C292.796 132.678 292.359 132.99 291.878 133.277C291.391 133.577 291.004 133.845 291.025 133.893C291.041 133.932 290.99 133.999 290.913 134.032C290.836 134.065 290.606 134.301 290.414 134.543C290.085 134.946 289.946 135.394 289.949 135.985C289.955 136.108 289.905 136.335 289.844 136.486C289.784 136.638 289.664 137.077 289.585 137.452C289.497 137.832 289.408 138.235 289.374 138.341C289.232 138.756 289.012 139.945 288.96 140.514C288.863 141.673 288.859 141.823 288.851 142.443C288.859 142.781 288.836 143.099 288.802 143.125C288.762 143.165 288.77 143.264 288.803 143.341C288.84 143.428 288.851 143.879 288.833 144.343C288.816 144.807 288.806 145.21 288.823 145.249C288.851 145.316 288.861 145.791 288.843 146.494C288.816 147.521 288.83 147.925 288.888 148.06C288.925 148.147 288.915 148.231 288.857 148.256C288.809 148.276 288.782 148.345 288.806 148.403C288.831 148.461 288.852 148.668 288.845 148.865C288.852 149.068 288.857 149.533 288.868 149.904C288.889 150.272 288.884 150.685 288.862 150.819C288.84 150.954 288.862 151.219 288.902 151.418L288.975 151.775L289.553 151.447C289.873 151.264 290.158 151.051 290.195 150.978ZM317.786 136.709C317.693 136.623 317.419 136.251 317.182 135.885C316.955 135.514 316.72 135.205 316.678 135.188C316.627 135.176 316.344 134.887 316.049 134.546C315.755 134.204 315.405 133.841 315.28 133.735C315.155 133.629 315.027 133.49 315.002 133.432C314.973 133.365 314.91 133.324 314.852 133.348C314.804 133.369 314.731 133.332 314.706 133.274C314.677 133.207 314.432 132.981 314.168 132.764C313.904 132.546 313.46 132.177 313.165 131.939C312.64 131.514 312.509 131.422 312.163 131.251C312.066 131.213 311.971 131.151 311.955 131.112C311.893 130.968 311.088 130.526 310.84 130.507C310.401 130.467 310.02 130.961 309.702 131.976C309.558 132.437 309.377 133.027 309.292 133.28C309.221 133.539 309.084 133.939 309.014 134.175C308.835 134.742 308.357 136.817 308.289 137.325C308.258 137.544 308.212 137.917 308.175 138.149C308.095 138.788 308.016 139.746 308.049 139.823C308.065 139.861 308.292 139.832 308.565 139.75C308.832 139.681 309.15 139.625 309.276 139.627C309.403 139.63 310.043 139.447 310.703 139.232C312.907 138.493 314.335 138.154 314.846 138.255C314.92 138.268 315.194 138.242 315.464 138.206C315.733 138.171 316.131 138.194 316.329 138.257C316.527 138.32 316.746 138.352 316.814 138.323C316.91 138.282 317.072 138.315 317.7 138.502C317.792 138.531 318.018 138.525 318.212 138.499L318.572 138.436L318.271 137.653C318.108 137.221 317.88 136.794 317.786 136.709ZM300.757 143.827C301.661 143.382 302.452 142.941 302.518 142.855C302.579 142.784 303.147 142.46 303.776 142.145C304.405 141.83 304.906 141.535 304.885 141.487C304.864 141.439 304.935 141.363 305.05 141.314C305.252 141.227 305.621 140.385 305.793 139.615C305.84 139.379 305.906 139.134 305.92 139.059C306.177 138.117 306.288 137.578 306.255 137.501C306.231 137.444 306.255 137.342 306.306 137.274C306.357 137.207 306.557 136.369 306.744 135.422C307.019 134.015 307.667 131.138 307.984 129.964C308.02 129.834 308.013 129.632 307.968 129.526C307.823 129.189 306.739 128.548 306.152 128.457C305.85 128.416 305.562 128.357 305.521 128.34C305.434 128.298 304.478 128.354 304.074 128.424C303.927 128.453 303.777 128.449 303.728 128.413C303.682 128.387 303.364 128.444 303.034 128.551L302.417 128.735L302.346 129.313C302.266 130.032 302.06 130.508 301.809 130.615C301.713 130.657 301.647 130.742 301.668 130.79C301.692 130.848 301.632 130.92 301.536 130.961C301.439 131.002 301.34 131.09 301.299 131.154C301.271 131.222 301.097 131.4 300.909 131.549C300.323 132.017 299.952 133.145 299.693 135.229C299.659 135.494 299.607 135.745 299.59 135.786C299.574 135.827 299.55 135.986 299.541 136.149C299.524 136.51 299.464 136.901 299.416 137.001C299.389 137.047 299.352 137.359 299.318 137.705C299.284 138.05 299.227 138.53 299.198 138.782C299.156 139.028 299.13 139.313 299.124 139.407C299.128 139.496 299.108 139.608 299.091 139.649C299.048 139.736 298.993 140.193 298.97 140.67C298.954 140.871 298.919 141.137 298.882 141.29C298.841 141.433 298.784 142.073 298.742 142.718C298.705 143.35 298.648 143.91 298.614 143.936C298.574 143.976 298.578 144.065 298.607 144.133C298.636 144.2 298.631 144.294 298.591 144.334C298.56 144.37 298.529 144.509 298.554 144.646C298.578 144.943 298.497 144.967 300.757 143.827ZM255.482 159.565C255.589 157.66 255.626 156.39 255.572 156.265C255.547 156.207 255.575 156.138 255.623 156.117C255.681 156.093 255.699 156.028 255.674 155.97C255.637 155.883 255.628 155.625 255.643 154.569C255.646 154.443 255.631 154.221 255.602 154.074C255.533 153.567 255.573 152.171 255.671 151.627C255.712 151.404 255.749 150.932 255.76 150.585C255.771 150.238 255.794 149.92 255.811 149.879C255.878 149.77 255.607 148.632 255.392 148.131C255.293 147.9 255.198 147.519 255.177 147.311C255.146 146.891 255.377 146.234 255.638 146.019C255.722 145.949 255.764 145.806 255.746 145.711C255.71 145.521 255.36 145.078 255.155 144.972C255.096 144.94 254.873 144.819 254.668 144.713C254.459 144.597 254.283 144.479 254.27 144.45C254.254 144.412 254.09 144.322 253.897 144.245C253.705 144.168 253.537 144.069 253.52 144.031C253.5 143.982 253.259 143.846 252.989 143.722C252.715 143.589 252.478 143.462 252.462 143.424C252.445 143.385 252.005 143.129 251.5 142.856C250.985 142.586 250.422 142.257 250.246 142.139C250.075 142.007 249.912 141.917 249.883 141.93C249.844 141.946 249.705 141.914 249.558 141.863C249.25 141.756 248.797 141.791 248.855 141.925C248.879 141.983 248.884 142.232 248.878 142.486C248.859 142.733 248.906 143.135 248.962 143.373C249.019 143.611 249.059 143.891 249.048 143.998C249.042 144.092 249.116 144.504 249.225 144.891C249.466 145.826 249.637 146.756 249.594 146.843C249.568 146.888 249.638 147.291 249.753 147.744C249.867 148.197 249.949 148.629 249.932 148.694C249.918 148.768 249.962 149.057 250.035 149.333C250.112 149.62 250.166 149.905 250.157 149.965C250.144 150.039 250.224 150.438 250.325 150.862C250.737 152.488 250.857 153.086 250.81 153.163C250.794 153.205 250.85 153.522 250.956 153.876C251.058 154.22 251.116 154.515 251.077 154.531C251.039 154.548 251.13 154.999 251.267 155.533C251.419 156.073 251.508 156.547 251.482 156.593C251.446 156.642 251.47 156.803 251.532 156.948C251.594 157.092 251.679 157.478 251.716 157.804C251.753 158.13 251.887 158.654 252.027 158.982C252.241 159.506 252.325 159.595 252.793 159.862C253.079 160.025 253.419 160.233 253.545 160.315C254.433 160.87 255.179 161.2 255.293 161.094C255.348 161.036 255.431 160.351 255.482 159.565ZM229.582 167.327C229.921 167.079 230.454 166.725 230.776 166.519C231.102 166.322 231.435 166.088 231.52 165.994C231.609 165.91 232.002 165.628 232.401 165.389C233.473 164.724 234.352 164.142 234.487 164.004C234.552 163.942 234.898 163.714 235.24 163.499C237.06 162.399 237.875 161.879 237.982 161.73C238.058 161.641 238.224 161.524 238.35 161.47C238.484 161.412 238.831 161.184 239.139 160.972C239.444 160.75 240.019 160.39 240.426 160.169C240.833 159.949 241.18 159.721 241.184 159.65C241.223 159.474 243.348 158.552 243.689 158.577C243.843 158.59 244.362 158.471 244.831 158.315C245.664 158.049 245.693 158.037 245.562 157.865C245.487 157.771 245.227 157.564 244.984 157.394C244.731 157.229 244.514 157.071 244.498 157.033C244.436 156.888 243.151 156.47 242.641 156.426C242.347 156.404 242.03 156.357 241.934 156.319C241.851 156.286 241.66 156.265 241.528 156.276C241.4 156.297 241.236 156.287 241.158 156.264C240.516 156.071 240.377 156.039 240.281 156.081C240.223 156.105 240.014 156.07 239.812 155.997C239.61 155.924 239.429 155.876 239.41 155.884C239.391 155.892 238.873 155.829 238.268 155.746C237.662 155.664 237.116 155.613 237.068 155.634C237.02 155.654 236.949 155.65 236.914 155.62C236.883 155.576 236.388 155.537 235.807 155.513C235.236 155.484 234.679 155.461 234.562 155.454C234.454 155.443 234.136 155.499 233.85 155.576C233.564 155.653 233.318 155.691 233.297 155.642C233.276 155.594 232.007 156.093 230.466 156.753C228.935 157.41 227.689 157.989 227.71 158.038C227.726 158.076 227.331 158.325 226.837 158.583C226.343 158.84 225.9 159.11 225.869 159.169C225.831 159.242 225.571 159.433 225.295 159.586C225.022 159.749 224.724 159.956 224.638 160.05C224.553 160.144 224.147 160.5 223.727 160.851C222.951 161.514 222.881 161.59 222.695 162.115C222.561 162.492 222.607 162.814 222.906 163.564C223.034 163.862 223.093 164.133 223.036 164.158C222.92 164.208 223.834 166.393 223.992 166.416C224.043 166.429 224.255 166.737 224.459 167.106C225.297 168.662 226.227 168.891 228.344 168.029C228.691 167.88 229.254 167.57 229.582 167.327ZM249.506 156.664C249.337 156.03 249.101 155.162 248.99 154.742C248.878 154.322 248.787 153.871 248.78 153.748C248.783 153.622 248.713 153.219 248.622 152.847C248.26 151.337 248.172 150.919 248.17 150.703C248.173 150.576 248.132 150.241 248.064 149.95C247.783 148.577 247.644 147.827 247.647 147.62C247.639 147.282 247.311 145.507 247.208 145.266C247.158 145.15 247.155 145.037 247.194 145.021C247.242 145 247.192 144.645 247.089 144.245C246.518 141.901 246.32 141.439 245.773 141.148C245.459 140.975 244.473 140.828 244.251 140.923C244.174 140.956 244.1 140.942 244.075 140.884C244.054 140.836 243.986 140.809 243.918 140.837C243.86 140.862 243.592 140.875 243.339 140.869C243.076 140.868 242.659 140.853 242.41 140.857C242.157 140.851 241.64 140.845 241.257 140.827C239.94 140.787 239.158 140.826 239.038 140.945C238.924 141.051 239.004 141.291 239.512 142.476C239.842 143.246 240.207 143.991 240.335 144.13C240.625 144.461 241.889 147.01 243.627 150.746C244.386 152.382 245.103 153.842 245.226 153.995C245.358 154.144 245.665 154.594 245.922 155.008C246.175 155.413 246.415 155.732 246.463 155.711C246.502 155.695 246.569 155.746 246.606 155.832C246.701 156.054 247.532 156.769 248.038 157.043C248.687 157.415 249.679 157.867 249.747 157.838C249.785 157.822 249.671 157.289 249.506 156.664ZM241.9 151.053C240.77 148.55 238.758 144.601 238.606 144.62C238.54 144.625 238.469 144.565 238.436 144.488C238.378 144.353 237.781 143.731 237.339 143.339C236.861 142.916 236.56 141.814 236.758 141.159C236.811 140.965 236.761 140.953 236.326 141.082C236.063 141.16 235.108 141.513 234.205 141.854L232.562 142.49L232.735 142.895C232.826 143.107 233.077 143.558 233.278 143.894C233.488 144.225 234.116 145.45 234.686 146.62C235.941 149.229 235.855 149.027 236.02 149.652C236.179 150.21 236.438 150.441 237.25 150.766C237.443 150.843 237.776 151.008 237.999 151.129C238.212 151.255 238.577 151.44 238.801 151.538C239.016 151.64 239.459 151.849 239.778 152.009C240.098 152.168 240.545 152.387 240.76 152.489C240.988 152.596 241.312 152.765 241.489 152.86C241.667 152.955 242.027 153.131 242.279 153.24C242.525 153.362 242.757 153.503 242.791 153.556C242.82 153.624 242.843 153.545 242.834 153.39C242.83 153.221 242.448 152.278 241.9 151.053ZM238.156 153.411C238.144 153.382 238.053 153.33 237.956 153.291C237.86 153.253 237.473 153.042 237.083 152.822C236.469 152.481 234.608 151.705 233.824 151.471C233.667 151.424 233.418 151.349 233.274 151.307C233.118 151.261 232.677 151.164 232.296 151.1C231.901 151.03 231.511 150.946 231.419 150.917C231.323 150.878 230.972 150.858 230.62 150.86C230.281 150.869 229.982 150.837 229.962 150.789C229.945 150.75 229.842 150.749 229.746 150.79C229.64 150.836 229.517 150.843 229.468 150.807C229.418 150.771 229.245 150.766 229.084 150.789C228.927 150.822 228.588 150.83 228.326 150.829C228.072 150.824 227.545 150.844 227.153 150.887C226.757 150.92 226.333 150.942 226.21 150.949C225.342 150.945 225.14 150.952 224.816 151.022C224.621 151.072 224.347 151.098 224.211 151.099C223.893 151.076 223.658 151.405 223.205 152.477C223.029 152.917 222.71 153.636 222.51 154.075C222.214 154.715 222.13 155.104 222.081 155.946C222.056 156.527 222.056 157.325 222.089 157.722C222.122 158.118 222.125 158.47 222.099 158.516C222.073 158.561 222.085 158.75 222.135 158.945C222.197 159.249 222.219 159.274 222.348 159.15C222.647 158.863 223.442 158.271 223.909 158.002C224.176 157.854 224.397 157.679 224.41 157.628C224.418 157.567 224.633 157.43 224.883 157.322C225.133 157.215 225.369 157.046 225.402 156.963C225.457 156.825 226.398 156.388 229.461 155.074C232.525 153.761 233.491 153.381 233.619 153.44C233.711 153.469 233.919 153.449 234.063 153.387C234.208 153.325 234.349 153.31 234.37 153.358C234.391 153.406 234.599 153.385 234.846 153.325C235.28 153.219 237.198 153.252 237.322 153.381C237.358 153.411 237.432 153.425 237.49 153.4C237.538 153.379 237.673 153.401 237.783 153.446C237.976 153.523 238.193 153.498 238.156 153.411ZM233.688 149.134C233.607 148.519 232.831 146.788 232.327 146.092C231.724 145.244 230.957 144.307 230.695 144.066C230.328 143.744 229.57 143.944 228.553 144.631C228.103 144.938 227.677 145.246 227.62 145.327C227.56 145.399 227.338 145.653 227.122 145.894C226.916 146.131 226.698 146.395 226.66 146.491C226.627 146.574 226.51 146.727 226.401 146.819C226.302 146.907 226.211 147.014 226.195 147.056C226.182 147.107 226.048 147.324 225.889 147.54C225.731 147.756 225.596 147.974 225.58 148.015C225.567 148.066 225.494 148.188 225.413 148.292C225.281 148.462 225.285 148.472 225.658 148.517C225.863 148.543 226.053 148.587 226.074 148.636C226.09 148.674 226.151 148.682 226.209 148.658C226.266 148.633 226.532 148.667 226.787 148.729C227.045 148.801 227.423 148.856 227.629 148.858C227.826 148.865 228.007 148.89 228.024 148.929C228.045 148.977 228.144 148.968 228.24 148.927C228.346 148.882 228.468 148.875 228.528 148.906C228.577 148.942 228.801 148.96 229.029 148.931C229.435 148.894 230.19 148.901 230.314 148.95C230.355 148.967 230.617 148.992 230.911 149.014C231.202 149.026 231.734 149.151 232.098 149.28C232.677 149.488 233.477 149.624 233.677 149.561C233.716 149.544 233.723 149.348 233.688 149.134Z" fill="#980B49"/>
<path d="M291.795 216.819C290.698 217.107 289.676 217.009 288.956 216.554C288.598 216.331 288.511 216.208 288.252 215.578C288.097 215.188 287.996 214.821 288.028 214.762C288.073 214.708 288.083 214.544 288.054 214.397C287.985 213.97 288.437 212.762 288.829 212.32C289.367 211.713 290.589 211.212 291.46 211.249C291.811 211.27 292.248 211.253 292.419 211.226C293.117 211.098 294.276 211.433 294.433 211.799C294.47 211.886 294.563 211.972 294.624 211.98C294.772 212.007 295.059 212.649 294.943 212.698C294.895 212.719 294.887 212.859 294.924 213.026C294.975 213.277 294.895 213.597 294.674 214.011C294.594 214.171 294.166 214.662 293.581 215.266C293.41 215.453 293.196 215.671 293.11 215.764C293.025 215.858 292.79 216.107 292.585 216.321C292.384 216.543 292.176 216.724 292.138 216.74C292.095 216.747 291.942 216.79 291.795 216.819Z" fill="#980B49"/>
</svg>
